<?xml version="1.0" encoding="utf-8" standalone="no"?>
<!DOCTYPE svg PUBLIC "-//W3C//DTD SVG 1.1//EN"
  "http://www.w3.org/Graphics/SVG/1.1/DTD/svg11.dtd">
<svg height="214.384397pt" version="1.1" viewBox="0 0 267.245728 214.384397" width="267.245728pt" xmlns="http://www.w3.org/2000/svg" xmlns:xlink="http://www.w3.org/1999/xlink">
 <metadata>
  <rdf:RDF xmlns:cc="http://creativecommons.org/ns#" xmlns:dc="http://purl.org/dc/elements/1.1/" xmlns:rdf="http://www.w3.org/1999/02/22-rdf-syntax-ns#">
   <cc:Work>
    <dc:type rdf:resource="http://purl.org/dc/dcmitype/StillImage"/>
    <dc:date>2022-08-17T10:35:47.869471</dc:date>
    <dc:format>image/svg+xml</dc:format>
    <dc:creator>
     <cc:Agent>
      <dc:title>Matplotlib v3.4.3, https://matplotlib.org/</dc:title>
     </cc:Agent>
    </dc:creator>
   </cc:Work>
  </rdf:RDF>
 </metadata>
 <defs>
  <style type="text/css">*{stroke-linecap:butt;stroke-linejoin:round;}</style>
 </defs>
 <g id="figure_1">
  <g id="patch_1">
   <path d="M 0 214.384397 
L 267.245728 214.384397 
L 267.245728 -0 
L 0 -0 
z
" style="fill:#ffffff;"/>
  </g>
  <g id="axes_1">
   <g id="line2d_1">
    <path clip-path="url(#p45eb0b65ab)" d="M 69.15153 43.5608 
L 255.500628 43.5608 
" style="fill:none;stroke:#000000;stroke-linecap:square;stroke-width:2;"/>
   </g>
   <g id="line2d_2">
    <path clip-path="url(#p45eb0b65ab)" d="M 69.15153 89.011799 
L 255.500628 89.011799 
" style="fill:none;stroke:#000000;stroke-linecap:square;stroke-width:2;"/>
   </g>
   <g id="line2d_3">
    <path clip-path="url(#p45eb0b65ab)" d="M 69.15153 134.462798 
L 255.500628 134.462798 
" style="fill:none;stroke:#000000;stroke-linecap:square;stroke-width:2;"/>
   </g>
   <g id="line2d_4">
    <path clip-path="url(#p45eb0b65ab)" d="M 69.15153 179.913798 
L 255.500628 179.913798 
" style="fill:none;stroke:#000000;stroke-linecap:square;stroke-width:2;"/>
   </g>
   <g id="line2d_5">
    <path clip-path="url(#p45eb0b65ab)" d="M 139.146069 179.913798 
L 139.146069 43.5608 
" style="fill:none;stroke:#6fa4ff;stroke-linecap:square;stroke-width:2;"/>
   </g>
   <g id="line2d_6">
    <path clip-path="url(#p45eb0b65ab)" d="M 184.597069 179.913798 
L 184.597069 89.011799 
" style="fill:none;stroke:#6fa4ff;stroke-linecap:square;stroke-width:2;"/>
   </g>
   <g id="line2d_7">
    <path clip-path="url(#p45eb0b65ab)" d="M 230.048068 179.913798 
L 230.048068 89.011799 
" style="fill:none;stroke:#bb8bff;stroke-linecap:square;stroke-width:2;"/>
   </g>
   <g id="patch_2">
    <path clip-path="url(#p45eb0b65ab)" d="M 78.923495 58.332374 
L 108.466645 58.332374 
L 108.466645 28.789225 
L 78.923495 28.789225 
z
" style="fill:#6fa4ff;stroke:#6fa4ff;stroke-linejoin:miter;stroke-width:1.5;"/>
   </g>
   <g id="patch_3">
    <path clip-path="url(#p45eb0b65ab)" d="M 78.923495 103.783374 
L 108.466645 103.783374 
L 108.466645 74.240224 
L 78.923495 74.240224 
z
" style="fill:#6fa4ff;stroke:#6fa4ff;stroke-linejoin:miter;stroke-width:1.5;"/>
   </g>
   <g id="patch_4">
    <path clip-path="url(#p45eb0b65ab)" d="M 139.146069 47.992272 
C 140.32131 47.992272 141.448573 47.525344 142.279594 46.694324 
C 143.110614 45.863303 143.577542 44.73604 143.577542 43.5608 
C 143.577542 42.385559 143.110614 41.258296 142.279594 40.427275 
C 141.448573 39.596255 140.32131 39.129327 139.146069 39.129327 
C 137.970829 39.129327 136.843565 39.596255 136.012545 40.427275 
C 135.181525 41.258296 134.714597 42.385559 134.714597 43.5608 
C 134.714597 44.73604 135.181525 45.863303 136.012545 46.694324 
C 136.843565 47.525344 137.970829 47.992272 139.146069 47.992272 
z
" style="fill:#6fa4ff;stroke:#6fa4ff;stroke-linejoin:miter;stroke-width:1.5;"/>
   </g>
   <g id="patch_5">
    <path clip-path="url(#p45eb0b65ab)" d="M 139.146069 190.2539 
C 141.888296 190.2539 144.518578 189.164402 146.457626 187.225354 
C 148.396673 185.286307 149.486172 182.656025 149.486172 179.913798 
C 149.486172 177.171571 148.396673 174.541289 146.457626 172.602241 
C 144.518578 170.663194 141.888296 169.573695 139.146069 169.573695 
C 136.403842 169.573695 133.77356 170.663194 131.834513 172.602241 
C 129.895465 174.541289 128.805967 177.171571 128.805967 179.913798 
C 128.805967 182.656025 129.895465 185.286307 131.834513 187.225354 
C 133.77356 189.164402 136.403842 190.2539 139.146069 190.2539 
z
" style="fill:#6fa4ff;stroke:#6fa4ff;stroke-linejoin:miter;stroke-width:2;"/>
   </g>
   <g id="patch_6">
    <path clip-path="url(#p45eb0b65ab)" d="M 184.597069 93.443271 
C 185.772309 93.443271 186.899573 92.976343 187.730593 92.145323 
C 188.561613 91.314303 189.028541 90.187039 189.028541 89.011799 
C 189.028541 87.836559 188.561613 86.709295 187.730593 85.878275 
C 186.899573 85.047254 185.772309 84.580326 184.597069 84.580326 
C 183.421828 84.580326 182.294565 85.047254 181.463544 85.878275 
C 180.632524 86.709295 180.165596 87.836559 180.165596 89.011799 
C 180.165596 90.187039 180.632524 91.314303 181.463544 92.145323 
C 182.294565 92.976343 183.421828 93.443271 184.597069 93.443271 
z
" style="fill:#6fa4ff;stroke:#6fa4ff;stroke-linejoin:miter;stroke-width:1.5;"/>
   </g>
   <g id="patch_7">
    <path clip-path="url(#p45eb0b65ab)" d="M 184.597069 190.2539 
C 187.339296 190.2539 189.969578 189.164402 191.908625 187.225354 
C 193.847673 185.286307 194.937171 182.656025 194.937171 179.913798 
C 194.937171 177.171571 193.847673 174.541289 191.908625 172.602241 
C 189.969578 170.663194 187.339296 169.573695 184.597069 169.573695 
C 181.854841 169.573695 179.22456 170.663194 177.285512 172.602241 
C 175.346465 174.541289 174.256966 177.171571 174.256966 179.913798 
C 174.256966 182.656025 175.346465 185.286307 177.285512 187.225354 
C 179.22456 189.164402 181.854841 190.2539 184.597069 190.2539 
z
" style="fill:#6fa4ff;stroke:#6fa4ff;stroke-linejoin:miter;stroke-width:2;"/>
   </g>
   <g id="patch_8">
    <path clip-path="url(#p45eb0b65ab)" d="M 230.048068 93.443271 
C 231.223308 93.443271 232.350572 92.976343 233.181592 92.145323 
C 234.012613 91.314303 234.479541 90.187039 234.479541 89.011799 
C 234.479541 87.836559 234.012613 86.709295 233.181592 85.878275 
C 232.350572 85.047254 231.223308 84.580326 230.048068 84.580326 
C 228.872828 84.580326 227.745564 85.047254 226.914544 85.878275 
C 226.083524 86.709295 225.616596 87.836559 225.616596 89.011799 
C 225.616596 90.187039 226.083524 91.314303 226.914544 92.145323 
C 227.745564 92.976343 228.872828 93.443271 230.048068 93.443271 
z
" style="fill:#bb8bff;stroke:#bb8bff;stroke-linejoin:miter;stroke-width:1.5;"/>
   </g>
   <g id="patch_9">
    <path clip-path="url(#p45eb0b65ab)" d="M 230.048068 184.34527 
C 231.223308 184.34527 232.350572 183.878342 233.181592 183.047322 
C 234.012613 182.216302 234.479541 181.089038 234.479541 179.913798 
C 234.479541 178.738557 234.012613 177.611294 233.181592 176.780273 
C 232.350572 175.949253 231.223308 175.482325 230.048068 175.482325 
C 228.872828 175.482325 227.745564 175.949253 226.914544 176.780273 
C 226.083524 177.611294 225.616596 178.738557 225.616596 179.913798 
C 225.616596 181.089038 226.083524 182.216302 226.914544 183.047322 
C 227.745564 183.878342 228.872828 184.34527 230.048068 184.34527 
z
" style="fill:#bb8bff;stroke:#bb8bff;stroke-linejoin:miter;stroke-width:1.5;"/>
   </g>
   <g id="patch_10">
    <path clip-path="url(#p45eb0b65ab)" d="M 230.048068 144.802901 
C 232.790295 144.802901 235.420577 143.713402 237.359625 141.774355 
C 239.298672 139.835307 240.38817 137.205026 240.38817 134.462798 
C 240.38817 131.720571 239.298672 129.090289 237.359625 127.151242 
C 235.420577 125.212194 232.790295 124.122696 230.048068 124.122696 
C 227.305841 124.122696 224.675559 125.212194 222.736512 127.151242 
C 220.797464 129.090289 219.707966 131.720571 219.707966 134.462798 
C 219.707966 137.205026 220.797464 139.835307 222.736512 141.774355 
C 224.675559 143.713402 227.305841 144.802901 230.048068 144.802901 
z
" style="fill:#bb8bff;stroke:#bb8bff;stroke-linejoin:miter;stroke-width:2;"/>
   </g>
   <g id="line2d_8">
    <path clip-path="url(#p45eb0b65ab)" d="M 139.146069 185.822428 
L 139.146069 174.005168 
" style="fill:none;stroke:#ffffff;stroke-linecap:square;stroke-width:2;"/>
   </g>
   <g id="line2d_9">
    <path clip-path="url(#p45eb0b65ab)" d="M 133.237439 179.913798 
L 145.054699 179.913798 
" style="fill:none;stroke:#ffffff;stroke-linecap:square;stroke-width:2;"/>
   </g>
   <g id="line2d_10">
    <path clip-path="url(#p45eb0b65ab)" d="M 184.597069 185.822428 
L 184.597069 174.005168 
" style="fill:none;stroke:#ffffff;stroke-linecap:square;stroke-width:2;"/>
   </g>
   <g id="line2d_11">
    <path clip-path="url(#p45eb0b65ab)" d="M 178.688439 179.913798 
L 190.505699 179.913798 
" style="fill:none;stroke:#ffffff;stroke-linecap:square;stroke-width:2;"/>
   </g>
   <g id="line2d_12">
    <path clip-path="url(#p45eb0b65ab)" d="M 230.048068 140.371428 
L 230.048068 128.554168 
" style="fill:none;stroke:#ffffff;stroke-linecap:square;stroke-width:2;"/>
   </g>
   <g id="line2d_13">
    <path clip-path="url(#p45eb0b65ab)" d="M 224.139438 134.462798 
L 235.956698 134.462798 
" style="fill:none;stroke:#ffffff;stroke-linecap:square;stroke-width:2;"/>
   </g>
   <g id="text_1">
    <g clip-path="url(#p45eb0b65ab)">
     <!-- ${a}$ -->
     <g transform="translate(49.98633 48.044784)scale(0.1625 -0.1625)">
      <defs>
       <path d="M 3438 1997 
L 3047 0 
L 2472 0 
L 2578 531 
Q 2325 219 2001 64 
Q 1678 -91 1281 -91 
Q 834 -91 548 182 
Q 263 456 263 884 
Q 263 1497 752 1853 
Q 1241 2209 2100 2209 
L 2900 2209 
L 2931 2363 
Q 2938 2388 2941 2417 
Q 2944 2447 2944 2509 
Q 2944 2788 2717 2942 
Q 2491 3097 2081 3097 
Q 1800 3097 1504 3025 
Q 1209 2953 897 2809 
L 997 3341 
Q 1322 3463 1633 3523 
Q 1944 3584 2234 3584 
Q 2853 3584 3176 3315 
Q 3500 3047 3500 2534 
Q 3500 2431 3484 2292 
Q 3469 2153 3438 1997 
z
M 2816 1759 
L 2241 1759 
Q 1534 1759 1195 1570 
Q 856 1381 856 984 
Q 856 709 1029 553 
Q 1203 397 1509 397 
Q 1978 397 2328 733 
Q 2678 1069 2791 1631 
L 2816 1759 
z
" id="DejaVuSans-Oblique-61" transform="scale(0.015625)"/>
      </defs>
      <use xlink:href="#DejaVuSans-Oblique-61"/>
     </g>
    </g>
   </g>
   <g id="text_2">
    <g clip-path="url(#p45eb0b65ab)">
     <!-- ${b}$ -->
     <g transform="translate(49.66133 93.495783)scale(0.1625 -0.1625)">
      <defs>
       <path d="M 3169 2138 
Q 3169 2591 2961 2847 
Q 2753 3103 2388 3103 
Q 2122 3103 1889 2973 
Q 1656 2844 1484 2597 
Q 1303 2338 1198 1995 
Q 1094 1653 1094 1313 
Q 1094 881 1298 636 
Q 1503 391 1863 391 
Q 2134 391 2365 517 
Q 2597 644 2772 891 
Q 2950 1147 3059 1487 
Q 3169 1828 3169 2138 
z
M 1381 2969 
Q 1594 3256 1914 3420 
Q 2234 3584 2584 3584 
Q 3122 3584 3439 3221 
Q 3756 2859 3756 2241 
Q 3756 1734 3570 1259 
Q 3384 784 3041 416 
Q 2816 172 2522 40 
Q 2228 -91 1906 -91 
Q 1566 -91 1316 65 
Q 1066 222 909 531 
L 806 0 
L 231 0 
L 1178 4863 
L 1753 4863 
L 1381 2969 
z
" id="DejaVuSans-Oblique-62" transform="scale(0.015625)"/>
      </defs>
      <use transform="translate(0 0.015625)" xlink:href="#DejaVuSans-Oblique-62"/>
     </g>
    </g>
   </g>
   <g id="text_3">
    <g clip-path="url(#p45eb0b65ab)">
     <!-- ${c}$ -->
     <g transform="translate(51.12383 138.946783)scale(0.1625 -0.1625)">
      <defs>
       <path d="M 3431 3366 
L 3316 2797 
Q 3109 2947 2876 3022 
Q 2644 3097 2394 3097 
Q 2119 3097 1870 3000 
Q 1622 2903 1453 2725 
Q 1184 2453 1037 2087 
Q 891 1722 891 1331 
Q 891 859 1127 628 
Q 1363 397 1844 397 
Q 2081 397 2348 469 
Q 2616 541 2906 684 
L 2797 116 
Q 2547 13 2283 -39 
Q 2019 -91 1741 -91 
Q 1044 -91 669 257 
Q 294 606 294 1253 
Q 294 1797 489 2255 
Q 684 2713 1069 3078 
Q 1331 3328 1684 3456 
Q 2038 3584 2456 3584 
Q 2700 3584 2940 3529 
Q 3181 3475 3431 3366 
z
" id="DejaVuSans-Oblique-63" transform="scale(0.015625)"/>
      </defs>
      <use xlink:href="#DejaVuSans-Oblique-63"/>
     </g>
    </g>
   </g>
   <g id="text_4">
    <g clip-path="url(#p45eb0b65ab)">
     <!-- ${out}$ -->
     <g transform="translate(33.41133 184.397782)scale(0.1625 -0.1625)">
      <defs>
       <path d="M 1625 -91 
Q 1009 -91 651 289 
Q 294 669 294 1325 
Q 294 1706 417 2101 
Q 541 2497 738 2766 
Q 1047 3184 1428 3384 
Q 1809 3584 2291 3584 
Q 2888 3584 3255 3212 
Q 3622 2841 3622 2241 
Q 3622 1825 3500 1412 
Q 3378 1000 3181 728 
Q 2875 309 2494 109 
Q 2113 -91 1625 -91 
z
M 891 1344 
Q 891 869 1089 633 
Q 1288 397 1691 397 
Q 2269 397 2648 901 
Q 3028 1406 3028 2181 
Q 3028 2634 2825 2865 
Q 2622 3097 2228 3097 
Q 1903 3097 1650 2945 
Q 1397 2794 1197 2484 
Q 1050 2253 970 1956 
Q 891 1659 891 1344 
z
" id="DejaVuSans-Oblique-6f" transform="scale(0.015625)"/>
       <path d="M 428 1388 
L 838 3500 
L 1416 3500 
L 1006 1409 
Q 975 1256 961 1147 
Q 947 1038 947 966 
Q 947 700 1109 554 
Q 1272 409 1569 409 
Q 2031 409 2368 721 
Q 2706 1034 2809 1563 
L 3194 3500 
L 3769 3500 
L 3091 0 
L 2516 0 
L 2631 550 
Q 2388 244 2052 76 
Q 1716 -91 1338 -91 
Q 878 -91 622 161 
Q 366 413 366 863 
Q 366 956 381 1097 
Q 397 1238 428 1388 
z
" id="DejaVuSans-Oblique-75" transform="scale(0.015625)"/>
       <path d="M 2706 3500 
L 2619 3053 
L 1472 3053 
L 1100 1153 
Q 1081 1047 1072 975 
Q 1063 903 1063 863 
Q 1063 663 1183 572 
Q 1303 481 1569 481 
L 2150 481 
L 2053 0 
L 1503 0 
Q 991 0 739 200 
Q 488 400 488 806 
Q 488 878 497 964 
Q 506 1050 525 1153 
L 897 3053 
L 409 3053 
L 500 3500 
L 978 3500 
L 1172 4494 
L 1747 4494 
L 1556 3500 
L 2706 3500 
z
" id="DejaVuSans-Oblique-74" transform="scale(0.015625)"/>
      </defs>
      <use transform="translate(0 0.78125)" xlink:href="#DejaVuSans-Oblique-6f"/>
      <use transform="translate(61.181641 0.78125)" xlink:href="#DejaVuSans-Oblique-75"/>
      <use transform="translate(124.560547 0.78125)" xlink:href="#DejaVuSans-Oblique-74"/>
     </g>
    </g>
   </g>
   <g id="text_5">
    <g clip-path="url(#p45eb0b65ab)">
     <!-- H -->
     <g transform="translate(88.806867 47.147987)scale(0.13 -0.13)">
      <defs>
       <path d="M 628 4666 
L 1259 4666 
L 1259 2753 
L 3553 2753 
L 3553 4666 
L 4184 4666 
L 4184 0 
L 3553 0 
L 3553 2222 
L 1259 2222 
L 1259 0 
L 628 0 
L 628 4666 
z
" id="DejaVuSans-48" transform="scale(0.015625)"/>
      </defs>
      <use xlink:href="#DejaVuSans-48"/>
     </g>
    </g>
   </g>
   <g id="text_6">
    <g clip-path="url(#p45eb0b65ab)">
     <!-- H -->
     <g transform="translate(88.806867 92.598986)scale(0.13 -0.13)">
      <use xlink:href="#DejaVuSans-48"/>
     </g>
    </g>
   </g>
  </g>
 </g>
 <defs>
  <clipPath id="p45eb0b65ab">
   <rect height="199.984397" width="252.845728" x="7.2" y="7.2"/>
  </clipPath>
 </defs>
</svg>
