<?xml version="1.0" encoding="utf-8" standalone="no"?>
<!DOCTYPE svg PUBLIC "-//W3C//DTD SVG 1.1//EN"
  "http://www.w3.org/Graphics/SVG/1.1/DTD/svg11.dtd">
<svg height="759.79639pt" version="1.1" viewBox="0 0 1397.969782 759.79639" width="1397.969782pt" xmlns="http://www.w3.org/2000/svg" xmlns:xlink="http://www.w3.org/1999/xlink">
 <metadata>
  <rdf:RDF xmlns:cc="http://creativecommons.org/ns#" xmlns:dc="http://purl.org/dc/elements/1.1/" xmlns:rdf="http://www.w3.org/1999/02/22-rdf-syntax-ns#">
   <cc:Work>
    <dc:type rdf:resource="http://purl.org/dc/dcmitype/StillImage"/>
    <dc:date>2022-08-17T10:36:33.781683</dc:date>
    <dc:format>image/svg+xml</dc:format>
    <dc:creator>
     <cc:Agent>
      <dc:title>Matplotlib v3.4.3, https://matplotlib.org/</dc:title>
     </cc:Agent>
    </dc:creator>
   </cc:Work>
  </rdf:RDF>
 </metadata>
 <defs>
  <style type="text/css">*{stroke-linecap:butt;stroke-linejoin:round;}</style>
 </defs>
 <g id="figure_1">
  <g id="patch_1">
   <path d="M 0 759.79639 
L 1397.969782 759.79639 
L 1397.969782 -0 
L 0 -0 
z
" style="fill:#ffffff;"/>
  </g>
  <g id="axes_1">
   <g id="line2d_1">
    <path clip-path="url(#p8a7b75a34a)" d="M 63.6006 43.5608 
L 1386.224682 43.5608 
" style="fill:none;stroke:#000000;stroke-linecap:square;stroke-width:2;"/>
   </g>
   <g id="line2d_2">
    <path clip-path="url(#p8a7b75a34a)" d="M 63.6006 89.011799 
L 1386.224682 89.011799 
" style="fill:none;stroke:#000000;stroke-linecap:square;stroke-width:2;"/>
   </g>
   <g id="line2d_3">
    <path clip-path="url(#p8a7b75a34a)" d="M 63.6006 134.462798 
L 1386.224682 134.462798 
" style="fill:none;stroke:#000000;stroke-linecap:square;stroke-width:2;"/>
   </g>
   <g id="line2d_4">
    <path clip-path="url(#p8a7b75a34a)" d="M 63.6006 179.913798 
L 1386.224682 179.913798 
" style="fill:none;stroke:#000000;stroke-linecap:square;stroke-width:2;"/>
   </g>
   <g id="line2d_5">
    <path clip-path="url(#p8a7b75a34a)" d="M 63.6006 225.364797 
L 1386.224682 225.364797 
" style="fill:none;stroke:#000000;stroke-linecap:square;stroke-width:2;"/>
   </g>
   <g id="line2d_6">
    <path clip-path="url(#p8a7b75a34a)" d="M 63.6006 270.815796 
L 1386.224682 270.815796 
" style="fill:none;stroke:#000000;stroke-linecap:square;stroke-width:2;"/>
   </g>
   <g id="line2d_7">
    <path clip-path="url(#p8a7b75a34a)" d="M 63.6006 316.266796 
L 1386.224682 316.266796 
" style="fill:none;stroke:#000000;stroke-linecap:square;stroke-width:2;"/>
   </g>
   <g id="line2d_8">
    <path clip-path="url(#p8a7b75a34a)" d="M 63.6006 361.717795 
L 1386.224682 361.717795 
" style="fill:none;stroke:#000000;stroke-linecap:square;stroke-width:2;"/>
   </g>
   <g id="line2d_9">
    <path clip-path="url(#p8a7b75a34a)" d="M 63.6006 407.168795 
L 1386.224682 407.168795 
" style="fill:none;stroke:#000000;stroke-linecap:square;stroke-width:2;"/>
   </g>
   <g id="line2d_10">
    <path clip-path="url(#p8a7b75a34a)" d="M 63.6006 452.619794 
L 1386.224682 452.619794 
" style="fill:none;stroke:#000000;stroke-linecap:square;stroke-width:2;"/>
   </g>
   <g id="line2d_11">
    <path clip-path="url(#p8a7b75a34a)" d="M 63.6006 498.070793 
L 1386.224682 498.070793 
" style="fill:none;stroke:#000000;stroke-linecap:square;stroke-width:2;"/>
   </g>
   <g id="line2d_12">
    <path clip-path="url(#p8a7b75a34a)" d="M 63.6006 543.521793 
L 1386.224682 543.521793 
" style="fill:none;stroke:#000000;stroke-linecap:square;stroke-width:2;"/>
   </g>
   <g id="line2d_13">
    <path clip-path="url(#p8a7b75a34a)" d="M 63.6006 588.972792 
L 1386.224682 588.972792 
" style="fill:none;stroke:#000000;stroke-linecap:square;stroke-width:2;"/>
   </g>
   <g id="line2d_14">
    <path clip-path="url(#p8a7b75a34a)" d="M 63.6006 634.423792 
L 1386.224682 634.423792 
" style="fill:none;stroke:#000000;stroke-linecap:square;stroke-width:2;"/>
   </g>
   <g id="line2d_15">
    <path clip-path="url(#p8a7b75a34a)" d="M 63.6006 679.874791 
L 1386.224682 679.874791 
" style="fill:none;stroke:#000000;stroke-linecap:square;stroke-width:2;"/>
   </g>
   <g id="line2d_16">
    <path clip-path="url(#p8a7b75a34a)" d="M 63.6006 725.32579 
L 1386.224682 725.32579 
" style="fill:none;stroke:#000000;stroke-linecap:square;stroke-width:2;"/>
   </g>
   <g id="line2d_17">
    <path clip-path="url(#p8a7b75a34a)" d="M 133.595139 543.521793 
L 133.595139 43.5608 
" style="fill:none;stroke:#6fa4ff;stroke-linecap:square;stroke-width:2;"/>
   </g>
   <g id="line2d_18">
    <path clip-path="url(#p8a7b75a34a)" d="M 179.046138 588.972792 
L 179.046138 89.011799 
" style="fill:none;stroke:#6fa4ff;stroke-linecap:square;stroke-width:2;"/>
   </g>
   <g id="line2d_19">
    <path clip-path="url(#p8a7b75a34a)" d="M 224.497138 634.423792 
L 224.497138 134.462798 
" style="fill:none;stroke:#6fa4ff;stroke-linecap:square;stroke-width:2;"/>
   </g>
   <g id="line2d_20">
    <path clip-path="url(#p8a7b75a34a)" d="M 269.948137 679.874791 
L 269.948137 179.913798 
" style="fill:none;stroke:#6fa4ff;stroke-linecap:square;stroke-width:2;"/>
   </g>
   <g id="line2d_21">
    <path clip-path="url(#p8a7b75a34a)" d="M 315.399136 543.521793 
L 315.399136 225.364797 
" style="fill:none;stroke:#6fa4ff;stroke-linecap:square;stroke-width:2;"/>
   </g>
   <g id="line2d_22">
    <path clip-path="url(#p8a7b75a34a)" d="M 360.850136 588.972792 
L 360.850136 270.815796 
" style="fill:none;stroke:#6fa4ff;stroke-linecap:square;stroke-width:2;"/>
   </g>
   <g id="line2d_23">
    <path clip-path="url(#p8a7b75a34a)" d="M 406.301135 634.423792 
L 406.301135 316.266796 
" style="fill:none;stroke:#6fa4ff;stroke-linecap:square;stroke-width:2;"/>
   </g>
   <g id="line2d_24">
    <path clip-path="url(#p8a7b75a34a)" d="M 451.752135 679.874791 
L 451.752135 361.717795 
" style="fill:none;stroke:#6fa4ff;stroke-linecap:square;stroke-width:2;"/>
   </g>
   <g id="line2d_25">
    <path clip-path="url(#p8a7b75a34a)" d="M 497.203134 407.168795 
L 497.203134 43.5608 
" style="fill:none;stroke:#bb8bff;stroke-linecap:square;stroke-width:2;"/>
   </g>
   <g id="line2d_26">
    <path clip-path="url(#p8a7b75a34a)" d="M 542.654133 452.619794 
L 542.654133 89.011799 
" style="fill:none;stroke:#bb8bff;stroke-linecap:square;stroke-width:2;"/>
   </g>
   <g id="line2d_27">
    <path clip-path="url(#p8a7b75a34a)" d="M 588.105133 498.070793 
L 588.105133 134.462798 
" style="fill:none;stroke:#bb8bff;stroke-linecap:square;stroke-width:2;"/>
   </g>
   <g id="line2d_28">
    <path clip-path="url(#p8a7b75a34a)" d="M 633.556132 725.32579 
L 633.556132 179.913798 
" style="fill:none;stroke:#bb8bff;stroke-linecap:square;stroke-width:2;"/>
   </g>
   <g id="line2d_29">
    <path clip-path="url(#p8a7b75a34a)" d="M 679.007131 588.972792 
L 679.007131 407.168795 
" style="fill:none;stroke:#6fa4ff;stroke-linecap:square;stroke-width:2;"/>
   </g>
   <g id="line2d_30">
    <path clip-path="url(#p8a7b75a34a)" d="M 724.458131 452.619794 
L 724.458131 270.815796 
" style="fill:none;stroke:#bb8bff;stroke-linecap:square;stroke-width:2;"/>
   </g>
   <g id="line2d_31">
    <path clip-path="url(#p8a7b75a34a)" d="M 769.90913 452.619794 
L 769.90913 89.011799 
" style="fill:none;stroke:#bb8bff;stroke-linecap:square;stroke-width:2;"/>
   </g>
   <g id="line2d_32">
    <path clip-path="url(#p8a7b75a34a)" d="M 815.36013 634.423792 
L 815.36013 452.619794 
" style="fill:none;stroke:#6fa4ff;stroke-linecap:square;stroke-width:2;"/>
   </g>
   <g id="line2d_33">
    <path clip-path="url(#p8a7b75a34a)" d="M 860.811129 498.070793 
L 860.811129 316.266796 
" style="fill:none;stroke:#bb8bff;stroke-linecap:square;stroke-width:2;"/>
   </g>
   <g id="line2d_34">
    <path clip-path="url(#p8a7b75a34a)" d="M 906.262128 498.070793 
L 906.262128 134.462798 
" style="fill:none;stroke:#bb8bff;stroke-linecap:square;stroke-width:2;"/>
   </g>
   <g id="line2d_35">
    <path clip-path="url(#p8a7b75a34a)" d="M 951.713128 679.874791 
L 951.713128 498.070793 
" style="fill:none;stroke:#6fa4ff;stroke-linecap:square;stroke-width:2;"/>
   </g>
   <g id="line2d_36">
    <path clip-path="url(#p8a7b75a34a)" d="M 997.164127 725.32579 
L 997.164127 361.717795 
" style="fill:none;stroke:#bb8bff;stroke-linecap:square;stroke-width:2;"/>
   </g>
   <g id="line2d_37">
    <path clip-path="url(#p8a7b75a34a)" d="M 1042.615127 725.32579 
L 1042.615127 179.913798 
" style="fill:none;stroke:#bb8bff;stroke-linecap:square;stroke-width:2;"/>
   </g>
   <g id="line2d_38">
    <path clip-path="url(#p8a7b75a34a)" d="M 1088.066126 498.070793 
L 1088.066126 134.462798 
" style="fill:none;stroke:#bb8bff;stroke-linecap:square;stroke-width:2;"/>
   </g>
   <g id="line2d_39">
    <path clip-path="url(#p8a7b75a34a)" d="M 1133.517125 498.070793 
L 1133.517125 316.266796 
" style="fill:none;stroke:#bb8bff;stroke-linecap:square;stroke-width:2;"/>
   </g>
   <g id="line2d_40">
    <path clip-path="url(#p8a7b75a34a)" d="M 1178.968125 498.070793 
L 1178.968125 134.462798 
" style="fill:none;stroke:#bb8bff;stroke-linecap:square;stroke-width:2;"/>
   </g>
   <g id="line2d_41">
    <path clip-path="url(#p8a7b75a34a)" d="M 1224.419124 452.619794 
L 1224.419124 89.011799 
" style="fill:none;stroke:#bb8bff;stroke-linecap:square;stroke-width:2;"/>
   </g>
   <g id="line2d_42">
    <path clip-path="url(#p8a7b75a34a)" d="M 1269.870124 452.619794 
L 1269.870124 270.815796 
" style="fill:none;stroke:#bb8bff;stroke-linecap:square;stroke-width:2;"/>
   </g>
   <g id="line2d_43">
    <path clip-path="url(#p8a7b75a34a)" d="M 1315.321123 452.619794 
L 1315.321123 89.011799 
" style="fill:none;stroke:#bb8bff;stroke-linecap:square;stroke-width:2;"/>
   </g>
   <g id="line2d_44">
    <path clip-path="url(#p8a7b75a34a)" d="M 1360.772122 407.168795 
L 1360.772122 43.5608 
" style="fill:none;stroke:#bb8bff;stroke-linecap:square;stroke-width:2;"/>
   </g>
   <g id="patch_2">
    <path clip-path="url(#p8a7b75a34a)" d="M 73.372565 58.332374 
L 102.915714 58.332374 
L 102.915714 28.789225 
L 73.372565 28.789225 
z
" style="fill:#6fa4ff;stroke:#6fa4ff;stroke-linejoin:miter;stroke-width:1.5;"/>
   </g>
   <g id="patch_3">
    <path clip-path="url(#p8a7b75a34a)" d="M 73.372565 103.783374 
L 102.915714 103.783374 
L 102.915714 74.240224 
L 73.372565 74.240224 
z
" style="fill:#6fa4ff;stroke:#6fa4ff;stroke-linejoin:miter;stroke-width:1.5;"/>
   </g>
   <g id="patch_4">
    <path clip-path="url(#p8a7b75a34a)" d="M 73.372565 149.234373 
L 102.915714 149.234373 
L 102.915714 119.691224 
L 73.372565 119.691224 
z
" style="fill:#6fa4ff;stroke:#6fa4ff;stroke-linejoin:miter;stroke-width:1.5;"/>
   </g>
   <g id="patch_5">
    <path clip-path="url(#p8a7b75a34a)" d="M 73.372565 194.685373 
L 102.915714 194.685373 
L 102.915714 165.142223 
L 73.372565 165.142223 
z
" style="fill:#6fa4ff;stroke:#6fa4ff;stroke-linejoin:miter;stroke-width:1.5;"/>
   </g>
   <g id="patch_6">
    <path clip-path="url(#p8a7b75a34a)" d="M 73.372565 240.136372 
L 102.915714 240.136372 
L 102.915714 210.593222 
L 73.372565 210.593222 
z
" style="fill:#6fa4ff;stroke:#6fa4ff;stroke-linejoin:miter;stroke-width:1.5;"/>
   </g>
   <g id="patch_7">
    <path clip-path="url(#p8a7b75a34a)" d="M 73.372565 285.587371 
L 102.915714 285.587371 
L 102.915714 256.044222 
L 73.372565 256.044222 
z
" style="fill:#6fa4ff;stroke:#6fa4ff;stroke-linejoin:miter;stroke-width:1.5;"/>
   </g>
   <g id="patch_8">
    <path clip-path="url(#p8a7b75a34a)" d="M 73.372565 331.038371 
L 102.915714 331.038371 
L 102.915714 301.495221 
L 73.372565 301.495221 
z
" style="fill:#6fa4ff;stroke:#6fa4ff;stroke-linejoin:miter;stroke-width:1.5;"/>
   </g>
   <g id="patch_9">
    <path clip-path="url(#p8a7b75a34a)" d="M 73.372565 376.48937 
L 102.915714 376.48937 
L 102.915714 346.94622 
L 73.372565 346.94622 
z
" style="fill:#6fa4ff;stroke:#6fa4ff;stroke-linejoin:miter;stroke-width:1.5;"/>
   </g>
   <g id="patch_10">
    <path clip-path="url(#p8a7b75a34a)" d="M 133.595139 47.992272 
C 134.770379 47.992272 135.897643 47.525344 136.728663 46.694324 
C 137.559683 45.863303 138.026611 44.73604 138.026611 43.5608 
C 138.026611 42.385559 137.559683 41.258296 136.728663 40.427275 
C 135.897643 39.596255 134.770379 39.129327 133.595139 39.129327 
C 132.419899 39.129327 131.292635 39.596255 130.461615 40.427275 
C 129.630594 41.258296 129.163666 42.385559 129.163666 43.5608 
C 129.163666 44.73604 129.630594 45.863303 130.461615 46.694324 
C 131.292635 47.525344 132.419899 47.992272 133.595139 47.992272 
z
" style="fill:#6fa4ff;stroke:#6fa4ff;stroke-linejoin:miter;stroke-width:1.5;"/>
   </g>
   <g id="patch_11">
    <path clip-path="url(#p8a7b75a34a)" d="M 133.595139 553.861895 
C 136.337366 553.861895 138.967648 552.772397 140.906695 550.833349 
C 142.845743 548.894302 143.935241 546.26402 143.935241 543.521793 
C 143.935241 540.779566 142.845743 538.149284 140.906695 536.210236 
C 138.967648 534.271189 136.337366 533.181691 133.595139 533.181691 
C 130.852912 533.181691 128.22263 534.271189 126.283582 536.210236 
C 124.344535 538.149284 123.255036 540.779566 123.255036 543.521793 
C 123.255036 546.26402 124.344535 548.894302 126.283582 550.833349 
C 128.22263 552.772397 130.852912 553.861895 133.595139 553.861895 
z
" style="fill:#6fa4ff;stroke:#6fa4ff;stroke-linejoin:miter;stroke-width:2;"/>
   </g>
   <g id="patch_12">
    <path clip-path="url(#p8a7b75a34a)" d="M 179.046138 93.443271 
C 180.221378 93.443271 181.348642 92.976343 182.179662 92.145323 
C 183.010683 91.314303 183.477611 90.187039 183.477611 89.011799 
C 183.477611 87.836559 183.010683 86.709295 182.179662 85.878275 
C 181.348642 85.047254 180.221378 84.580326 179.046138 84.580326 
C 177.870898 84.580326 176.743634 85.047254 175.912614 85.878275 
C 175.081594 86.709295 174.614666 87.836559 174.614666 89.011799 
C 174.614666 90.187039 175.081594 91.314303 175.912614 92.145323 
C 176.743634 92.976343 177.870898 93.443271 179.046138 93.443271 
z
" style="fill:#6fa4ff;stroke:#6fa4ff;stroke-linejoin:miter;stroke-width:1.5;"/>
   </g>
   <g id="patch_13">
    <path clip-path="url(#p8a7b75a34a)" d="M 179.046138 599.312895 
C 181.788365 599.312895 184.418647 598.223396 186.357695 596.284349 
C 188.296742 594.345301 189.38624 591.715019 189.38624 588.972792 
C 189.38624 586.230565 188.296742 583.600283 186.357695 581.661236 
C 184.418647 579.722188 181.788365 578.63269 179.046138 578.63269 
C 176.303911 578.63269 173.673629 579.722188 171.734582 581.661236 
C 169.795534 583.600283 168.706036 586.230565 168.706036 588.972792 
C 168.706036 591.715019 169.795534 594.345301 171.734582 596.284349 
C 173.673629 598.223396 176.303911 599.312895 179.046138 599.312895 
z
" style="fill:#6fa4ff;stroke:#6fa4ff;stroke-linejoin:miter;stroke-width:2;"/>
   </g>
   <g id="patch_14">
    <path clip-path="url(#p8a7b75a34a)" d="M 224.497138 138.894271 
C 225.672378 138.894271 226.799641 138.427343 227.630662 137.596323 
C 228.461682 136.765302 228.92861 135.638039 228.92861 134.462798 
C 228.92861 133.287558 228.461682 132.160294 227.630662 131.329274 
C 226.799641 130.498254 225.672378 130.031326 224.497138 130.031326 
C 223.321897 130.031326 222.194634 130.498254 221.363613 131.329274 
C 220.532593 132.160294 220.065665 133.287558 220.065665 134.462798 
C 220.065665 135.638039 220.532593 136.765302 221.363613 137.596323 
C 222.194634 138.427343 223.321897 138.894271 224.497138 138.894271 
z
" style="fill:#6fa4ff;stroke:#6fa4ff;stroke-linejoin:miter;stroke-width:1.5;"/>
   </g>
   <g id="patch_15">
    <path clip-path="url(#p8a7b75a34a)" d="M 224.497138 644.763894 
C 227.239365 644.763894 229.869647 643.674396 231.808694 641.735348 
C 233.747741 639.796301 234.83724 637.166019 234.83724 634.423792 
C 234.83724 631.681564 233.747741 629.051283 231.808694 627.112235 
C 229.869647 625.173188 227.239365 624.083689 224.497138 624.083689 
C 221.75491 624.083689 219.124628 625.173188 217.185581 627.112235 
C 215.246534 629.051283 214.157035 631.681564 214.157035 634.423792 
C 214.157035 637.166019 215.246534 639.796301 217.185581 641.735348 
C 219.124628 643.674396 221.75491 644.763894 224.497138 644.763894 
z
" style="fill:#6fa4ff;stroke:#6fa4ff;stroke-linejoin:miter;stroke-width:2;"/>
   </g>
   <g id="patch_16">
    <path clip-path="url(#p8a7b75a34a)" d="M 269.948137 184.34527 
C 271.123377 184.34527 272.250641 183.878342 273.081661 183.047322 
C 273.912681 182.216302 274.379609 181.089038 274.379609 179.913798 
C 274.379609 178.738557 273.912681 177.611294 273.081661 176.780273 
C 272.250641 175.949253 271.123377 175.482325 269.948137 175.482325 
C 268.772897 175.482325 267.645633 175.949253 266.814613 176.780273 
C 265.983592 177.611294 265.516664 178.738557 265.516664 179.913798 
C 265.516664 181.089038 265.983592 182.216302 266.814613 183.047322 
C 267.645633 183.878342 268.772897 184.34527 269.948137 184.34527 
z
" style="fill:#6fa4ff;stroke:#6fa4ff;stroke-linejoin:miter;stroke-width:1.5;"/>
   </g>
   <g id="patch_17">
    <path clip-path="url(#p8a7b75a34a)" d="M 269.948137 690.214893 
C 272.690364 690.214893 275.320646 689.125395 277.259693 687.186348 
C 279.198741 685.2473 280.288239 682.617018 280.288239 679.874791 
C 280.288239 677.132564 279.198741 674.502282 277.259693 672.563235 
C 275.320646 670.624187 272.690364 669.534689 269.948137 669.534689 
C 267.20591 669.534689 264.575628 670.624187 262.63658 672.563235 
C 260.697533 674.502282 259.608035 677.132564 259.608035 679.874791 
C 259.608035 682.617018 260.697533 685.2473 262.63658 687.186348 
C 264.575628 689.125395 267.20591 690.214893 269.948137 690.214893 
z
" style="fill:#6fa4ff;stroke:#6fa4ff;stroke-linejoin:miter;stroke-width:2;"/>
   </g>
   <g id="patch_18">
    <path clip-path="url(#p8a7b75a34a)" d="M 315.399136 229.79627 
C 316.574377 229.79627 317.70164 229.329342 318.532661 228.498321 
C 319.363681 227.667301 319.830609 226.540037 319.830609 225.364797 
C 319.830609 224.189557 319.363681 223.062293 318.532661 222.231273 
C 317.70164 221.400253 316.574377 220.933325 315.399136 220.933325 
C 314.223896 220.933325 313.096632 221.400253 312.265612 222.231273 
C 311.434592 223.062293 310.967664 224.189557 310.967664 225.364797 
C 310.967664 226.540037 311.434592 227.667301 312.265612 228.498321 
C 313.096632 229.329342 314.223896 229.79627 315.399136 229.79627 
z
" style="fill:#6fa4ff;stroke:#6fa4ff;stroke-linejoin:miter;stroke-width:1.5;"/>
   </g>
   <g id="patch_19">
    <path clip-path="url(#p8a7b75a34a)" d="M 315.399136 553.861895 
C 318.141364 553.861895 320.771645 552.772397 322.710693 550.833349 
C 324.64974 548.894302 325.739239 546.26402 325.739239 543.521793 
C 325.739239 540.779566 324.64974 538.149284 322.710693 536.210236 
C 320.771645 534.271189 318.141364 533.181691 315.399136 533.181691 
C 312.656909 533.181691 310.026627 534.271189 308.08758 536.210236 
C 306.148532 538.149284 305.059034 540.779566 305.059034 543.521793 
C 305.059034 546.26402 306.148532 548.894302 308.08758 550.833349 
C 310.026627 552.772397 312.656909 553.861895 315.399136 553.861895 
z
" style="fill:#6fa4ff;stroke:#6fa4ff;stroke-linejoin:miter;stroke-width:2;"/>
   </g>
   <g id="patch_20">
    <path clip-path="url(#p8a7b75a34a)" d="M 360.850136 275.247269 
C 362.025376 275.247269 363.15264 274.780341 363.98366 273.949321 
C 364.81468 273.1183 365.281608 271.991037 365.281608 270.815796 
C 365.281608 269.640556 364.81468 268.513293 363.98366 267.682272 
C 363.15264 266.851252 362.025376 266.384324 360.850136 266.384324 
C 359.674895 266.384324 358.547632 266.851252 357.716611 267.682272 
C 356.885591 268.513293 356.418663 269.640556 356.418663 270.815796 
C 356.418663 271.991037 356.885591 273.1183 357.716611 273.949321 
C 358.547632 274.780341 359.674895 275.247269 360.850136 275.247269 
z
" style="fill:#6fa4ff;stroke:#6fa4ff;stroke-linejoin:miter;stroke-width:1.5;"/>
   </g>
   <g id="patch_21">
    <path clip-path="url(#p8a7b75a34a)" d="M 360.850136 599.312895 
C 363.592363 599.312895 366.222645 598.223396 368.161692 596.284349 
C 370.10074 594.345301 371.190238 591.715019 371.190238 588.972792 
C 371.190238 586.230565 370.10074 583.600283 368.161692 581.661236 
C 366.222645 579.722188 363.592363 578.63269 360.850136 578.63269 
C 358.107909 578.63269 355.477627 579.722188 353.538579 581.661236 
C 351.599532 583.600283 350.510033 586.230565 350.510033 588.972792 
C 350.510033 591.715019 351.599532 594.345301 353.538579 596.284349 
C 355.477627 598.223396 358.107909 599.312895 360.850136 599.312895 
z
" style="fill:#6fa4ff;stroke:#6fa4ff;stroke-linejoin:miter;stroke-width:2;"/>
   </g>
   <g id="patch_22">
    <path clip-path="url(#p8a7b75a34a)" d="M 406.301135 320.698268 
C 407.476375 320.698268 408.603639 320.23134 409.434659 319.40032 
C 410.26568 318.5693 410.732608 317.442036 410.732608 316.266796 
C 410.732608 315.091556 410.26568 313.964292 409.434659 313.133272 
C 408.603639 312.302251 407.476375 311.835323 406.301135 311.835323 
C 405.125895 311.835323 403.998631 312.302251 403.167611 313.133272 
C 402.336591 313.964292 401.869663 315.091556 401.869663 316.266796 
C 401.869663 317.442036 402.336591 318.5693 403.167611 319.40032 
C 403.998631 320.23134 405.125895 320.698268 406.301135 320.698268 
z
" style="fill:#6fa4ff;stroke:#6fa4ff;stroke-linejoin:miter;stroke-width:1.5;"/>
   </g>
   <g id="patch_23">
    <path clip-path="url(#p8a7b75a34a)" d="M 406.301135 644.763894 
C 409.043362 644.763894 411.673644 643.674396 413.612692 641.735348 
C 415.551739 639.796301 416.641237 637.166019 416.641237 634.423792 
C 416.641237 631.681564 415.551739 629.051283 413.612692 627.112235 
C 411.673644 625.173188 409.043362 624.083689 406.301135 624.083689 
C 403.558908 624.083689 400.928626 625.173188 398.989579 627.112235 
C 397.050531 629.051283 395.961033 631.681564 395.961033 634.423792 
C 395.961033 637.166019 397.050531 639.796301 398.989579 641.735348 
C 400.928626 643.674396 403.558908 644.763894 406.301135 644.763894 
z
" style="fill:#6fa4ff;stroke:#6fa4ff;stroke-linejoin:miter;stroke-width:2;"/>
   </g>
   <g id="patch_24">
    <path clip-path="url(#p8a7b75a34a)" d="M 451.752135 366.149268 
C 452.927375 366.149268 454.054638 365.68234 454.885659 364.85132 
C 455.716679 364.020299 456.183607 362.893036 456.183607 361.717795 
C 456.183607 360.542555 455.716679 359.415291 454.885659 358.584271 
C 454.054638 357.753251 452.927375 357.286323 451.752135 357.286323 
C 450.576894 357.286323 449.449631 357.753251 448.61861 358.584271 
C 447.78759 359.415291 447.320662 360.542555 447.320662 361.717795 
C 447.320662 362.893036 447.78759 364.020299 448.61861 364.85132 
C 449.449631 365.68234 450.576894 366.149268 451.752135 366.149268 
z
" style="fill:#6fa4ff;stroke:#6fa4ff;stroke-linejoin:miter;stroke-width:1.5;"/>
   </g>
   <g id="patch_25">
    <path clip-path="url(#p8a7b75a34a)" d="M 451.752135 690.214893 
C 454.494362 690.214893 457.124644 689.125395 459.063691 687.186348 
C 461.002738 685.2473 462.092237 682.617018 462.092237 679.874791 
C 462.092237 677.132564 461.002738 674.502282 459.063691 672.563235 
C 457.124644 670.624187 454.494362 669.534689 451.752135 669.534689 
C 449.009907 669.534689 446.379625 670.624187 444.440578 672.563235 
C 442.501531 674.502282 441.412032 677.132564 441.412032 679.874791 
C 441.412032 682.617018 442.501531 685.2473 444.440578 687.186348 
C 446.379625 689.125395 449.009907 690.214893 451.752135 690.214893 
z
" style="fill:#6fa4ff;stroke:#6fa4ff;stroke-linejoin:miter;stroke-width:2;"/>
   </g>
   <g id="patch_26">
    <path clip-path="url(#p8a7b75a34a)" d="M 497.203134 47.992272 
C 498.378374 47.992272 499.505638 47.525344 500.336658 46.694324 
C 501.167678 45.863303 501.634606 44.73604 501.634606 43.5608 
C 501.634606 42.385559 501.167678 41.258296 500.336658 40.427275 
C 499.505638 39.596255 498.378374 39.129327 497.203134 39.129327 
C 496.027894 39.129327 494.90063 39.596255 494.06961 40.427275 
C 493.238589 41.258296 492.771661 42.385559 492.771661 43.5608 
C 492.771661 44.73604 493.238589 45.863303 494.06961 46.694324 
C 494.90063 47.525344 496.027894 47.992272 497.203134 47.992272 
z
" style="fill:#bb8bff;stroke:#bb8bff;stroke-linejoin:miter;stroke-width:1.5;"/>
   </g>
   <g id="patch_27">
    <path clip-path="url(#p8a7b75a34a)" d="M 497.203134 229.79627 
C 498.378374 229.79627 499.505638 229.329342 500.336658 228.498321 
C 501.167678 227.667301 501.634606 226.540037 501.634606 225.364797 
C 501.634606 224.189557 501.167678 223.062293 500.336658 222.231273 
C 499.505638 221.400253 498.378374 220.933325 497.203134 220.933325 
C 496.027894 220.933325 494.90063 221.400253 494.06961 222.231273 
C 493.238589 223.062293 492.771661 224.189557 492.771661 225.364797 
C 492.771661 226.540037 493.238589 227.667301 494.06961 228.498321 
C 494.90063 229.329342 496.027894 229.79627 497.203134 229.79627 
z
" style="fill:#bb8bff;stroke:#bb8bff;stroke-linejoin:miter;stroke-width:1.5;"/>
   </g>
   <g id="patch_28">
    <path clip-path="url(#p8a7b75a34a)" d="M 497.203134 417.508897 
C 499.945361 417.508897 502.575643 416.419399 504.51469 414.480351 
C 506.453738 412.541304 507.543236 409.911022 507.543236 407.168795 
C 507.543236 404.426567 506.453738 401.796286 504.51469 399.857238 
C 502.575643 397.918191 499.945361 396.828692 497.203134 396.828692 
C 494.460907 396.828692 491.830625 397.918191 489.891577 399.857238 
C 487.95253 401.796286 486.863032 404.426567 486.863032 407.168795 
C 486.863032 409.911022 487.95253 412.541304 489.891577 414.480351 
C 491.830625 416.419399 494.460907 417.508897 497.203134 417.508897 
z
" style="fill:#bb8bff;stroke:#bb8bff;stroke-linejoin:miter;stroke-width:2;"/>
   </g>
   <g id="patch_29">
    <path clip-path="url(#p8a7b75a34a)" d="M 542.654133 93.443271 
C 543.829374 93.443271 544.956637 92.976343 545.787658 92.145323 
C 546.618678 91.314303 547.085606 90.187039 547.085606 89.011799 
C 547.085606 87.836559 546.618678 86.709295 545.787658 85.878275 
C 544.956637 85.047254 543.829374 84.580326 542.654133 84.580326 
C 541.478893 84.580326 540.351629 85.047254 539.520609 85.878275 
C 538.689589 86.709295 538.222661 87.836559 538.222661 89.011799 
C 538.222661 90.187039 538.689589 91.314303 539.520609 92.145323 
C 540.351629 92.976343 541.478893 93.443271 542.654133 93.443271 
z
" style="fill:#bb8bff;stroke:#bb8bff;stroke-linejoin:miter;stroke-width:1.5;"/>
   </g>
   <g id="patch_30">
    <path clip-path="url(#p8a7b75a34a)" d="M 542.654133 275.247269 
C 543.829374 275.247269 544.956637 274.780341 545.787658 273.949321 
C 546.618678 273.1183 547.085606 271.991037 547.085606 270.815796 
C 547.085606 269.640556 546.618678 268.513293 545.787658 267.682272 
C 544.956637 266.851252 543.829374 266.384324 542.654133 266.384324 
C 541.478893 266.384324 540.351629 266.851252 539.520609 267.682272 
C 538.689589 268.513293 538.222661 269.640556 538.222661 270.815796 
C 538.222661 271.991037 538.689589 273.1183 539.520609 273.949321 
C 540.351629 274.780341 541.478893 275.247269 542.654133 275.247269 
z
" style="fill:#bb8bff;stroke:#bb8bff;stroke-linejoin:miter;stroke-width:1.5;"/>
   </g>
   <g id="patch_31">
    <path clip-path="url(#p8a7b75a34a)" d="M 542.654133 462.959896 
C 545.39636 462.959896 548.026642 461.870398 549.96569 459.931351 
C 551.904737 457.992303 552.994236 455.362021 552.994236 452.619794 
C 552.994236 449.877567 551.904737 447.247285 549.96569 445.308238 
C 548.026642 443.36919 545.39636 442.279692 542.654133 442.279692 
C 539.911906 442.279692 537.281624 443.36919 535.342577 445.308238 
C 533.403529 447.247285 532.314031 449.877567 532.314031 452.619794 
C 532.314031 455.362021 533.403529 457.992303 535.342577 459.931351 
C 537.281624 461.870398 539.911906 462.959896 542.654133 462.959896 
z
" style="fill:#bb8bff;stroke:#bb8bff;stroke-linejoin:miter;stroke-width:2;"/>
   </g>
   <g id="patch_32">
    <path clip-path="url(#p8a7b75a34a)" d="M 588.105133 138.894271 
C 589.280373 138.894271 590.407637 138.427343 591.238657 137.596323 
C 592.069677 136.765302 592.536605 135.638039 592.536605 134.462798 
C 592.536605 133.287558 592.069677 132.160294 591.238657 131.329274 
C 590.407637 130.498254 589.280373 130.031326 588.105133 130.031326 
C 586.929892 130.031326 585.802629 130.498254 584.971608 131.329274 
C 584.140588 132.160294 583.67366 133.287558 583.67366 134.462798 
C 583.67366 135.638039 584.140588 136.765302 584.971608 137.596323 
C 585.802629 138.427343 586.929892 138.894271 588.105133 138.894271 
z
" style="fill:#bb8bff;stroke:#bb8bff;stroke-linejoin:miter;stroke-width:1.5;"/>
   </g>
   <g id="patch_33">
    <path clip-path="url(#p8a7b75a34a)" d="M 588.105133 320.698268 
C 589.280373 320.698268 590.407637 320.23134 591.238657 319.40032 
C 592.069677 318.5693 592.536605 317.442036 592.536605 316.266796 
C 592.536605 315.091556 592.069677 313.964292 591.238657 313.133272 
C 590.407637 312.302251 589.280373 311.835323 588.105133 311.835323 
C 586.929892 311.835323 585.802629 312.302251 584.971608 313.133272 
C 584.140588 313.964292 583.67366 315.091556 583.67366 316.266796 
C 583.67366 317.442036 584.140588 318.5693 584.971608 319.40032 
C 585.802629 320.23134 586.929892 320.698268 588.105133 320.698268 
z
" style="fill:#bb8bff;stroke:#bb8bff;stroke-linejoin:miter;stroke-width:1.5;"/>
   </g>
   <g id="patch_34">
    <path clip-path="url(#p8a7b75a34a)" d="M 588.105133 508.410896 
C 590.84736 508.410896 593.477642 507.321397 595.416689 505.38235 
C 597.355737 503.443303 598.445235 500.813021 598.445235 498.070793 
C 598.445235 495.328566 597.355737 492.698284 595.416689 490.759237 
C 593.477642 488.82019 590.84736 487.730691 588.105133 487.730691 
C 585.362905 487.730691 582.732624 488.82019 580.793576 490.759237 
C 578.854529 492.698284 577.76503 495.328566 577.76503 498.070793 
C 577.76503 500.813021 578.854529 503.443303 580.793576 505.38235 
C 582.732624 507.321397 585.362905 508.410896 588.105133 508.410896 
z
" style="fill:#bb8bff;stroke:#bb8bff;stroke-linejoin:miter;stroke-width:2;"/>
   </g>
   <g id="patch_35">
    <path clip-path="url(#p8a7b75a34a)" d="M 633.556132 184.34527 
C 634.731372 184.34527 635.858636 183.878342 636.689656 183.047322 
C 637.520677 182.216302 637.987605 181.089038 637.987605 179.913798 
C 637.987605 178.738557 637.520677 177.611294 636.689656 176.780273 
C 635.858636 175.949253 634.731372 175.482325 633.556132 175.482325 
C 632.380892 175.482325 631.253628 175.949253 630.422608 176.780273 
C 629.591588 177.611294 629.12466 178.738557 629.12466 179.913798 
C 629.12466 181.089038 629.591588 182.216302 630.422608 183.047322 
C 631.253628 183.878342 632.380892 184.34527 633.556132 184.34527 
z
" style="fill:#bb8bff;stroke:#bb8bff;stroke-linejoin:miter;stroke-width:1.5;"/>
   </g>
   <g id="patch_36">
    <path clip-path="url(#p8a7b75a34a)" d="M 633.556132 366.149268 
C 634.731372 366.149268 635.858636 365.68234 636.689656 364.85132 
C 637.520677 364.020299 637.987605 362.893036 637.987605 361.717795 
C 637.987605 360.542555 637.520677 359.415291 636.689656 358.584271 
C 635.858636 357.753251 634.731372 357.286323 633.556132 357.286323 
C 632.380892 357.286323 631.253628 357.753251 630.422608 358.584271 
C 629.591588 359.415291 629.12466 360.542555 629.12466 361.717795 
C 629.12466 362.893036 629.591588 364.020299 630.422608 364.85132 
C 631.253628 365.68234 632.380892 366.149268 633.556132 366.149268 
z
" style="fill:#bb8bff;stroke:#bb8bff;stroke-linejoin:miter;stroke-width:1.5;"/>
   </g>
   <g id="patch_37">
    <path clip-path="url(#p8a7b75a34a)" d="M 633.556132 735.665893 
C 636.298359 735.665893 638.928641 734.576394 640.867689 732.637347 
C 642.806736 730.6983 643.896234 728.068018 643.896234 725.32579 
C 643.896234 722.583563 642.806736 719.953281 640.867689 718.014234 
C 638.928641 716.075187 636.298359 714.985688 633.556132 714.985688 
C 630.813905 714.985688 628.183623 716.075187 626.244576 718.014234 
C 624.305528 719.953281 623.21603 722.583563 623.21603 725.32579 
C 623.21603 728.068018 624.305528 730.6983 626.244576 732.637347 
C 628.183623 734.576394 630.813905 735.665893 633.556132 735.665893 
z
" style="fill:#bb8bff;stroke:#bb8bff;stroke-linejoin:miter;stroke-width:2;"/>
   </g>
   <g id="patch_38">
    <path clip-path="url(#p8a7b75a34a)" d="M 679.007131 411.600267 
C 680.182372 411.600267 681.309635 411.133339 682.140656 410.302319 
C 682.971676 409.471299 683.438604 408.344035 683.438604 407.168795 
C 683.438604 405.993554 682.971676 404.866291 682.140656 404.03527 
C 681.309635 403.20425 680.182372 402.737322 679.007131 402.737322 
C 677.831891 402.737322 676.704628 403.20425 675.873607 404.03527 
C 675.042587 404.866291 674.575659 405.993554 674.575659 407.168795 
C 674.575659 408.344035 675.042587 409.471299 675.873607 410.302319 
C 676.704628 411.133339 677.831891 411.600267 679.007131 411.600267 
z
" style="fill:#6fa4ff;stroke:#6fa4ff;stroke-linejoin:miter;stroke-width:1.5;"/>
   </g>
   <g id="patch_39">
    <path clip-path="url(#p8a7b75a34a)" d="M 679.007131 599.312895 
C 681.749359 599.312895 684.379641 598.223396 686.318688 596.284349 
C 688.257735 594.345301 689.347234 591.715019 689.347234 588.972792 
C 689.347234 586.230565 688.257735 583.600283 686.318688 581.661236 
C 684.379641 579.722188 681.749359 578.63269 679.007131 578.63269 
C 676.264904 578.63269 673.634622 579.722188 671.695575 581.661236 
C 669.756528 583.600283 668.667029 586.230565 668.667029 588.972792 
C 668.667029 591.715019 669.756528 594.345301 671.695575 596.284349 
C 673.634622 598.223396 676.264904 599.312895 679.007131 599.312895 
z
" style="fill:#6fa4ff;stroke:#6fa4ff;stroke-linejoin:miter;stroke-width:2;"/>
   </g>
   <g id="patch_40">
    <path clip-path="url(#p8a7b75a34a)" d="M 724.458131 275.247269 
C 725.633371 275.247269 726.760635 274.780341 727.591655 273.949321 
C 728.422675 273.1183 728.889603 271.991037 728.889603 270.815796 
C 728.889603 269.640556 728.422675 268.513293 727.591655 267.682272 
C 726.760635 266.851252 725.633371 266.384324 724.458131 266.384324 
C 723.282891 266.384324 722.155627 266.851252 721.324607 267.682272 
C 720.493586 268.513293 720.026658 269.640556 720.026658 270.815796 
C 720.026658 271.991037 720.493586 273.1183 721.324607 273.949321 
C 722.155627 274.780341 723.282891 275.247269 724.458131 275.247269 
z
" style="fill:#bb8bff;stroke:#bb8bff;stroke-linejoin:miter;stroke-width:1.5;"/>
   </g>
   <g id="patch_41">
    <path clip-path="url(#p8a7b75a34a)" d="M 724.458131 411.600267 
C 725.633371 411.600267 726.760635 411.133339 727.591655 410.302319 
C 728.422675 409.471299 728.889603 408.344035 728.889603 407.168795 
C 728.889603 405.993554 728.422675 404.866291 727.591655 404.03527 
C 726.760635 403.20425 725.633371 402.737322 724.458131 402.737322 
C 723.282891 402.737322 722.155627 403.20425 721.324607 404.03527 
C 720.493586 404.866291 720.026658 405.993554 720.026658 407.168795 
C 720.026658 408.344035 720.493586 409.471299 721.324607 410.302319 
C 722.155627 411.133339 723.282891 411.600267 724.458131 411.600267 
z
" style="fill:#bb8bff;stroke:#bb8bff;stroke-linejoin:miter;stroke-width:1.5;"/>
   </g>
   <g id="patch_42">
    <path clip-path="url(#p8a7b75a34a)" d="M 724.458131 462.959896 
C 727.200358 462.959896 729.83064 461.870398 731.769687 459.931351 
C 733.708735 457.992303 734.798233 455.362021 734.798233 452.619794 
C 734.798233 449.877567 733.708735 447.247285 731.769687 445.308238 
C 729.83064 443.36919 727.200358 442.279692 724.458131 442.279692 
C 721.715904 442.279692 719.085622 443.36919 717.146574 445.308238 
C 715.207527 447.247285 714.118029 449.877567 714.118029 452.619794 
C 714.118029 455.362021 715.207527 457.992303 717.146574 459.931351 
C 719.085622 461.870398 721.715904 462.959896 724.458131 462.959896 
z
" style="fill:#bb8bff;stroke:#bb8bff;stroke-linejoin:miter;stroke-width:2;"/>
   </g>
   <g id="patch_43">
    <path clip-path="url(#p8a7b75a34a)" d="M 769.90913 411.600267 
C 771.084371 411.600267 772.211634 411.133339 773.042654 410.302319 
C 773.873675 409.471299 774.340603 408.344035 774.340603 407.168795 
C 774.340603 405.993554 773.873675 404.866291 773.042654 404.03527 
C 772.211634 403.20425 771.084371 402.737322 769.90913 402.737322 
C 768.73389 402.737322 767.606626 403.20425 766.775606 404.03527 
C 765.944586 404.866291 765.477658 405.993554 765.477658 407.168795 
C 765.477658 408.344035 765.944586 409.471299 766.775606 410.302319 
C 767.606626 411.133339 768.73389 411.600267 769.90913 411.600267 
z
" style="fill:#bb8bff;stroke:#bb8bff;stroke-linejoin:miter;stroke-width:1.5;"/>
   </g>
   <g id="patch_44">
    <path clip-path="url(#p8a7b75a34a)" d="M 769.90913 93.443271 
C 771.084371 93.443271 772.211634 92.976343 773.042654 92.145323 
C 773.873675 91.314303 774.340603 90.187039 774.340603 89.011799 
C 774.340603 87.836559 773.873675 86.709295 773.042654 85.878275 
C 772.211634 85.047254 771.084371 84.580326 769.90913 84.580326 
C 768.73389 84.580326 767.606626 85.047254 766.775606 85.878275 
C 765.944586 86.709295 765.477658 87.836559 765.477658 89.011799 
C 765.477658 90.187039 765.944586 91.314303 766.775606 92.145323 
C 767.606626 92.976343 768.73389 93.443271 769.90913 93.443271 
z
" style="fill:#bb8bff;stroke:#bb8bff;stroke-linejoin:miter;stroke-width:1.5;"/>
   </g>
   <g id="patch_45">
    <path clip-path="url(#p8a7b75a34a)" d="M 769.90913 462.959896 
C 772.651357 462.959896 775.281639 461.870398 777.220687 459.931351 
C 779.159734 457.992303 780.249233 455.362021 780.249233 452.619794 
C 780.249233 449.877567 779.159734 447.247285 777.220687 445.308238 
C 775.281639 443.36919 772.651357 442.279692 769.90913 442.279692 
C 767.166903 442.279692 764.536621 443.36919 762.597574 445.308238 
C 760.658526 447.247285 759.569028 449.877567 759.569028 452.619794 
C 759.569028 455.362021 760.658526 457.992303 762.597574 459.931351 
C 764.536621 461.870398 767.166903 462.959896 769.90913 462.959896 
z
" style="fill:#bb8bff;stroke:#bb8bff;stroke-linejoin:miter;stroke-width:2;"/>
   </g>
   <g id="patch_46">
    <path clip-path="url(#p8a7b75a34a)" d="M 815.36013 457.051267 
C 816.53537 457.051267 817.662634 456.584339 818.493654 455.753318 
C 819.324674 454.922298 819.791602 453.795034 819.791602 452.619794 
C 819.791602 451.444554 819.324674 450.31729 818.493654 449.48627 
C 817.662634 448.65525 816.53537 448.188322 815.36013 448.188322 
C 814.184889 448.188322 813.057626 448.65525 812.226605 449.48627 
C 811.395585 450.31729 810.928657 451.444554 810.928657 452.619794 
C 810.928657 453.795034 811.395585 454.922298 812.226605 455.753318 
C 813.057626 456.584339 814.184889 457.051267 815.36013 457.051267 
z
" style="fill:#6fa4ff;stroke:#6fa4ff;stroke-linejoin:miter;stroke-width:1.5;"/>
   </g>
   <g id="patch_47">
    <path clip-path="url(#p8a7b75a34a)" d="M 815.36013 644.763894 
C 818.102357 644.763894 820.732639 643.674396 822.671686 641.735348 
C 824.610734 639.796301 825.700232 637.166019 825.700232 634.423792 
C 825.700232 631.681564 824.610734 629.051283 822.671686 627.112235 
C 820.732639 625.173188 818.102357 624.083689 815.36013 624.083689 
C 812.617902 624.083689 809.987621 625.173188 808.048573 627.112235 
C 806.109526 629.051283 805.020027 631.681564 805.020027 634.423792 
C 805.020027 637.166019 806.109526 639.796301 808.048573 641.735348 
C 809.987621 643.674396 812.617902 644.763894 815.36013 644.763894 
z
" style="fill:#6fa4ff;stroke:#6fa4ff;stroke-linejoin:miter;stroke-width:2;"/>
   </g>
   <g id="patch_48">
    <path clip-path="url(#p8a7b75a34a)" d="M 860.811129 320.698268 
C 861.986369 320.698268 863.113633 320.23134 863.944653 319.40032 
C 864.775674 318.5693 865.242602 317.442036 865.242602 316.266796 
C 865.242602 315.091556 864.775674 313.964292 863.944653 313.133272 
C 863.113633 312.302251 861.986369 311.835323 860.811129 311.835323 
C 859.635889 311.835323 858.508625 312.302251 857.677605 313.133272 
C 856.846585 313.964292 856.379657 315.091556 856.379657 316.266796 
C 856.379657 317.442036 856.846585 318.5693 857.677605 319.40032 
C 858.508625 320.23134 859.635889 320.698268 860.811129 320.698268 
z
" style="fill:#bb8bff;stroke:#bb8bff;stroke-linejoin:miter;stroke-width:1.5;"/>
   </g>
   <g id="patch_49">
    <path clip-path="url(#p8a7b75a34a)" d="M 860.811129 457.051267 
C 861.986369 457.051267 863.113633 456.584339 863.944653 455.753318 
C 864.775674 454.922298 865.242602 453.795034 865.242602 452.619794 
C 865.242602 451.444554 864.775674 450.31729 863.944653 449.48627 
C 863.113633 448.65525 861.986369 448.188322 860.811129 448.188322 
C 859.635889 448.188322 858.508625 448.65525 857.677605 449.48627 
C 856.846585 450.31729 856.379657 451.444554 856.379657 452.619794 
C 856.379657 453.795034 856.846585 454.922298 857.677605 455.753318 
C 858.508625 456.584339 859.635889 457.051267 860.811129 457.051267 
z
" style="fill:#bb8bff;stroke:#bb8bff;stroke-linejoin:miter;stroke-width:1.5;"/>
   </g>
   <g id="patch_50">
    <path clip-path="url(#p8a7b75a34a)" d="M 860.811129 508.410896 
C 863.553356 508.410896 866.183638 507.321397 868.122686 505.38235 
C 870.061733 503.443303 871.151231 500.813021 871.151231 498.070793 
C 871.151231 495.328566 870.061733 492.698284 868.122686 490.759237 
C 866.183638 488.82019 863.553356 487.730691 860.811129 487.730691 
C 858.068902 487.730691 855.43862 488.82019 853.499573 490.759237 
C 851.560525 492.698284 850.471027 495.328566 850.471027 498.070793 
C 850.471027 500.813021 851.560525 503.443303 853.499573 505.38235 
C 855.43862 507.321397 858.068902 508.410896 860.811129 508.410896 
z
" style="fill:#bb8bff;stroke:#bb8bff;stroke-linejoin:miter;stroke-width:2;"/>
   </g>
   <g id="patch_51">
    <path clip-path="url(#p8a7b75a34a)" d="M 906.262128 457.051267 
C 907.437369 457.051267 908.564632 456.584339 909.395653 455.753318 
C 910.226673 454.922298 910.693601 453.795034 910.693601 452.619794 
C 910.693601 451.444554 910.226673 450.31729 909.395653 449.48627 
C 908.564632 448.65525 907.437369 448.188322 906.262128 448.188322 
C 905.086888 448.188322 903.959625 448.65525 903.128604 449.48627 
C 902.297584 450.31729 901.830656 451.444554 901.830656 452.619794 
C 901.830656 453.795034 902.297584 454.922298 903.128604 455.753318 
C 903.959625 456.584339 905.086888 457.051267 906.262128 457.051267 
z
" style="fill:#bb8bff;stroke:#bb8bff;stroke-linejoin:miter;stroke-width:1.5;"/>
   </g>
   <g id="patch_52">
    <path clip-path="url(#p8a7b75a34a)" d="M 906.262128 138.894271 
C 907.437369 138.894271 908.564632 138.427343 909.395653 137.596323 
C 910.226673 136.765302 910.693601 135.638039 910.693601 134.462798 
C 910.693601 133.287558 910.226673 132.160294 909.395653 131.329274 
C 908.564632 130.498254 907.437369 130.031326 906.262128 130.031326 
C 905.086888 130.031326 903.959625 130.498254 903.128604 131.329274 
C 902.297584 132.160294 901.830656 133.287558 901.830656 134.462798 
C 901.830656 135.638039 902.297584 136.765302 903.128604 137.596323 
C 903.959625 138.427343 905.086888 138.894271 906.262128 138.894271 
z
" style="fill:#bb8bff;stroke:#bb8bff;stroke-linejoin:miter;stroke-width:1.5;"/>
   </g>
   <g id="patch_53">
    <path clip-path="url(#p8a7b75a34a)" d="M 906.262128 508.410896 
C 909.004356 508.410896 911.634638 507.321397 913.573685 505.38235 
C 915.512732 503.443303 916.602231 500.813021 916.602231 498.070793 
C 916.602231 495.328566 915.512732 492.698284 913.573685 490.759237 
C 911.634638 488.82019 909.004356 487.730691 906.262128 487.730691 
C 903.519901 487.730691 900.889619 488.82019 898.950572 490.759237 
C 897.011525 492.698284 895.922026 495.328566 895.922026 498.070793 
C 895.922026 500.813021 897.011525 503.443303 898.950572 505.38235 
C 900.889619 507.321397 903.519901 508.410896 906.262128 508.410896 
z
" style="fill:#bb8bff;stroke:#bb8bff;stroke-linejoin:miter;stroke-width:2;"/>
   </g>
   <g id="patch_54">
    <path clip-path="url(#p8a7b75a34a)" d="M 951.713128 502.502266 
C 952.888368 502.502266 954.015632 502.035338 954.846652 501.204318 
C 955.677672 500.373297 956.1446 499.246034 956.1446 498.070793 
C 956.1446 496.895553 955.677672 495.76829 954.846652 494.937269 
C 954.015632 494.106249 952.888368 493.639321 951.713128 493.639321 
C 950.537888 493.639321 949.410624 494.106249 948.579604 494.937269 
C 947.748583 495.76829 947.281655 496.895553 947.281655 498.070793 
C 947.281655 499.246034 947.748583 500.373297 948.579604 501.204318 
C 949.410624 502.035338 950.537888 502.502266 951.713128 502.502266 
z
" style="fill:#6fa4ff;stroke:#6fa4ff;stroke-linejoin:miter;stroke-width:1.5;"/>
   </g>
   <g id="patch_55">
    <path clip-path="url(#p8a7b75a34a)" d="M 951.713128 690.214893 
C 954.455355 690.214893 957.085637 689.125395 959.024684 687.186348 
C 960.963732 685.2473 962.05323 682.617018 962.05323 679.874791 
C 962.05323 677.132564 960.963732 674.502282 959.024684 672.563235 
C 957.085637 670.624187 954.455355 669.534689 951.713128 669.534689 
C 948.970901 669.534689 946.340619 670.624187 944.401571 672.563235 
C 942.462524 674.502282 941.373025 677.132564 941.373025 679.874791 
C 941.373025 682.617018 942.462524 685.2473 944.401571 687.186348 
C 946.340619 689.125395 948.970901 690.214893 951.713128 690.214893 
z
" style="fill:#6fa4ff;stroke:#6fa4ff;stroke-linejoin:miter;stroke-width:2;"/>
   </g>
   <g id="patch_56">
    <path clip-path="url(#p8a7b75a34a)" d="M 997.164127 366.149268 
C 998.339367 366.149268 999.466631 365.68234 1000.297651 364.85132 
C 1001.128672 364.020299 1001.5956 362.893036 1001.5956 361.717795 
C 1001.5956 360.542555 1001.128672 359.415291 1000.297651 358.584271 
C 999.466631 357.753251 998.339367 357.286323 997.164127 357.286323 
C 995.988887 357.286323 994.861623 357.753251 994.030603 358.584271 
C 993.199583 359.415291 992.732655 360.542555 992.732655 361.717795 
C 992.732655 362.893036 993.199583 364.020299 994.030603 364.85132 
C 994.861623 365.68234 995.988887 366.149268 997.164127 366.149268 
z
" style="fill:#bb8bff;stroke:#bb8bff;stroke-linejoin:miter;stroke-width:1.5;"/>
   </g>
   <g id="patch_57">
    <path clip-path="url(#p8a7b75a34a)" d="M 997.164127 502.502266 
C 998.339367 502.502266 999.466631 502.035338 1000.297651 501.204318 
C 1001.128672 500.373297 1001.5956 499.246034 1001.5956 498.070793 
C 1001.5956 496.895553 1001.128672 495.76829 1000.297651 494.937269 
C 999.466631 494.106249 998.339367 493.639321 997.164127 493.639321 
C 995.988887 493.639321 994.861623 494.106249 994.030603 494.937269 
C 993.199583 495.76829 992.732655 496.895553 992.732655 498.070793 
C 992.732655 499.246034 993.199583 500.373297 994.030603 501.204318 
C 994.861623 502.035338 995.988887 502.502266 997.164127 502.502266 
z
" style="fill:#bb8bff;stroke:#bb8bff;stroke-linejoin:miter;stroke-width:1.5;"/>
   </g>
   <g id="patch_58">
    <path clip-path="url(#p8a7b75a34a)" d="M 997.164127 735.665893 
C 999.906354 735.665893 1002.536636 734.576394 1004.475684 732.637347 
C 1006.414731 730.6983 1007.50423 728.068018 1007.50423 725.32579 
C 1007.50423 722.583563 1006.414731 719.953281 1004.475684 718.014234 
C 1002.536636 716.075187 999.906354 714.985688 997.164127 714.985688 
C 994.4219 714.985688 991.791618 716.075187 989.852571 718.014234 
C 987.913523 719.953281 986.824025 722.583563 986.824025 725.32579 
C 986.824025 728.068018 987.913523 730.6983 989.852571 732.637347 
C 991.791618 734.576394 994.4219 735.665893 997.164127 735.665893 
z
" style="fill:#bb8bff;stroke:#bb8bff;stroke-linejoin:miter;stroke-width:2;"/>
   </g>
   <g id="patch_59">
    <path clip-path="url(#p8a7b75a34a)" d="M 1042.615127 502.502266 
C 1043.790367 502.502266 1044.917631 502.035338 1045.748651 501.204318 
C 1046.579671 500.373297 1047.046599 499.246034 1047.046599 498.070793 
C 1047.046599 496.895553 1046.579671 495.76829 1045.748651 494.937269 
C 1044.917631 494.106249 1043.790367 493.639321 1042.615127 493.639321 
C 1041.439886 493.639321 1040.312623 494.106249 1039.481602 494.937269 
C 1038.650582 495.76829 1038.183654 496.895553 1038.183654 498.070793 
C 1038.183654 499.246034 1038.650582 500.373297 1039.481602 501.204318 
C 1040.312623 502.035338 1041.439886 502.502266 1042.615127 502.502266 
z
" style="fill:#bb8bff;stroke:#bb8bff;stroke-linejoin:miter;stroke-width:1.5;"/>
   </g>
   <g id="patch_60">
    <path clip-path="url(#p8a7b75a34a)" d="M 1042.615127 184.34527 
C 1043.790367 184.34527 1044.917631 183.878342 1045.748651 183.047322 
C 1046.579671 182.216302 1047.046599 181.089038 1047.046599 179.913798 
C 1047.046599 178.738557 1046.579671 177.611294 1045.748651 176.780273 
C 1044.917631 175.949253 1043.790367 175.482325 1042.615127 175.482325 
C 1041.439886 175.482325 1040.312623 175.949253 1039.481602 176.780273 
C 1038.650582 177.611294 1038.183654 178.738557 1038.183654 179.913798 
C 1038.183654 181.089038 1038.650582 182.216302 1039.481602 183.047322 
C 1040.312623 183.878342 1041.439886 184.34527 1042.615127 184.34527 
z
" style="fill:#bb8bff;stroke:#bb8bff;stroke-linejoin:miter;stroke-width:1.5;"/>
   </g>
   <g id="patch_61">
    <path clip-path="url(#p8a7b75a34a)" d="M 1042.615127 735.665893 
C 1045.357354 735.665893 1047.987636 734.576394 1049.926683 732.637347 
C 1051.865731 730.6983 1052.955229 728.068018 1052.955229 725.32579 
C 1052.955229 722.583563 1051.865731 719.953281 1049.926683 718.014234 
C 1047.987636 716.075187 1045.357354 714.985688 1042.615127 714.985688 
C 1039.872899 714.985688 1037.242618 716.075187 1035.30357 718.014234 
C 1033.364523 719.953281 1032.275024 722.583563 1032.275024 725.32579 
C 1032.275024 728.068018 1033.364523 730.6983 1035.30357 732.637347 
C 1037.242618 734.576394 1039.872899 735.665893 1042.615127 735.665893 
z
" style="fill:#bb8bff;stroke:#bb8bff;stroke-linejoin:miter;stroke-width:2;"/>
   </g>
   <g id="patch_62">
    <path clip-path="url(#p8a7b75a34a)" d="M 1088.066126 457.051267 
C 1089.241366 457.051267 1090.36863 456.584339 1091.19965 455.753318 
C 1092.030671 454.922298 1092.497598 453.795034 1092.497598 452.619794 
C 1092.497598 451.444554 1092.030671 450.31729 1091.19965 449.48627 
C 1090.36863 448.65525 1089.241366 448.188322 1088.066126 448.188322 
C 1086.890886 448.188322 1085.763622 448.65525 1084.932602 449.48627 
C 1084.101581 450.31729 1083.634654 451.444554 1083.634654 452.619794 
C 1083.634654 453.795034 1084.101581 454.922298 1084.932602 455.753318 
C 1085.763622 456.584339 1086.890886 457.051267 1088.066126 457.051267 
z
" style="fill:#bb8bff;stroke:#bb8bff;stroke-linejoin:miter;stroke-width:1.5;"/>
   </g>
   <g id="patch_63">
    <path clip-path="url(#p8a7b75a34a)" d="M 1088.066126 138.894271 
C 1089.241366 138.894271 1090.36863 138.427343 1091.19965 137.596323 
C 1092.030671 136.765302 1092.497598 135.638039 1092.497598 134.462798 
C 1092.497598 133.287558 1092.030671 132.160294 1091.19965 131.329274 
C 1090.36863 130.498254 1089.241366 130.031326 1088.066126 130.031326 
C 1086.890886 130.031326 1085.763622 130.498254 1084.932602 131.329274 
C 1084.101581 132.160294 1083.634654 133.287558 1083.634654 134.462798 
C 1083.634654 135.638039 1084.101581 136.765302 1084.932602 137.596323 
C 1085.763622 138.427343 1086.890886 138.894271 1088.066126 138.894271 
z
" style="fill:#bb8bff;stroke:#bb8bff;stroke-linejoin:miter;stroke-width:1.5;"/>
   </g>
   <g id="patch_64">
    <path clip-path="url(#p8a7b75a34a)" d="M 1088.066126 508.410896 
C 1090.808353 508.410896 1093.438635 507.321397 1095.377683 505.38235 
C 1097.31673 503.443303 1098.406228 500.813021 1098.406228 498.070793 
C 1098.406228 495.328566 1097.31673 492.698284 1095.377683 490.759237 
C 1093.438635 488.82019 1090.808353 487.730691 1088.066126 487.730691 
C 1085.323899 487.730691 1082.693617 488.82019 1080.75457 490.759237 
C 1078.815522 492.698284 1077.726024 495.328566 1077.726024 498.070793 
C 1077.726024 500.813021 1078.815522 503.443303 1080.75457 505.38235 
C 1082.693617 507.321397 1085.323899 508.410896 1088.066126 508.410896 
z
" style="fill:#bb8bff;stroke:#bb8bff;stroke-linejoin:miter;stroke-width:2;"/>
   </g>
   <g id="patch_65">
    <path clip-path="url(#p8a7b75a34a)" d="M 1133.517125 457.051267 
C 1134.692366 457.051267 1135.819629 456.584339 1136.65065 455.753318 
C 1137.48167 454.922298 1137.948598 453.795034 1137.948598 452.619794 
C 1137.948598 451.444554 1137.48167 450.31729 1136.65065 449.48627 
C 1135.819629 448.65525 1134.692366 448.188322 1133.517125 448.188322 
C 1132.341885 448.188322 1131.214622 448.65525 1130.383601 449.48627 
C 1129.552581 450.31729 1129.085653 451.444554 1129.085653 452.619794 
C 1129.085653 453.795034 1129.552581 454.922298 1130.383601 455.753318 
C 1131.214622 456.584339 1132.341885 457.051267 1133.517125 457.051267 
z
" style="fill:#bb8bff;stroke:#bb8bff;stroke-linejoin:miter;stroke-width:1.5;"/>
   </g>
   <g id="patch_66">
    <path clip-path="url(#p8a7b75a34a)" d="M 1133.517125 320.698268 
C 1134.692366 320.698268 1135.819629 320.23134 1136.65065 319.40032 
C 1137.48167 318.5693 1137.948598 317.442036 1137.948598 316.266796 
C 1137.948598 315.091556 1137.48167 313.964292 1136.65065 313.133272 
C 1135.819629 312.302251 1134.692366 311.835323 1133.517125 311.835323 
C 1132.341885 311.835323 1131.214622 312.302251 1130.383601 313.133272 
C 1129.552581 313.964292 1129.085653 315.091556 1129.085653 316.266796 
C 1129.085653 317.442036 1129.552581 318.5693 1130.383601 319.40032 
C 1131.214622 320.23134 1132.341885 320.698268 1133.517125 320.698268 
z
" style="fill:#bb8bff;stroke:#bb8bff;stroke-linejoin:miter;stroke-width:1.5;"/>
   </g>
   <g id="patch_67">
    <path clip-path="url(#p8a7b75a34a)" d="M 1133.517125 508.410896 
C 1136.259353 508.410896 1138.889634 507.321397 1140.828682 505.38235 
C 1142.767729 503.443303 1143.857228 500.813021 1143.857228 498.070793 
C 1143.857228 495.328566 1142.767729 492.698284 1140.828682 490.759237 
C 1138.889634 488.82019 1136.259353 487.730691 1133.517125 487.730691 
C 1130.774898 487.730691 1128.144616 488.82019 1126.205569 490.759237 
C 1124.266521 492.698284 1123.177023 495.328566 1123.177023 498.070793 
C 1123.177023 500.813021 1124.266521 503.443303 1126.205569 505.38235 
C 1128.144616 507.321397 1130.774898 508.410896 1133.517125 508.410896 
z
" style="fill:#bb8bff;stroke:#bb8bff;stroke-linejoin:miter;stroke-width:2;"/>
   </g>
   <g id="patch_68">
    <path clip-path="url(#p8a7b75a34a)" d="M 1178.968125 320.698268 
C 1180.143365 320.698268 1181.270629 320.23134 1182.101649 319.40032 
C 1182.932669 318.5693 1183.399597 317.442036 1183.399597 316.266796 
C 1183.399597 315.091556 1182.932669 313.964292 1182.101649 313.133272 
C 1181.270629 312.302251 1180.143365 311.835323 1178.968125 311.835323 
C 1177.792885 311.835323 1176.665621 312.302251 1175.834601 313.133272 
C 1175.00358 313.964292 1174.536652 315.091556 1174.536652 316.266796 
C 1174.536652 317.442036 1175.00358 318.5693 1175.834601 319.40032 
C 1176.665621 320.23134 1177.792885 320.698268 1178.968125 320.698268 
z
" style="fill:#bb8bff;stroke:#bb8bff;stroke-linejoin:miter;stroke-width:1.5;"/>
   </g>
   <g id="patch_69">
    <path clip-path="url(#p8a7b75a34a)" d="M 1178.968125 138.894271 
C 1180.143365 138.894271 1181.270629 138.427343 1182.101649 137.596323 
C 1182.932669 136.765302 1183.399597 135.638039 1183.399597 134.462798 
C 1183.399597 133.287558 1182.932669 132.160294 1182.101649 131.329274 
C 1181.270629 130.498254 1180.143365 130.031326 1178.968125 130.031326 
C 1177.792885 130.031326 1176.665621 130.498254 1175.834601 131.329274 
C 1175.00358 132.160294 1174.536652 133.287558 1174.536652 134.462798 
C 1174.536652 135.638039 1175.00358 136.765302 1175.834601 137.596323 
C 1176.665621 138.427343 1177.792885 138.894271 1178.968125 138.894271 
z
" style="fill:#bb8bff;stroke:#bb8bff;stroke-linejoin:miter;stroke-width:1.5;"/>
   </g>
   <g id="patch_70">
    <path clip-path="url(#p8a7b75a34a)" d="M 1178.968125 508.410896 
C 1181.710352 508.410896 1184.340634 507.321397 1186.279681 505.38235 
C 1188.218729 503.443303 1189.308227 500.813021 1189.308227 498.070793 
C 1189.308227 495.328566 1188.218729 492.698284 1186.279681 490.759237 
C 1184.340634 488.82019 1181.710352 487.730691 1178.968125 487.730691 
C 1176.225898 487.730691 1173.595616 488.82019 1171.656568 490.759237 
C 1169.717521 492.698284 1168.628022 495.328566 1168.628022 498.070793 
C 1168.628022 500.813021 1169.717521 503.443303 1171.656568 505.38235 
C 1173.595616 507.321397 1176.225898 508.410896 1178.968125 508.410896 
z
" style="fill:#bb8bff;stroke:#bb8bff;stroke-linejoin:miter;stroke-width:2;"/>
   </g>
   <g id="patch_71">
    <path clip-path="url(#p8a7b75a34a)" d="M 1224.419124 411.600267 
C 1225.594364 411.600267 1226.721628 411.133339 1227.552648 410.302319 
C 1228.383669 409.471299 1228.850597 408.344035 1228.850597 407.168795 
C 1228.850597 405.993554 1228.383669 404.866291 1227.552648 404.03527 
C 1226.721628 403.20425 1225.594364 402.737322 1224.419124 402.737322 
C 1223.243884 402.737322 1222.11662 403.20425 1221.2856 404.03527 
C 1220.45458 404.866291 1219.987652 405.993554 1219.987652 407.168795 
C 1219.987652 408.344035 1220.45458 409.471299 1221.2856 410.302319 
C 1222.11662 411.133339 1223.243884 411.600267 1224.419124 411.600267 
z
" style="fill:#bb8bff;stroke:#bb8bff;stroke-linejoin:miter;stroke-width:1.5;"/>
   </g>
   <g id="patch_72">
    <path clip-path="url(#p8a7b75a34a)" d="M 1224.419124 93.443271 
C 1225.594364 93.443271 1226.721628 92.976343 1227.552648 92.145323 
C 1228.383669 91.314303 1228.850597 90.187039 1228.850597 89.011799 
C 1228.850597 87.836559 1228.383669 86.709295 1227.552648 85.878275 
C 1226.721628 85.047254 1225.594364 84.580326 1224.419124 84.580326 
C 1223.243884 84.580326 1222.11662 85.047254 1221.2856 85.878275 
C 1220.45458 86.709295 1219.987652 87.836559 1219.987652 89.011799 
C 1219.987652 90.187039 1220.45458 91.314303 1221.2856 92.145323 
C 1222.11662 92.976343 1223.243884 93.443271 1224.419124 93.443271 
z
" style="fill:#bb8bff;stroke:#bb8bff;stroke-linejoin:miter;stroke-width:1.5;"/>
   </g>
   <g id="patch_73">
    <path clip-path="url(#p8a7b75a34a)" d="M 1224.419124 462.959896 
C 1227.161351 462.959896 1229.791633 461.870398 1231.730681 459.931351 
C 1233.669728 457.992303 1234.759227 455.362021 1234.759227 452.619794 
C 1234.759227 449.877567 1233.669728 447.247285 1231.730681 445.308238 
C 1229.791633 443.36919 1227.161351 442.279692 1224.419124 442.279692 
C 1221.676897 442.279692 1219.046615 443.36919 1217.107568 445.308238 
C 1215.16852 447.247285 1214.079022 449.877567 1214.079022 452.619794 
C 1214.079022 455.362021 1215.16852 457.992303 1217.107568 459.931351 
C 1219.046615 461.870398 1221.676897 462.959896 1224.419124 462.959896 
z
" style="fill:#bb8bff;stroke:#bb8bff;stroke-linejoin:miter;stroke-width:2;"/>
   </g>
   <g id="patch_74">
    <path clip-path="url(#p8a7b75a34a)" d="M 1269.870124 411.600267 
C 1271.045364 411.600267 1272.172628 411.133339 1273.003648 410.302319 
C 1273.834668 409.471299 1274.301596 408.344035 1274.301596 407.168795 
C 1274.301596 405.993554 1273.834668 404.866291 1273.003648 404.03527 
C 1272.172628 403.20425 1271.045364 402.737322 1269.870124 402.737322 
C 1268.694883 402.737322 1267.56762 403.20425 1266.736599 404.03527 
C 1265.905579 404.866291 1265.438651 405.993554 1265.438651 407.168795 
C 1265.438651 408.344035 1265.905579 409.471299 1266.736599 410.302319 
C 1267.56762 411.133339 1268.694883 411.600267 1269.870124 411.600267 
z
" style="fill:#bb8bff;stroke:#bb8bff;stroke-linejoin:miter;stroke-width:1.5;"/>
   </g>
   <g id="patch_75">
    <path clip-path="url(#p8a7b75a34a)" d="M 1269.870124 275.247269 
C 1271.045364 275.247269 1272.172628 274.780341 1273.003648 273.949321 
C 1273.834668 273.1183 1274.301596 271.991037 1274.301596 270.815796 
C 1274.301596 269.640556 1273.834668 268.513293 1273.003648 267.682272 
C 1272.172628 266.851252 1271.045364 266.384324 1269.870124 266.384324 
C 1268.694883 266.384324 1267.56762 266.851252 1266.736599 267.682272 
C 1265.905579 268.513293 1265.438651 269.640556 1265.438651 270.815796 
C 1265.438651 271.991037 1265.905579 273.1183 1266.736599 273.949321 
C 1267.56762 274.780341 1268.694883 275.247269 1269.870124 275.247269 
z
" style="fill:#bb8bff;stroke:#bb8bff;stroke-linejoin:miter;stroke-width:1.5;"/>
   </g>
   <g id="patch_76">
    <path clip-path="url(#p8a7b75a34a)" d="M 1269.870124 462.959896 
C 1272.612351 462.959896 1275.242633 461.870398 1277.18168 459.931351 
C 1279.120728 457.992303 1280.210226 455.362021 1280.210226 452.619794 
C 1280.210226 449.877567 1279.120728 447.247285 1277.18168 445.308238 
C 1275.242633 443.36919 1272.612351 442.279692 1269.870124 442.279692 
C 1267.127896 442.279692 1264.497615 443.36919 1262.558567 445.308238 
C 1260.61952 447.247285 1259.530021 449.877567 1259.530021 452.619794 
C 1259.530021 455.362021 1260.61952 457.992303 1262.558567 459.931351 
C 1264.497615 461.870398 1267.127896 462.959896 1269.870124 462.959896 
z
" style="fill:#bb8bff;stroke:#bb8bff;stroke-linejoin:miter;stroke-width:2;"/>
   </g>
   <g id="patch_77">
    <path clip-path="url(#p8a7b75a34a)" d="M 1315.321123 275.247269 
C 1316.496363 275.247269 1317.623627 274.780341 1318.454647 273.949321 
C 1319.285668 273.1183 1319.752595 271.991037 1319.752595 270.815796 
C 1319.752595 269.640556 1319.285668 268.513293 1318.454647 267.682272 
C 1317.623627 266.851252 1316.496363 266.384324 1315.321123 266.384324 
C 1314.145883 266.384324 1313.018619 266.851252 1312.187599 267.682272 
C 1311.356578 268.513293 1310.889651 269.640556 1310.889651 270.815796 
C 1310.889651 271.991037 1311.356578 273.1183 1312.187599 273.949321 
C 1313.018619 274.780341 1314.145883 275.247269 1315.321123 275.247269 
z
" style="fill:#bb8bff;stroke:#bb8bff;stroke-linejoin:miter;stroke-width:1.5;"/>
   </g>
   <g id="patch_78">
    <path clip-path="url(#p8a7b75a34a)" d="M 1315.321123 93.443271 
C 1316.496363 93.443271 1317.623627 92.976343 1318.454647 92.145323 
C 1319.285668 91.314303 1319.752595 90.187039 1319.752595 89.011799 
C 1319.752595 87.836559 1319.285668 86.709295 1318.454647 85.878275 
C 1317.623627 85.047254 1316.496363 84.580326 1315.321123 84.580326 
C 1314.145883 84.580326 1313.018619 85.047254 1312.187599 85.878275 
C 1311.356578 86.709295 1310.889651 87.836559 1310.889651 89.011799 
C 1310.889651 90.187039 1311.356578 91.314303 1312.187599 92.145323 
C 1313.018619 92.976343 1314.145883 93.443271 1315.321123 93.443271 
z
" style="fill:#bb8bff;stroke:#bb8bff;stroke-linejoin:miter;stroke-width:1.5;"/>
   </g>
   <g id="patch_79">
    <path clip-path="url(#p8a7b75a34a)" d="M 1315.321123 462.959896 
C 1318.06335 462.959896 1320.693632 461.870398 1322.63268 459.931351 
C 1324.571727 457.992303 1325.661225 455.362021 1325.661225 452.619794 
C 1325.661225 449.877567 1324.571727 447.247285 1322.63268 445.308238 
C 1320.693632 443.36919 1318.06335 442.279692 1315.321123 442.279692 
C 1312.578896 442.279692 1309.948614 443.36919 1308.009567 445.308238 
C 1306.070519 447.247285 1304.981021 449.877567 1304.981021 452.619794 
C 1304.981021 455.362021 1306.070519 457.992303 1308.009567 459.931351 
C 1309.948614 461.870398 1312.578896 462.959896 1315.321123 462.959896 
z
" style="fill:#bb8bff;stroke:#bb8bff;stroke-linejoin:miter;stroke-width:2;"/>
   </g>
   <g id="patch_80">
    <path clip-path="url(#p8a7b75a34a)" d="M 1360.772122 47.992272 
C 1361.947363 47.992272 1363.074626 47.525344 1363.905647 46.694324 
C 1364.736667 45.863303 1365.203595 44.73604 1365.203595 43.5608 
C 1365.203595 42.385559 1364.736667 41.258296 1363.905647 40.427275 
C 1363.074626 39.596255 1361.947363 39.129327 1360.772122 39.129327 
C 1359.596882 39.129327 1358.469619 39.596255 1357.638598 40.427275 
C 1356.807578 41.258296 1356.34065 42.385559 1356.34065 43.5608 
C 1356.34065 44.73604 1356.807578 45.863303 1357.638598 46.694324 
C 1358.469619 47.525344 1359.596882 47.992272 1360.772122 47.992272 
z
" style="fill:#bb8bff;stroke:#bb8bff;stroke-linejoin:miter;stroke-width:1.5;"/>
   </g>
   <g id="patch_81">
    <path clip-path="url(#p8a7b75a34a)" d="M 1360.772122 229.79627 
C 1361.947363 229.79627 1363.074626 229.329342 1363.905647 228.498321 
C 1364.736667 227.667301 1365.203595 226.540037 1365.203595 225.364797 
C 1365.203595 224.189557 1364.736667 223.062293 1363.905647 222.231273 
C 1363.074626 221.400253 1361.947363 220.933325 1360.772122 220.933325 
C 1359.596882 220.933325 1358.469619 221.400253 1357.638598 222.231273 
C 1356.807578 223.062293 1356.34065 224.189557 1356.34065 225.364797 
C 1356.34065 226.540037 1356.807578 227.667301 1357.638598 228.498321 
C 1358.469619 229.329342 1359.596882 229.79627 1360.772122 229.79627 
z
" style="fill:#bb8bff;stroke:#bb8bff;stroke-linejoin:miter;stroke-width:1.5;"/>
   </g>
   <g id="patch_82">
    <path clip-path="url(#p8a7b75a34a)" d="M 1360.772122 417.508897 
C 1363.51435 417.508897 1366.144631 416.419399 1368.083679 414.480351 
C 1370.022726 412.541304 1371.112225 409.911022 1371.112225 407.168795 
C 1371.112225 404.426567 1370.022726 401.796286 1368.083679 399.857238 
C 1366.144631 397.918191 1363.51435 396.828692 1360.772122 396.828692 
C 1358.029895 396.828692 1355.399613 397.918191 1353.460566 399.857238 
C 1351.521518 401.796286 1350.43202 404.426567 1350.43202 407.168795 
C 1350.43202 409.911022 1351.521518 412.541304 1353.460566 414.480351 
C 1355.399613 416.419399 1358.029895 417.508897 1360.772122 417.508897 
z
" style="fill:#bb8bff;stroke:#bb8bff;stroke-linejoin:miter;stroke-width:2;"/>
   </g>
   <g id="line2d_45">
    <path clip-path="url(#p8a7b75a34a)" d="M 133.595139 549.430423 
L 133.595139 537.613163 
" style="fill:none;stroke:#ffffff;stroke-linecap:square;stroke-width:2;"/>
   </g>
   <g id="line2d_46">
    <path clip-path="url(#p8a7b75a34a)" d="M 127.686509 543.521793 
L 139.503769 543.521793 
" style="fill:none;stroke:#ffffff;stroke-linecap:square;stroke-width:2;"/>
   </g>
   <g id="line2d_47">
    <path clip-path="url(#p8a7b75a34a)" d="M 179.046138 594.881422 
L 179.046138 583.064162 
" style="fill:none;stroke:#ffffff;stroke-linecap:square;stroke-width:2;"/>
   </g>
   <g id="line2d_48">
    <path clip-path="url(#p8a7b75a34a)" d="M 173.137508 588.972792 
L 184.954768 588.972792 
" style="fill:none;stroke:#ffffff;stroke-linecap:square;stroke-width:2;"/>
   </g>
   <g id="line2d_49">
    <path clip-path="url(#p8a7b75a34a)" d="M 224.497138 640.332422 
L 224.497138 628.515162 
" style="fill:none;stroke:#ffffff;stroke-linecap:square;stroke-width:2;"/>
   </g>
   <g id="line2d_50">
    <path clip-path="url(#p8a7b75a34a)" d="M 218.588508 634.423792 
L 230.405767 634.423792 
" style="fill:none;stroke:#ffffff;stroke-linecap:square;stroke-width:2;"/>
   </g>
   <g id="line2d_51">
    <path clip-path="url(#p8a7b75a34a)" d="M 269.948137 685.783421 
L 269.948137 673.966161 
" style="fill:none;stroke:#ffffff;stroke-linecap:square;stroke-width:2;"/>
   </g>
   <g id="line2d_52">
    <path clip-path="url(#p8a7b75a34a)" d="M 264.039507 679.874791 
L 275.856767 679.874791 
" style="fill:none;stroke:#ffffff;stroke-linecap:square;stroke-width:2;"/>
   </g>
   <g id="line2d_53">
    <path clip-path="url(#p8a7b75a34a)" d="M 315.399136 549.430423 
L 315.399136 537.613163 
" style="fill:none;stroke:#ffffff;stroke-linecap:square;stroke-width:2;"/>
   </g>
   <g id="line2d_54">
    <path clip-path="url(#p8a7b75a34a)" d="M 309.490506 543.521793 
L 321.307766 543.521793 
" style="fill:none;stroke:#ffffff;stroke-linecap:square;stroke-width:2;"/>
   </g>
   <g id="line2d_55">
    <path clip-path="url(#p8a7b75a34a)" d="M 360.850136 594.881422 
L 360.850136 583.064162 
" style="fill:none;stroke:#ffffff;stroke-linecap:square;stroke-width:2;"/>
   </g>
   <g id="line2d_56">
    <path clip-path="url(#p8a7b75a34a)" d="M 354.941506 588.972792 
L 366.758766 588.972792 
" style="fill:none;stroke:#ffffff;stroke-linecap:square;stroke-width:2;"/>
   </g>
   <g id="line2d_57">
    <path clip-path="url(#p8a7b75a34a)" d="M 406.301135 640.332422 
L 406.301135 628.515162 
" style="fill:none;stroke:#ffffff;stroke-linecap:square;stroke-width:2;"/>
   </g>
   <g id="line2d_58">
    <path clip-path="url(#p8a7b75a34a)" d="M 400.392505 634.423792 
L 412.209765 634.423792 
" style="fill:none;stroke:#ffffff;stroke-linecap:square;stroke-width:2;"/>
   </g>
   <g id="line2d_59">
    <path clip-path="url(#p8a7b75a34a)" d="M 451.752135 685.783421 
L 451.752135 673.966161 
" style="fill:none;stroke:#ffffff;stroke-linecap:square;stroke-width:2;"/>
   </g>
   <g id="line2d_60">
    <path clip-path="url(#p8a7b75a34a)" d="M 445.843505 679.874791 
L 457.660764 679.874791 
" style="fill:none;stroke:#ffffff;stroke-linecap:square;stroke-width:2;"/>
   </g>
   <g id="line2d_61">
    <path clip-path="url(#p8a7b75a34a)" d="M 497.203134 413.077425 
L 497.203134 401.260165 
" style="fill:none;stroke:#ffffff;stroke-linecap:square;stroke-width:2;"/>
   </g>
   <g id="line2d_62">
    <path clip-path="url(#p8a7b75a34a)" d="M 491.294504 407.168795 
L 503.111764 407.168795 
" style="fill:none;stroke:#ffffff;stroke-linecap:square;stroke-width:2;"/>
   </g>
   <g id="line2d_63">
    <path clip-path="url(#p8a7b75a34a)" d="M 542.654133 458.528424 
L 542.654133 446.711164 
" style="fill:none;stroke:#ffffff;stroke-linecap:square;stroke-width:2;"/>
   </g>
   <g id="line2d_64">
    <path clip-path="url(#p8a7b75a34a)" d="M 536.745503 452.619794 
L 548.562763 452.619794 
" style="fill:none;stroke:#ffffff;stroke-linecap:square;stroke-width:2;"/>
   </g>
   <g id="line2d_65">
    <path clip-path="url(#p8a7b75a34a)" d="M 588.105133 503.979423 
L 588.105133 492.162164 
" style="fill:none;stroke:#ffffff;stroke-linecap:square;stroke-width:2;"/>
   </g>
   <g id="line2d_66">
    <path clip-path="url(#p8a7b75a34a)" d="M 582.196503 498.070793 
L 594.013763 498.070793 
" style="fill:none;stroke:#ffffff;stroke-linecap:square;stroke-width:2;"/>
   </g>
   <g id="line2d_67">
    <path clip-path="url(#p8a7b75a34a)" d="M 633.556132 731.23442 
L 633.556132 719.417161 
" style="fill:none;stroke:#ffffff;stroke-linecap:square;stroke-width:2;"/>
   </g>
   <g id="line2d_68">
    <path clip-path="url(#p8a7b75a34a)" d="M 627.647502 725.32579 
L 639.464762 725.32579 
" style="fill:none;stroke:#ffffff;stroke-linecap:square;stroke-width:2;"/>
   </g>
   <g id="line2d_69">
    <path clip-path="url(#p8a7b75a34a)" d="M 679.007131 594.881422 
L 679.007131 583.064162 
" style="fill:none;stroke:#ffffff;stroke-linecap:square;stroke-width:2;"/>
   </g>
   <g id="line2d_70">
    <path clip-path="url(#p8a7b75a34a)" d="M 673.098502 588.972792 
L 684.915761 588.972792 
" style="fill:none;stroke:#ffffff;stroke-linecap:square;stroke-width:2;"/>
   </g>
   <g id="line2d_71">
    <path clip-path="url(#p8a7b75a34a)" d="M 724.458131 458.528424 
L 724.458131 446.711164 
" style="fill:none;stroke:#ffffff;stroke-linecap:square;stroke-width:2;"/>
   </g>
   <g id="line2d_72">
    <path clip-path="url(#p8a7b75a34a)" d="M 718.549501 452.619794 
L 730.366761 452.619794 
" style="fill:none;stroke:#ffffff;stroke-linecap:square;stroke-width:2;"/>
   </g>
   <g id="line2d_73">
    <path clip-path="url(#p8a7b75a34a)" d="M 769.90913 458.528424 
L 769.90913 446.711164 
" style="fill:none;stroke:#ffffff;stroke-linecap:square;stroke-width:2;"/>
   </g>
   <g id="line2d_74">
    <path clip-path="url(#p8a7b75a34a)" d="M 764.0005 452.619794 
L 775.81776 452.619794 
" style="fill:none;stroke:#ffffff;stroke-linecap:square;stroke-width:2;"/>
   </g>
   <g id="line2d_75">
    <path clip-path="url(#p8a7b75a34a)" d="M 815.36013 640.332422 
L 815.36013 628.515162 
" style="fill:none;stroke:#ffffff;stroke-linecap:square;stroke-width:2;"/>
   </g>
   <g id="line2d_76">
    <path clip-path="url(#p8a7b75a34a)" d="M 809.4515 634.423792 
L 821.26876 634.423792 
" style="fill:none;stroke:#ffffff;stroke-linecap:square;stroke-width:2;"/>
   </g>
   <g id="line2d_77">
    <path clip-path="url(#p8a7b75a34a)" d="M 860.811129 503.979423 
L 860.811129 492.162164 
" style="fill:none;stroke:#ffffff;stroke-linecap:square;stroke-width:2;"/>
   </g>
   <g id="line2d_78">
    <path clip-path="url(#p8a7b75a34a)" d="M 854.902499 498.070793 
L 866.719759 498.070793 
" style="fill:none;stroke:#ffffff;stroke-linecap:square;stroke-width:2;"/>
   </g>
   <g id="line2d_79">
    <path clip-path="url(#p8a7b75a34a)" d="M 906.262128 503.979423 
L 906.262128 492.162164 
" style="fill:none;stroke:#ffffff;stroke-linecap:square;stroke-width:2;"/>
   </g>
   <g id="line2d_80">
    <path clip-path="url(#p8a7b75a34a)" d="M 900.353499 498.070793 
L 912.170758 498.070793 
" style="fill:none;stroke:#ffffff;stroke-linecap:square;stroke-width:2;"/>
   </g>
   <g id="line2d_81">
    <path clip-path="url(#p8a7b75a34a)" d="M 951.713128 685.783421 
L 951.713128 673.966161 
" style="fill:none;stroke:#ffffff;stroke-linecap:square;stroke-width:2;"/>
   </g>
   <g id="line2d_82">
    <path clip-path="url(#p8a7b75a34a)" d="M 945.804498 679.874791 
L 957.621758 679.874791 
" style="fill:none;stroke:#ffffff;stroke-linecap:square;stroke-width:2;"/>
   </g>
   <g id="line2d_83">
    <path clip-path="url(#p8a7b75a34a)" d="M 997.164127 731.23442 
L 997.164127 719.417161 
" style="fill:none;stroke:#ffffff;stroke-linecap:square;stroke-width:2;"/>
   </g>
   <g id="line2d_84">
    <path clip-path="url(#p8a7b75a34a)" d="M 991.255497 725.32579 
L 1003.072757 725.32579 
" style="fill:none;stroke:#ffffff;stroke-linecap:square;stroke-width:2;"/>
   </g>
   <g id="line2d_85">
    <path clip-path="url(#p8a7b75a34a)" d="M 1042.615127 731.23442 
L 1042.615127 719.417161 
" style="fill:none;stroke:#ffffff;stroke-linecap:square;stroke-width:2;"/>
   </g>
   <g id="line2d_86">
    <path clip-path="url(#p8a7b75a34a)" d="M 1036.706497 725.32579 
L 1048.523757 725.32579 
" style="fill:none;stroke:#ffffff;stroke-linecap:square;stroke-width:2;"/>
   </g>
   <g id="line2d_87">
    <path clip-path="url(#p8a7b75a34a)" d="M 1088.066126 503.979423 
L 1088.066126 492.162164 
" style="fill:none;stroke:#ffffff;stroke-linecap:square;stroke-width:2;"/>
   </g>
   <g id="line2d_88">
    <path clip-path="url(#p8a7b75a34a)" d="M 1082.157496 498.070793 
L 1093.974756 498.070793 
" style="fill:none;stroke:#ffffff;stroke-linecap:square;stroke-width:2;"/>
   </g>
   <g id="line2d_89">
    <path clip-path="url(#p8a7b75a34a)" d="M 1133.517125 503.979423 
L 1133.517125 492.162164 
" style="fill:none;stroke:#ffffff;stroke-linecap:square;stroke-width:2;"/>
   </g>
   <g id="line2d_90">
    <path clip-path="url(#p8a7b75a34a)" d="M 1127.608496 498.070793 
L 1139.425755 498.070793 
" style="fill:none;stroke:#ffffff;stroke-linecap:square;stroke-width:2;"/>
   </g>
   <g id="line2d_91">
    <path clip-path="url(#p8a7b75a34a)" d="M 1178.968125 503.979423 
L 1178.968125 492.162164 
" style="fill:none;stroke:#ffffff;stroke-linecap:square;stroke-width:2;"/>
   </g>
   <g id="line2d_92">
    <path clip-path="url(#p8a7b75a34a)" d="M 1173.059495 498.070793 
L 1184.876755 498.070793 
" style="fill:none;stroke:#ffffff;stroke-linecap:square;stroke-width:2;"/>
   </g>
   <g id="line2d_93">
    <path clip-path="url(#p8a7b75a34a)" d="M 1224.419124 458.528424 
L 1224.419124 446.711164 
" style="fill:none;stroke:#ffffff;stroke-linecap:square;stroke-width:2;"/>
   </g>
   <g id="line2d_94">
    <path clip-path="url(#p8a7b75a34a)" d="M 1218.510494 452.619794 
L 1230.327754 452.619794 
" style="fill:none;stroke:#ffffff;stroke-linecap:square;stroke-width:2;"/>
   </g>
   <g id="line2d_95">
    <path clip-path="url(#p8a7b75a34a)" d="M 1269.870124 458.528424 
L 1269.870124 446.711164 
" style="fill:none;stroke:#ffffff;stroke-linecap:square;stroke-width:2;"/>
   </g>
   <g id="line2d_96">
    <path clip-path="url(#p8a7b75a34a)" d="M 1263.961494 452.619794 
L 1275.778754 452.619794 
" style="fill:none;stroke:#ffffff;stroke-linecap:square;stroke-width:2;"/>
   </g>
   <g id="line2d_97">
    <path clip-path="url(#p8a7b75a34a)" d="M 1315.321123 458.528424 
L 1315.321123 446.711164 
" style="fill:none;stroke:#ffffff;stroke-linecap:square;stroke-width:2;"/>
   </g>
   <g id="line2d_98">
    <path clip-path="url(#p8a7b75a34a)" d="M 1309.412493 452.619794 
L 1321.229753 452.619794 
" style="fill:none;stroke:#ffffff;stroke-linecap:square;stroke-width:2;"/>
   </g>
   <g id="line2d_99">
    <path clip-path="url(#p8a7b75a34a)" d="M 1360.772122 413.077425 
L 1360.772122 401.260165 
" style="fill:none;stroke:#ffffff;stroke-linecap:square;stroke-width:2;"/>
   </g>
   <g id="line2d_100">
    <path clip-path="url(#p8a7b75a34a)" d="M 1354.863493 407.168795 
L 1366.680752 407.168795 
" style="fill:none;stroke:#ffffff;stroke-linecap:square;stroke-width:2;"/>
   </g>
   <g id="text_1">
    <g clip-path="url(#p8a7b75a34a)">
     <!-- ${a}_{0}$ -->
     <g transform="translate(36.7979 48.044784)scale(0.1625 -0.1625)">
      <defs>
       <path d="M 3438 1997 
L 3047 0 
L 2472 0 
L 2578 531 
Q 2325 219 2001 64 
Q 1678 -91 1281 -91 
Q 834 -91 548 182 
Q 263 456 263 884 
Q 263 1497 752 1853 
Q 1241 2209 2100 2209 
L 2900 2209 
L 2931 2363 
Q 2938 2388 2941 2417 
Q 2944 2447 2944 2509 
Q 2944 2788 2717 2942 
Q 2491 3097 2081 3097 
Q 1800 3097 1504 3025 
Q 1209 2953 897 2809 
L 997 3341 
Q 1322 3463 1633 3523 
Q 1944 3584 2234 3584 
Q 2853 3584 3176 3315 
Q 3500 3047 3500 2534 
Q 3500 2431 3484 2292 
Q 3469 2153 3438 1997 
z
M 2816 1759 
L 2241 1759 
Q 1534 1759 1195 1570 
Q 856 1381 856 984 
Q 856 709 1029 553 
Q 1203 397 1509 397 
Q 1978 397 2328 733 
Q 2678 1069 2791 1631 
L 2816 1759 
z
" id="DejaVuSans-Oblique-61" transform="scale(0.015625)"/>
       <path d="M 2034 4250 
Q 1547 4250 1301 3770 
Q 1056 3291 1056 2328 
Q 1056 1369 1301 889 
Q 1547 409 2034 409 
Q 2525 409 2770 889 
Q 3016 1369 3016 2328 
Q 3016 3291 2770 3770 
Q 2525 4250 2034 4250 
z
M 2034 4750 
Q 2819 4750 3233 4129 
Q 3647 3509 3647 2328 
Q 3647 1150 3233 529 
Q 2819 -91 2034 -91 
Q 1250 -91 836 529 
Q 422 1150 422 2328 
Q 422 3509 836 4129 
Q 1250 4750 2034 4750 
z
" id="DejaVuSans-30" transform="scale(0.015625)"/>
      </defs>
      <use xlink:href="#DejaVuSans-Oblique-61"/>
      <use transform="translate(61.279297 -16.40625)scale(0.7)" xlink:href="#DejaVuSans-30"/>
     </g>
    </g>
   </g>
   <g id="text_2">
    <g clip-path="url(#p8a7b75a34a)">
     <!-- ${a}_{1}$ -->
     <g transform="translate(36.7979 93.495783)scale(0.1625 -0.1625)">
      <defs>
       <path d="M 794 531 
L 1825 531 
L 1825 4091 
L 703 3866 
L 703 4441 
L 1819 4666 
L 2450 4666 
L 2450 531 
L 3481 531 
L 3481 0 
L 794 0 
L 794 531 
z
" id="DejaVuSans-31" transform="scale(0.015625)"/>
      </defs>
      <use xlink:href="#DejaVuSans-Oblique-61"/>
      <use transform="translate(61.279297 -16.40625)scale(0.7)" xlink:href="#DejaVuSans-31"/>
     </g>
    </g>
   </g>
   <g id="text_3">
    <g clip-path="url(#p8a7b75a34a)">
     <!-- ${a}_{2}$ -->
     <g transform="translate(36.7979 138.946783)scale(0.1625 -0.1625)">
      <defs>
       <path d="M 1228 531 
L 3431 531 
L 3431 0 
L 469 0 
L 469 531 
Q 828 903 1448 1529 
Q 2069 2156 2228 2338 
Q 2531 2678 2651 2914 
Q 2772 3150 2772 3378 
Q 2772 3750 2511 3984 
Q 2250 4219 1831 4219 
Q 1534 4219 1204 4116 
Q 875 4013 500 3803 
L 500 4441 
Q 881 4594 1212 4672 
Q 1544 4750 1819 4750 
Q 2544 4750 2975 4387 
Q 3406 4025 3406 3419 
Q 3406 3131 3298 2873 
Q 3191 2616 2906 2266 
Q 2828 2175 2409 1742 
Q 1991 1309 1228 531 
z
" id="DejaVuSans-32" transform="scale(0.015625)"/>
      </defs>
      <use xlink:href="#DejaVuSans-Oblique-61"/>
      <use transform="translate(61.279297 -16.40625)scale(0.7)" xlink:href="#DejaVuSans-32"/>
     </g>
    </g>
   </g>
   <g id="text_4">
    <g clip-path="url(#p8a7b75a34a)">
     <!-- ${a}_{3}$ -->
     <g transform="translate(36.7979 184.397782)scale(0.1625 -0.1625)">
      <defs>
       <path d="M 2597 2516 
Q 3050 2419 3304 2112 
Q 3559 1806 3559 1356 
Q 3559 666 3084 287 
Q 2609 -91 1734 -91 
Q 1441 -91 1130 -33 
Q 819 25 488 141 
L 488 750 
Q 750 597 1062 519 
Q 1375 441 1716 441 
Q 2309 441 2620 675 
Q 2931 909 2931 1356 
Q 2931 1769 2642 2001 
Q 2353 2234 1838 2234 
L 1294 2234 
L 1294 2753 
L 1863 2753 
Q 2328 2753 2575 2939 
Q 2822 3125 2822 3475 
Q 2822 3834 2567 4026 
Q 2313 4219 1838 4219 
Q 1578 4219 1281 4162 
Q 984 4106 628 3988 
L 628 4550 
Q 988 4650 1302 4700 
Q 1616 4750 1894 4750 
Q 2613 4750 3031 4423 
Q 3450 4097 3450 3541 
Q 3450 3153 3228 2886 
Q 3006 2619 2597 2516 
z
" id="DejaVuSans-33" transform="scale(0.015625)"/>
      </defs>
      <use xlink:href="#DejaVuSans-Oblique-61"/>
      <use transform="translate(61.279297 -16.40625)scale(0.7)" xlink:href="#DejaVuSans-33"/>
     </g>
    </g>
   </g>
   <g id="text_5">
    <g clip-path="url(#p8a7b75a34a)">
     <!-- ${b}_{0}$ -->
     <g transform="translate(36.4729 229.848781)scale(0.1625 -0.1625)">
      <defs>
       <path d="M 3169 2138 
Q 3169 2591 2961 2847 
Q 2753 3103 2388 3103 
Q 2122 3103 1889 2973 
Q 1656 2844 1484 2597 
Q 1303 2338 1198 1995 
Q 1094 1653 1094 1313 
Q 1094 881 1298 636 
Q 1503 391 1863 391 
Q 2134 391 2365 517 
Q 2597 644 2772 891 
Q 2950 1147 3059 1487 
Q 3169 1828 3169 2138 
z
M 1381 2969 
Q 1594 3256 1914 3420 
Q 2234 3584 2584 3584 
Q 3122 3584 3439 3221 
Q 3756 2859 3756 2241 
Q 3756 1734 3570 1259 
Q 3384 784 3041 416 
Q 2816 172 2522 40 
Q 2228 -91 1906 -91 
Q 1566 -91 1316 65 
Q 1066 222 909 531 
L 806 0 
L 231 0 
L 1178 4863 
L 1753 4863 
L 1381 2969 
z
" id="DejaVuSans-Oblique-62" transform="scale(0.015625)"/>
      </defs>
      <use transform="translate(0 0.015625)" xlink:href="#DejaVuSans-Oblique-62"/>
      <use transform="translate(63.476562 -16.390625)scale(0.7)" xlink:href="#DejaVuSans-30"/>
     </g>
    </g>
   </g>
   <g id="text_6">
    <g clip-path="url(#p8a7b75a34a)">
     <!-- ${b}_{1}$ -->
     <g transform="translate(36.4729 275.299781)scale(0.1625 -0.1625)">
      <use transform="translate(0 0.015625)" xlink:href="#DejaVuSans-Oblique-62"/>
      <use transform="translate(63.476562 -16.390625)scale(0.7)" xlink:href="#DejaVuSans-31"/>
     </g>
    </g>
   </g>
   <g id="text_7">
    <g clip-path="url(#p8a7b75a34a)">
     <!-- ${b}_{2}$ -->
     <g transform="translate(36.4729 320.75078)scale(0.1625 -0.1625)">
      <use transform="translate(0 0.015625)" xlink:href="#DejaVuSans-Oblique-62"/>
      <use transform="translate(63.476562 -16.390625)scale(0.7)" xlink:href="#DejaVuSans-32"/>
     </g>
    </g>
   </g>
   <g id="text_8">
    <g clip-path="url(#p8a7b75a34a)">
     <!-- ${b}_{3}$ -->
     <g transform="translate(36.4729 366.20178)scale(0.1625 -0.1625)">
      <use transform="translate(0 0.015625)" xlink:href="#DejaVuSans-Oblique-62"/>
      <use transform="translate(63.476562 -16.390625)scale(0.7)" xlink:href="#DejaVuSans-33"/>
     </g>
    </g>
   </g>
   <g id="text_9">
    <g clip-path="url(#p8a7b75a34a)">
     <!-- ${t}_{0}$ -->
     <g transform="translate(40.3729 411.652779)scale(0.1625 -0.1625)">
      <defs>
       <path d="M 2706 3500 
L 2619 3053 
L 1472 3053 
L 1100 1153 
Q 1081 1047 1072 975 
Q 1063 903 1063 863 
Q 1063 663 1183 572 
Q 1303 481 1569 481 
L 2150 481 
L 2053 0 
L 1503 0 
Q 991 0 739 200 
Q 488 400 488 806 
Q 488 878 497 964 
Q 506 1050 525 1153 
L 897 3053 
L 409 3053 
L 500 3500 
L 978 3500 
L 1172 4494 
L 1747 4494 
L 1556 3500 
L 2706 3500 
z
" id="DejaVuSans-Oblique-74" transform="scale(0.015625)"/>
      </defs>
      <use transform="translate(0 0.78125)" xlink:href="#DejaVuSans-Oblique-74"/>
      <use transform="translate(39.208984 -15.625)scale(0.7)" xlink:href="#DejaVuSans-30"/>
     </g>
    </g>
   </g>
   <g id="text_10">
    <g clip-path="url(#p8a7b75a34a)">
     <!-- ${t}_{1}$ -->
     <g transform="translate(40.3729 457.103778)scale(0.1625 -0.1625)">
      <use transform="translate(0 0.78125)" xlink:href="#DejaVuSans-Oblique-74"/>
      <use transform="translate(39.208984 -15.625)scale(0.7)" xlink:href="#DejaVuSans-31"/>
     </g>
    </g>
   </g>
   <g id="text_11">
    <g clip-path="url(#p8a7b75a34a)">
     <!-- ${t}_{2}$ -->
     <g transform="translate(40.3729 502.554778)scale(0.1625 -0.1625)">
      <use transform="translate(0 0.78125)" xlink:href="#DejaVuSans-Oblique-74"/>
      <use transform="translate(39.208984 -15.625)scale(0.7)" xlink:href="#DejaVuSans-32"/>
     </g>
    </g>
   </g>
   <g id="text_12">
    <g clip-path="url(#p8a7b75a34a)">
     <!-- ${c}_{0}$ -->
     <g transform="translate(37.7729 548.005777)scale(0.1625 -0.1625)">
      <defs>
       <path d="M 3431 3366 
L 3316 2797 
Q 3109 2947 2876 3022 
Q 2644 3097 2394 3097 
Q 2119 3097 1870 3000 
Q 1622 2903 1453 2725 
Q 1184 2453 1037 2087 
Q 891 1722 891 1331 
Q 891 859 1127 628 
Q 1363 397 1844 397 
Q 2081 397 2348 469 
Q 2616 541 2906 684 
L 2797 116 
Q 2547 13 2283 -39 
Q 2019 -91 1741 -91 
Q 1044 -91 669 257 
Q 294 606 294 1253 
Q 294 1797 489 2255 
Q 684 2713 1069 3078 
Q 1331 3328 1684 3456 
Q 2038 3584 2456 3584 
Q 2700 3584 2940 3529 
Q 3181 3475 3431 3366 
z
" id="DejaVuSans-Oblique-63" transform="scale(0.015625)"/>
      </defs>
      <use xlink:href="#DejaVuSans-Oblique-63"/>
      <use transform="translate(54.980469 -16.40625)scale(0.7)" xlink:href="#DejaVuSans-30"/>
     </g>
    </g>
   </g>
   <g id="text_13">
    <g clip-path="url(#p8a7b75a34a)">
     <!-- ${c}_{1}$ -->
     <g transform="translate(37.7729 593.456777)scale(0.1625 -0.1625)">
      <use xlink:href="#DejaVuSans-Oblique-63"/>
      <use transform="translate(54.980469 -16.40625)scale(0.7)" xlink:href="#DejaVuSans-31"/>
     </g>
    </g>
   </g>
   <g id="text_14">
    <g clip-path="url(#p8a7b75a34a)">
     <!-- ${c}_{2}$ -->
     <g transform="translate(37.7729 638.907776)scale(0.1625 -0.1625)">
      <use xlink:href="#DejaVuSans-Oblique-63"/>
      <use transform="translate(54.980469 -16.40625)scale(0.7)" xlink:href="#DejaVuSans-32"/>
     </g>
    </g>
   </g>
   <g id="text_15">
    <g clip-path="url(#p8a7b75a34a)">
     <!-- ${c}_{3}$ -->
     <g transform="translate(37.7729 684.358775)scale(0.1625 -0.1625)">
      <use xlink:href="#DejaVuSans-Oblique-63"/>
      <use transform="translate(54.980469 -16.40625)scale(0.7)" xlink:href="#DejaVuSans-33"/>
     </g>
    </g>
   </g>
   <g id="text_16">
    <g clip-path="url(#p8a7b75a34a)">
     <!-- ${c}_{4}$ -->
     <g transform="translate(37.7729 729.809775)scale(0.1625 -0.1625)">
      <defs>
       <path d="M 2419 4116 
L 825 1625 
L 2419 1625 
L 2419 4116 
z
M 2253 4666 
L 3047 4666 
L 3047 1625 
L 3713 1625 
L 3713 1100 
L 3047 1100 
L 3047 0 
L 2419 0 
L 2419 1100 
L 313 1100 
L 313 1709 
L 2253 4666 
z
" id="DejaVuSans-34" transform="scale(0.015625)"/>
      </defs>
      <use xlink:href="#DejaVuSans-Oblique-63"/>
      <use transform="translate(54.980469 -16.40625)scale(0.7)" xlink:href="#DejaVuSans-34"/>
     </g>
    </g>
   </g>
   <g id="text_17">
    <g clip-path="url(#p8a7b75a34a)">
     <!-- H -->
     <g transform="translate(83.255936 47.147987)scale(0.13 -0.13)">
      <defs>
       <path d="M 628 4666 
L 1259 4666 
L 1259 2753 
L 3553 2753 
L 3553 4666 
L 4184 4666 
L 4184 0 
L 3553 0 
L 3553 2222 
L 1259 2222 
L 1259 0 
L 628 0 
L 628 4666 
z
" id="DejaVuSans-48" transform="scale(0.015625)"/>
      </defs>
      <use xlink:href="#DejaVuSans-48"/>
     </g>
    </g>
   </g>
   <g id="text_18">
    <g clip-path="url(#p8a7b75a34a)">
     <!-- H -->
     <g transform="translate(83.255936 92.598986)scale(0.13 -0.13)">
      <use xlink:href="#DejaVuSans-48"/>
     </g>
    </g>
   </g>
   <g id="text_19">
    <g clip-path="url(#p8a7b75a34a)">
     <!-- H -->
     <g transform="translate(83.255936 138.049986)scale(0.13 -0.13)">
      <use xlink:href="#DejaVuSans-48"/>
     </g>
    </g>
   </g>
   <g id="text_20">
    <g clip-path="url(#p8a7b75a34a)">
     <!-- H -->
     <g transform="translate(83.255936 183.500985)scale(0.13 -0.13)">
      <use xlink:href="#DejaVuSans-48"/>
     </g>
    </g>
   </g>
   <g id="text_21">
    <g clip-path="url(#p8a7b75a34a)">
     <!-- H -->
     <g transform="translate(83.255936 228.951985)scale(0.13 -0.13)">
      <use xlink:href="#DejaVuSans-48"/>
     </g>
    </g>
   </g>
   <g id="text_22">
    <g clip-path="url(#p8a7b75a34a)">
     <!-- H -->
     <g transform="translate(83.255936 274.402984)scale(0.13 -0.13)">
      <use xlink:href="#DejaVuSans-48"/>
     </g>
    </g>
   </g>
   <g id="text_23">
    <g clip-path="url(#p8a7b75a34a)">
     <!-- H -->
     <g transform="translate(83.255936 319.853983)scale(0.13 -0.13)">
      <use xlink:href="#DejaVuSans-48"/>
     </g>
    </g>
   </g>
   <g id="text_24">
    <g clip-path="url(#p8a7b75a34a)">
     <!-- H -->
     <g transform="translate(83.255936 365.304983)scale(0.13 -0.13)">
      <use xlink:href="#DejaVuSans-48"/>
     </g>
    </g>
   </g>
  </g>
 </g>
 <defs>
  <clipPath id="p8a7b75a34a">
   <rect height="745.39639" width="1383.569782" x="7.2" y="7.2"/>
  </clipPath>
 </defs>
</svg>
