<?xml version="1.0" encoding="utf-8" standalone="no"?>
<!DOCTYPE svg PUBLIC "-//W3C//DTD SVG 1.1//EN"
  "http://www.w3.org/Graphics/SVG/1.1/DTD/svg11.dtd">
<svg height="259.835397pt" version="1.1" viewBox="0 0 412.202146 259.835397" width="412.202146pt" xmlns="http://www.w3.org/2000/svg" xmlns:xlink="http://www.w3.org/1999/xlink">
 <metadata>
  <rdf:RDF xmlns:cc="http://creativecommons.org/ns#" xmlns:dc="http://purl.org/dc/elements/1.1/" xmlns:rdf="http://www.w3.org/1999/02/22-rdf-syntax-ns#">
   <cc:Work>
    <dc:type rdf:resource="http://purl.org/dc/dcmitype/StillImage"/>
    <dc:date>2022-08-17T10:35:46.758118</dc:date>
    <dc:format>image/svg+xml</dc:format>
    <dc:creator>
     <cc:Agent>
      <dc:title>Matplotlib v3.4.3, https://matplotlib.org/</dc:title>
     </cc:Agent>
    </dc:creator>
   </cc:Work>
  </rdf:RDF>
 </metadata>
 <defs>
  <style type="text/css">*{stroke-linecap:butt;stroke-linejoin:round;}</style>
 </defs>
 <g id="figure_1">
  <g id="patch_1">
   <path d="M 0 259.835397 
L 412.202146 259.835397 
L 412.202146 0 
L 0 0 
z
" style="fill:#ffffff;"/>
  </g>
  <g id="axes_1">
   <g id="line2d_1">
    <path clip-path="url(#p896b8f60a6)" d="M 77.75495 43.5608 
L 400.457046 43.5608 
" style="fill:none;stroke:#000000;stroke-linecap:square;stroke-width:2;"/>
   </g>
   <g id="line2d_2">
    <path clip-path="url(#p896b8f60a6)" d="M 77.75495 89.011799 
L 400.457046 89.011799 
" style="fill:none;stroke:#000000;stroke-linecap:square;stroke-width:2;"/>
   </g>
   <g id="line2d_3">
    <path clip-path="url(#p896b8f60a6)" d="M 77.75495 134.462798 
L 400.457046 134.462798 
" style="fill:none;stroke:#000000;stroke-linecap:square;stroke-width:2;"/>
   </g>
   <g id="line2d_4">
    <path clip-path="url(#p896b8f60a6)" d="M 77.75495 179.913798 
L 400.457046 179.913798 
" style="fill:none;stroke:#000000;stroke-linecap:square;stroke-width:2;"/>
   </g>
   <g id="line2d_5">
    <path clip-path="url(#p896b8f60a6)" d="M 77.75495 225.364797 
L 400.457046 225.364797 
" style="fill:none;stroke:#000000;stroke-linecap:square;stroke-width:2;"/>
   </g>
   <g id="line2d_6">
    <path clip-path="url(#p896b8f60a6)" d="M 147.749489 225.364797 
L 147.749489 43.5608 
" style="fill:none;stroke:#6fa4ff;stroke-linecap:square;stroke-width:2;"/>
   </g>
   <g id="line2d_7">
    <path clip-path="url(#p896b8f60a6)" d="M 193.200488 225.364797 
L 193.200488 89.011799 
" style="fill:none;stroke:#6fa4ff;stroke-linecap:square;stroke-width:2;"/>
   </g>
   <g id="line2d_8">
    <path clip-path="url(#p896b8f60a6)" d="M 238.651488 225.364797 
L 238.651488 134.462798 
" style="fill:none;stroke:#6fa4ff;stroke-linecap:square;stroke-width:2;"/>
   </g>
   <g id="line2d_9">
    <path clip-path="url(#p896b8f60a6)" d="M 284.102487 179.913798 
L 284.102487 43.5608 
" style="fill:none;stroke:#bb8bff;stroke-linecap:square;stroke-width:2;"/>
   </g>
   <g id="line2d_10">
    <path clip-path="url(#p896b8f60a6)" d="M 329.553487 179.913798 
L 329.553487 89.011799 
" style="fill:none;stroke:#bb8bff;stroke-linecap:square;stroke-width:2;"/>
   </g>
   <g id="line2d_11">
    <path clip-path="url(#p896b8f60a6)" d="M 375.004486 179.913798 
L 375.004486 43.5608 
" style="fill:none;stroke:#bb8bff;stroke-linecap:square;stroke-width:2;"/>
   </g>
   <g id="patch_2">
    <path clip-path="url(#p896b8f60a6)" d="M 87.526915 58.332374 
L 117.070064 58.332374 
L 117.070064 28.789225 
L 87.526915 28.789225 
z
" style="fill:#6fa4ff;stroke:#6fa4ff;stroke-linejoin:miter;stroke-width:1.5;"/>
   </g>
   <g id="patch_3">
    <path clip-path="url(#p896b8f60a6)" d="M 87.526915 103.783374 
L 117.070064 103.783374 
L 117.070064 74.240224 
L 87.526915 74.240224 
z
" style="fill:#6fa4ff;stroke:#6fa4ff;stroke-linejoin:miter;stroke-width:1.5;"/>
   </g>
   <g id="patch_4">
    <path clip-path="url(#p896b8f60a6)" d="M 87.526915 149.234373 
L 117.070064 149.234373 
L 117.070064 119.691224 
L 87.526915 119.691224 
z
" style="fill:#6fa4ff;stroke:#6fa4ff;stroke-linejoin:miter;stroke-width:1.5;"/>
   </g>
   <g id="patch_5">
    <path clip-path="url(#p896b8f60a6)" d="M 147.749489 47.992272 
C 148.924729 47.992272 150.051993 47.525344 150.883013 46.694324 
C 151.714034 45.863303 152.180961 44.73604 152.180961 43.5608 
C 152.180961 42.385559 151.714034 41.258296 150.883013 40.427275 
C 150.051993 39.596255 148.924729 39.129327 147.749489 39.129327 
C 146.574249 39.129327 145.446985 39.596255 144.615965 40.427275 
C 143.784944 41.258296 143.318017 42.385559 143.318017 43.5608 
C 143.318017 44.73604 143.784944 45.863303 144.615965 46.694324 
C 145.446985 47.525344 146.574249 47.992272 147.749489 47.992272 
z
" style="fill:#6fa4ff;stroke:#6fa4ff;stroke-linejoin:miter;stroke-width:1.5;"/>
   </g>
   <g id="patch_6">
    <path clip-path="url(#p896b8f60a6)" d="M 147.749489 235.704899 
C 150.491716 235.704899 153.121998 234.615401 155.061045 232.676354 
C 157.000093 230.737306 158.089591 228.107024 158.089591 225.364797 
C 158.089591 222.62257 157.000093 219.992288 155.061045 218.053241 
C 153.121998 216.114193 150.491716 215.024695 147.749489 215.024695 
C 145.007262 215.024695 142.37698 216.114193 140.437932 218.053241 
C 138.498885 219.992288 137.409387 222.62257 137.409387 225.364797 
C 137.409387 228.107024 138.498885 230.737306 140.437932 232.676354 
C 142.37698 234.615401 145.007262 235.704899 147.749489 235.704899 
z
" style="fill:#6fa4ff;stroke:#6fa4ff;stroke-linejoin:miter;stroke-width:2;"/>
   </g>
   <g id="patch_7">
    <path clip-path="url(#p896b8f60a6)" d="M 193.200488 93.443271 
C 194.375729 93.443271 195.502992 92.976343 196.334013 92.145323 
C 197.165033 91.314303 197.631961 90.187039 197.631961 89.011799 
C 197.631961 87.836559 197.165033 86.709295 196.334013 85.878275 
C 195.502992 85.047254 194.375729 84.580326 193.200488 84.580326 
C 192.025248 84.580326 190.897984 85.047254 190.066964 85.878275 
C 189.235944 86.709295 188.769016 87.836559 188.769016 89.011799 
C 188.769016 90.187039 189.235944 91.314303 190.066964 92.145323 
C 190.897984 92.976343 192.025248 93.443271 193.200488 93.443271 
z
" style="fill:#6fa4ff;stroke:#6fa4ff;stroke-linejoin:miter;stroke-width:1.5;"/>
   </g>
   <g id="patch_8">
    <path clip-path="url(#p896b8f60a6)" d="M 193.200488 235.704899 
C 195.942716 235.704899 198.572997 234.615401 200.512045 232.676354 
C 202.451092 230.737306 203.540591 228.107024 203.540591 225.364797 
C 203.540591 222.62257 202.451092 219.992288 200.512045 218.053241 
C 198.572997 216.114193 195.942716 215.024695 193.200488 215.024695 
C 190.458261 215.024695 187.827979 216.114193 185.888932 218.053241 
C 183.949884 219.992288 182.860386 222.62257 182.860386 225.364797 
C 182.860386 228.107024 183.949884 230.737306 185.888932 232.676354 
C 187.827979 234.615401 190.458261 235.704899 193.200488 235.704899 
z
" style="fill:#6fa4ff;stroke:#6fa4ff;stroke-linejoin:miter;stroke-width:2;"/>
   </g>
   <g id="patch_9">
    <path clip-path="url(#p896b8f60a6)" d="M 238.651488 138.894271 
C 239.826728 138.894271 240.953992 138.427343 241.785012 137.596323 
C 242.616032 136.765302 243.08296 135.638039 243.08296 134.462798 
C 243.08296 133.287558 242.616032 132.160294 241.785012 131.329274 
C 240.953992 130.498254 239.826728 130.031326 238.651488 130.031326 
C 237.476248 130.031326 236.348984 130.498254 235.517964 131.329274 
C 234.686943 132.160294 234.220015 133.287558 234.220015 134.462798 
C 234.220015 135.638039 234.686943 136.765302 235.517964 137.596323 
C 236.348984 138.427343 237.476248 138.894271 238.651488 138.894271 
z
" style="fill:#6fa4ff;stroke:#6fa4ff;stroke-linejoin:miter;stroke-width:1.5;"/>
   </g>
   <g id="patch_10">
    <path clip-path="url(#p896b8f60a6)" d="M 238.651488 235.704899 
C 241.393715 235.704899 244.023997 234.615401 245.963044 232.676354 
C 247.902092 230.737306 248.99159 228.107024 248.99159 225.364797 
C 248.99159 222.62257 247.902092 219.992288 245.963044 218.053241 
C 244.023997 216.114193 241.393715 215.024695 238.651488 215.024695 
C 235.909261 215.024695 233.278979 216.114193 231.339931 218.053241 
C 229.400884 219.992288 228.311385 222.62257 228.311385 225.364797 
C 228.311385 228.107024 229.400884 230.737306 231.339931 232.676354 
C 233.278979 234.615401 235.909261 235.704899 238.651488 235.704899 
z
" style="fill:#6fa4ff;stroke:#6fa4ff;stroke-linejoin:miter;stroke-width:2;"/>
   </g>
   <g id="patch_11">
    <path clip-path="url(#p896b8f60a6)" d="M 284.102487 47.992272 
C 285.277727 47.992272 286.404991 47.525344 287.236011 46.694324 
C 288.067032 45.863303 288.53396 44.73604 288.53396 43.5608 
C 288.53396 42.385559 288.067032 41.258296 287.236011 40.427275 
C 286.404991 39.596255 285.277727 39.129327 284.102487 39.129327 
C 282.927247 39.129327 281.799983 39.596255 280.968963 40.427275 
C 280.137943 41.258296 279.671015 42.385559 279.671015 43.5608 
C 279.671015 44.73604 280.137943 45.863303 280.968963 46.694324 
C 281.799983 47.525344 282.927247 47.992272 284.102487 47.992272 
z
" style="fill:#bb8bff;stroke:#bb8bff;stroke-linejoin:miter;stroke-width:1.5;"/>
   </g>
   <g id="patch_12">
    <path clip-path="url(#p896b8f60a6)" d="M 284.102487 93.443271 
C 285.277727 93.443271 286.404991 92.976343 287.236011 92.145323 
C 288.067032 91.314303 288.53396 90.187039 288.53396 89.011799 
C 288.53396 87.836559 288.067032 86.709295 287.236011 85.878275 
C 286.404991 85.047254 285.277727 84.580326 284.102487 84.580326 
C 282.927247 84.580326 281.799983 85.047254 280.968963 85.878275 
C 280.137943 86.709295 279.671015 87.836559 279.671015 89.011799 
C 279.671015 90.187039 280.137943 91.314303 280.968963 92.145323 
C 281.799983 92.976343 282.927247 93.443271 284.102487 93.443271 
z
" style="fill:#bb8bff;stroke:#bb8bff;stroke-linejoin:miter;stroke-width:1.5;"/>
   </g>
   <g id="patch_13">
    <path clip-path="url(#p896b8f60a6)" d="M 284.102487 190.2539 
C 286.844714 190.2539 289.474996 189.164402 291.414044 187.225354 
C 293.353091 185.286307 294.44259 182.656025 294.44259 179.913798 
C 294.44259 177.171571 293.353091 174.541289 291.414044 172.602241 
C 289.474996 170.663194 286.844714 169.573695 284.102487 169.573695 
C 281.36026 169.573695 278.729978 170.663194 276.790931 172.602241 
C 274.851883 174.541289 273.762385 177.171571 273.762385 179.913798 
C 273.762385 182.656025 274.851883 185.286307 276.790931 187.225354 
C 278.729978 189.164402 281.36026 190.2539 284.102487 190.2539 
z
" style="fill:#bb8bff;stroke:#bb8bff;stroke-linejoin:miter;stroke-width:2;"/>
   </g>
   <g id="patch_14">
    <path clip-path="url(#p896b8f60a6)" d="M 329.553487 93.443271 
C 330.728727 93.443271 331.85599 92.976343 332.687011 92.145323 
C 333.518031 91.314303 333.984959 90.187039 333.984959 89.011799 
C 333.984959 87.836559 333.518031 86.709295 332.687011 85.878275 
C 331.85599 85.047254 330.728727 84.580326 329.553487 84.580326 
C 328.378246 84.580326 327.250983 85.047254 326.419962 85.878275 
C 325.588942 86.709295 325.122014 87.836559 325.122014 89.011799 
C 325.122014 90.187039 325.588942 91.314303 326.419962 92.145323 
C 327.250983 92.976343 328.378246 93.443271 329.553487 93.443271 
z
" style="fill:#bb8bff;stroke:#bb8bff;stroke-linejoin:miter;stroke-width:1.5;"/>
   </g>
   <g id="patch_15">
    <path clip-path="url(#p896b8f60a6)" d="M 329.553487 138.894271 
C 330.728727 138.894271 331.85599 138.427343 332.687011 137.596323 
C 333.518031 136.765302 333.984959 135.638039 333.984959 134.462798 
C 333.984959 133.287558 333.518031 132.160294 332.687011 131.329274 
C 331.85599 130.498254 330.728727 130.031326 329.553487 130.031326 
C 328.378246 130.031326 327.250983 130.498254 326.419962 131.329274 
C 325.588942 132.160294 325.122014 133.287558 325.122014 134.462798 
C 325.122014 135.638039 325.588942 136.765302 326.419962 137.596323 
C 327.250983 138.427343 328.378246 138.894271 329.553487 138.894271 
z
" style="fill:#bb8bff;stroke:#bb8bff;stroke-linejoin:miter;stroke-width:1.5;"/>
   </g>
   <g id="patch_16">
    <path clip-path="url(#p896b8f60a6)" d="M 329.553487 190.2539 
C 332.295714 190.2539 334.925996 189.164402 336.865043 187.225354 
C 338.80409 185.286307 339.893589 182.656025 339.893589 179.913798 
C 339.893589 177.171571 338.80409 174.541289 336.865043 172.602241 
C 334.925996 170.663194 332.295714 169.573695 329.553487 169.573695 
C 326.811259 169.573695 324.180977 170.663194 322.24193 172.602241 
C 320.302883 174.541289 319.213384 177.171571 319.213384 179.913798 
C 319.213384 182.656025 320.302883 185.286307 322.24193 187.225354 
C 324.180977 189.164402 326.811259 190.2539 329.553487 190.2539 
z
" style="fill:#bb8bff;stroke:#bb8bff;stroke-linejoin:miter;stroke-width:2;"/>
   </g>
   <g id="patch_17">
    <path clip-path="url(#p896b8f60a6)" d="M 375.004486 138.894271 
C 376.179726 138.894271 377.30699 138.427343 378.13801 137.596323 
C 378.96903 136.765302 379.435958 135.638039 379.435958 134.462798 
C 379.435958 133.287558 378.96903 132.160294 378.13801 131.329274 
C 377.30699 130.498254 376.179726 130.031326 375.004486 130.031326 
C 373.829246 130.031326 372.701982 130.498254 371.870962 131.329274 
C 371.039941 132.160294 370.573014 133.287558 370.573014 134.462798 
C 370.573014 135.638039 371.039941 136.765302 371.870962 137.596323 
C 372.701982 138.427343 373.829246 138.894271 375.004486 138.894271 
z
" style="fill:#bb8bff;stroke:#bb8bff;stroke-linejoin:miter;stroke-width:1.5;"/>
   </g>
   <g id="patch_18">
    <path clip-path="url(#p896b8f60a6)" d="M 375.004486 47.992272 
C 376.179726 47.992272 377.30699 47.525344 378.13801 46.694324 
C 378.96903 45.863303 379.435958 44.73604 379.435958 43.5608 
C 379.435958 42.385559 378.96903 41.258296 378.13801 40.427275 
C 377.30699 39.596255 376.179726 39.129327 375.004486 39.129327 
C 373.829246 39.129327 372.701982 39.596255 371.870962 40.427275 
C 371.039941 41.258296 370.573014 42.385559 370.573014 43.5608 
C 370.573014 44.73604 371.039941 45.863303 371.870962 46.694324 
C 372.701982 47.525344 373.829246 47.992272 375.004486 47.992272 
z
" style="fill:#bb8bff;stroke:#bb8bff;stroke-linejoin:miter;stroke-width:1.5;"/>
   </g>
   <g id="patch_19">
    <path clip-path="url(#p896b8f60a6)" d="M 375.004486 190.2539 
C 377.746713 190.2539 380.376995 189.164402 382.316042 187.225354 
C 384.25509 185.286307 385.344588 182.656025 385.344588 179.913798 
C 385.344588 177.171571 384.25509 174.541289 382.316042 172.602241 
C 380.376995 170.663194 377.746713 169.573695 375.004486 169.573695 
C 372.262259 169.573695 369.631977 170.663194 367.692929 172.602241 
C 365.753882 174.541289 364.664384 177.171571 364.664384 179.913798 
C 364.664384 182.656025 365.753882 185.286307 367.692929 187.225354 
C 369.631977 189.164402 372.262259 190.2539 375.004486 190.2539 
z
" style="fill:#bb8bff;stroke:#bb8bff;stroke-linejoin:miter;stroke-width:2;"/>
   </g>
   <g id="line2d_12">
    <path clip-path="url(#p896b8f60a6)" d="M 147.749489 231.273427 
L 147.749489 219.456167 
" style="fill:none;stroke:#ffffff;stroke-linecap:square;stroke-width:2;"/>
   </g>
   <g id="line2d_13">
    <path clip-path="url(#p896b8f60a6)" d="M 141.840859 225.364797 
L 153.658119 225.364797 
" style="fill:none;stroke:#ffffff;stroke-linecap:square;stroke-width:2;"/>
   </g>
   <g id="line2d_14">
    <path clip-path="url(#p896b8f60a6)" d="M 193.200488 231.273427 
L 193.200488 219.456167 
" style="fill:none;stroke:#ffffff;stroke-linecap:square;stroke-width:2;"/>
   </g>
   <g id="line2d_15">
    <path clip-path="url(#p896b8f60a6)" d="M 187.291858 225.364797 
L 199.109118 225.364797 
" style="fill:none;stroke:#ffffff;stroke-linecap:square;stroke-width:2;"/>
   </g>
   <g id="line2d_16">
    <path clip-path="url(#p896b8f60a6)" d="M 238.651488 231.273427 
L 238.651488 219.456167 
" style="fill:none;stroke:#ffffff;stroke-linecap:square;stroke-width:2;"/>
   </g>
   <g id="line2d_17">
    <path clip-path="url(#p896b8f60a6)" d="M 232.742858 225.364797 
L 244.560118 225.364797 
" style="fill:none;stroke:#ffffff;stroke-linecap:square;stroke-width:2;"/>
   </g>
   <g id="line2d_18">
    <path clip-path="url(#p896b8f60a6)" d="M 284.102487 185.822428 
L 284.102487 174.005168 
" style="fill:none;stroke:#ffffff;stroke-linecap:square;stroke-width:2;"/>
   </g>
   <g id="line2d_19">
    <path clip-path="url(#p896b8f60a6)" d="M 278.193857 179.913798 
L 290.011117 179.913798 
" style="fill:none;stroke:#ffffff;stroke-linecap:square;stroke-width:2;"/>
   </g>
   <g id="line2d_20">
    <path clip-path="url(#p896b8f60a6)" d="M 329.553487 185.822428 
L 329.553487 174.005168 
" style="fill:none;stroke:#ffffff;stroke-linecap:square;stroke-width:2;"/>
   </g>
   <g id="line2d_21">
    <path clip-path="url(#p896b8f60a6)" d="M 323.644857 179.913798 
L 335.462116 179.913798 
" style="fill:none;stroke:#ffffff;stroke-linecap:square;stroke-width:2;"/>
   </g>
   <g id="line2d_22">
    <path clip-path="url(#p896b8f60a6)" d="M 375.004486 185.822428 
L 375.004486 174.005168 
" style="fill:none;stroke:#ffffff;stroke-linecap:square;stroke-width:2;"/>
   </g>
   <g id="line2d_23">
    <path clip-path="url(#p896b8f60a6)" d="M 369.095856 179.913798 
L 380.913116 179.913798 
" style="fill:none;stroke:#ffffff;stroke-linecap:square;stroke-width:2;"/>
   </g>
   <g id="text_1">
    <g clip-path="url(#p896b8f60a6)">
     <!-- ${a}$ -->
     <g transform="translate(58.58975 48.044784)scale(0.1625 -0.1625)">
      <defs>
       <path d="M 3438 1997 
L 3047 0 
L 2472 0 
L 2578 531 
Q 2325 219 2001 64 
Q 1678 -91 1281 -91 
Q 834 -91 548 182 
Q 263 456 263 884 
Q 263 1497 752 1853 
Q 1241 2209 2100 2209 
L 2900 2209 
L 2931 2363 
Q 2938 2388 2941 2417 
Q 2944 2447 2944 2509 
Q 2944 2788 2717 2942 
Q 2491 3097 2081 3097 
Q 1800 3097 1504 3025 
Q 1209 2953 897 2809 
L 997 3341 
Q 1322 3463 1633 3523 
Q 1944 3584 2234 3584 
Q 2853 3584 3176 3315 
Q 3500 3047 3500 2534 
Q 3500 2431 3484 2292 
Q 3469 2153 3438 1997 
z
M 2816 1759 
L 2241 1759 
Q 1534 1759 1195 1570 
Q 856 1381 856 984 
Q 856 709 1029 553 
Q 1203 397 1509 397 
Q 1978 397 2328 733 
Q 2678 1069 2791 1631 
L 2816 1759 
z
" id="DejaVuSans-Oblique-61" transform="scale(0.015625)"/>
      </defs>
      <use xlink:href="#DejaVuSans-Oblique-61"/>
     </g>
    </g>
   </g>
   <g id="text_2">
    <g clip-path="url(#p896b8f60a6)">
     <!-- ${b}$ -->
     <g transform="translate(58.26475 93.495783)scale(0.1625 -0.1625)">
      <defs>
       <path d="M 3169 2138 
Q 3169 2591 2961 2847 
Q 2753 3103 2388 3103 
Q 2122 3103 1889 2973 
Q 1656 2844 1484 2597 
Q 1303 2338 1198 1995 
Q 1094 1653 1094 1313 
Q 1094 881 1298 636 
Q 1503 391 1863 391 
Q 2134 391 2365 517 
Q 2597 644 2772 891 
Q 2950 1147 3059 1487 
Q 3169 1828 3169 2138 
z
M 1381 2969 
Q 1594 3256 1914 3420 
Q 2234 3584 2584 3584 
Q 3122 3584 3439 3221 
Q 3756 2859 3756 2241 
Q 3756 1734 3570 1259 
Q 3384 784 3041 416 
Q 2816 172 2522 40 
Q 2228 -91 1906 -91 
Q 1566 -91 1316 65 
Q 1066 222 909 531 
L 806 0 
L 231 0 
L 1178 4863 
L 1753 4863 
L 1381 2969 
z
" id="DejaVuSans-Oblique-62" transform="scale(0.015625)"/>
      </defs>
      <use transform="translate(0 0.015625)" xlink:href="#DejaVuSans-Oblique-62"/>
     </g>
    </g>
   </g>
   <g id="text_3">
    <g clip-path="url(#p896b8f60a6)">
     <!-- ${cin}$ -->
     <g transform="translate(44.77725 138.946783)scale(0.1625 -0.1625)">
      <defs>
       <path d="M 3431 3366 
L 3316 2797 
Q 3109 2947 2876 3022 
Q 2644 3097 2394 3097 
Q 2119 3097 1870 3000 
Q 1622 2903 1453 2725 
Q 1184 2453 1037 2087 
Q 891 1722 891 1331 
Q 891 859 1127 628 
Q 1363 397 1844 397 
Q 2081 397 2348 469 
Q 2616 541 2906 684 
L 2797 116 
Q 2547 13 2283 -39 
Q 2019 -91 1741 -91 
Q 1044 -91 669 257 
Q 294 606 294 1253 
Q 294 1797 489 2255 
Q 684 2713 1069 3078 
Q 1331 3328 1684 3456 
Q 2038 3584 2456 3584 
Q 2700 3584 2940 3529 
Q 3181 3475 3431 3366 
z
" id="DejaVuSans-Oblique-63" transform="scale(0.015625)"/>
       <path d="M 1172 4863 
L 1747 4863 
L 1606 4134 
L 1031 4134 
L 1172 4863 
z
M 909 3500 
L 1484 3500 
L 800 0 
L 225 0 
L 909 3500 
z
" id="DejaVuSans-Oblique-69" transform="scale(0.015625)"/>
       <path d="M 3566 2113 
L 3156 0 
L 2578 0 
L 2988 2091 
Q 3016 2238 3031 2350 
Q 3047 2463 3047 2528 
Q 3047 2791 2881 2937 
Q 2716 3084 2419 3084 
Q 1956 3084 1622 2776 
Q 1288 2469 1184 1941 
L 800 0 
L 225 0 
L 903 3500 
L 1478 3500 
L 1363 2950 
Q 1603 3253 1940 3418 
Q 2278 3584 2650 3584 
Q 3113 3584 3367 3334 
Q 3622 3084 3622 2631 
Q 3622 2519 3608 2391 
Q 3594 2263 3566 2113 
z
" id="DejaVuSans-Oblique-6e" transform="scale(0.015625)"/>
      </defs>
      <use transform="translate(0 0.015625)" xlink:href="#DejaVuSans-Oblique-63"/>
      <use transform="translate(54.980469 0.015625)" xlink:href="#DejaVuSans-Oblique-69"/>
      <use transform="translate(82.763672 0.015625)" xlink:href="#DejaVuSans-Oblique-6e"/>
     </g>
    </g>
   </g>
   <g id="text_4">
    <g clip-path="url(#p896b8f60a6)">
     <!-- ${cout}$ -->
     <g transform="translate(33.07725 184.397782)scale(0.1625 -0.1625)">
      <defs>
       <path d="M 1625 -91 
Q 1009 -91 651 289 
Q 294 669 294 1325 
Q 294 1706 417 2101 
Q 541 2497 738 2766 
Q 1047 3184 1428 3384 
Q 1809 3584 2291 3584 
Q 2888 3584 3255 3212 
Q 3622 2841 3622 2241 
Q 3622 1825 3500 1412 
Q 3378 1000 3181 728 
Q 2875 309 2494 109 
Q 2113 -91 1625 -91 
z
M 891 1344 
Q 891 869 1089 633 
Q 1288 397 1691 397 
Q 2269 397 2648 901 
Q 3028 1406 3028 2181 
Q 3028 2634 2825 2865 
Q 2622 3097 2228 3097 
Q 1903 3097 1650 2945 
Q 1397 2794 1197 2484 
Q 1050 2253 970 1956 
Q 891 1659 891 1344 
z
" id="DejaVuSans-Oblique-6f" transform="scale(0.015625)"/>
       <path d="M 428 1388 
L 838 3500 
L 1416 3500 
L 1006 1409 
Q 975 1256 961 1147 
Q 947 1038 947 966 
Q 947 700 1109 554 
Q 1272 409 1569 409 
Q 2031 409 2368 721 
Q 2706 1034 2809 1563 
L 3194 3500 
L 3769 3500 
L 3091 0 
L 2516 0 
L 2631 550 
Q 2388 244 2052 76 
Q 1716 -91 1338 -91 
Q 878 -91 622 161 
Q 366 413 366 863 
Q 366 956 381 1097 
Q 397 1238 428 1388 
z
" id="DejaVuSans-Oblique-75" transform="scale(0.015625)"/>
       <path d="M 2706 3500 
L 2619 3053 
L 1472 3053 
L 1100 1153 
Q 1081 1047 1072 975 
Q 1063 903 1063 863 
Q 1063 663 1183 572 
Q 1303 481 1569 481 
L 2150 481 
L 2053 0 
L 1503 0 
Q 991 0 739 200 
Q 488 400 488 806 
Q 488 878 497 964 
Q 506 1050 525 1153 
L 897 3053 
L 409 3053 
L 500 3500 
L 978 3500 
L 1172 4494 
L 1747 4494 
L 1556 3500 
L 2706 3500 
z
" id="DejaVuSans-Oblique-74" transform="scale(0.015625)"/>
      </defs>
      <use transform="translate(0 0.78125)" xlink:href="#DejaVuSans-Oblique-63"/>
      <use transform="translate(54.980469 0.78125)" xlink:href="#DejaVuSans-Oblique-6f"/>
      <use transform="translate(116.162109 0.78125)" xlink:href="#DejaVuSans-Oblique-75"/>
      <use transform="translate(179.541016 0.78125)" xlink:href="#DejaVuSans-Oblique-74"/>
     </g>
    </g>
   </g>
   <g id="text_5">
    <g clip-path="url(#p896b8f60a6)">
     <!-- ${sum}$ -->
     <g transform="translate(34.05225 229.848781)scale(0.1625 -0.1625)">
      <defs>
       <path d="M 3200 3397 
L 3091 2853 
Q 2863 2978 2609 3040 
Q 2356 3103 2088 3103 
Q 1634 3103 1373 2948 
Q 1113 2794 1113 2528 
Q 1113 2219 1719 2053 
Q 1766 2041 1788 2034 
L 1972 1978 
Q 2547 1819 2739 1644 
Q 2931 1469 2931 1166 
Q 2931 609 2489 259 
Q 2047 -91 1331 -91 
Q 1053 -91 747 -37 
Q 441 16 72 128 
L 184 722 
Q 500 559 806 475 
Q 1113 391 1394 391 
Q 1816 391 2080 572 
Q 2344 753 2344 1031 
Q 2344 1331 1650 1516 
L 1591 1531 
L 1394 1581 
Q 956 1697 753 1886 
Q 550 2075 550 2369 
Q 550 2928 970 3256 
Q 1391 3584 2113 3584 
Q 2397 3584 2667 3537 
Q 2938 3491 3200 3397 
z
" id="DejaVuSans-Oblique-73" transform="scale(0.015625)"/>
       <path d="M 5747 2113 
L 5338 0 
L 4763 0 
L 5166 2094 
Q 5191 2228 5203 2325 
Q 5216 2422 5216 2491 
Q 5216 2772 5059 2928 
Q 4903 3084 4622 3084 
Q 4203 3084 3875 2770 
Q 3547 2456 3450 1953 
L 3066 0 
L 2491 0 
L 2900 2094 
Q 2925 2209 2937 2307 
Q 2950 2406 2950 2484 
Q 2950 2769 2794 2926 
Q 2638 3084 2363 3084 
Q 1938 3084 1609 2770 
Q 1281 2456 1184 1953 
L 800 0 
L 225 0 
L 909 3500 
L 1484 3500 
L 1375 2956 
Q 1609 3263 1923 3423 
Q 2238 3584 2597 3584 
Q 2978 3584 3223 3384 
Q 3469 3184 3519 2828 
Q 3781 3197 4126 3390 
Q 4472 3584 4856 3584 
Q 5306 3584 5551 3325 
Q 5797 3066 5797 2591 
Q 5797 2488 5784 2364 
Q 5772 2241 5747 2113 
z
" id="DejaVuSans-Oblique-6d" transform="scale(0.015625)"/>
      </defs>
      <use xlink:href="#DejaVuSans-Oblique-73"/>
      <use transform="translate(52.099609 0)" xlink:href="#DejaVuSans-Oblique-75"/>
      <use transform="translate(115.478516 0)" xlink:href="#DejaVuSans-Oblique-6d"/>
     </g>
    </g>
   </g>
   <g id="text_6">
    <g clip-path="url(#p896b8f60a6)">
     <!-- H -->
     <g transform="translate(97.410286 47.147987)scale(0.13 -0.13)">
      <defs>
       <path d="M 628 4666 
L 1259 4666 
L 1259 2753 
L 3553 2753 
L 3553 4666 
L 4184 4666 
L 4184 0 
L 3553 0 
L 3553 2222 
L 1259 2222 
L 1259 0 
L 628 0 
L 628 4666 
z
" id="DejaVuSans-48" transform="scale(0.015625)"/>
      </defs>
      <use xlink:href="#DejaVuSans-48"/>
     </g>
    </g>
   </g>
   <g id="text_7">
    <g clip-path="url(#p896b8f60a6)">
     <!-- H -->
     <g transform="translate(97.410286 92.598986)scale(0.13 -0.13)">
      <use xlink:href="#DejaVuSans-48"/>
     </g>
    </g>
   </g>
   <g id="text_8">
    <g clip-path="url(#p896b8f60a6)">
     <!-- H -->
     <g transform="translate(97.410286 138.049986)scale(0.13 -0.13)">
      <use xlink:href="#DejaVuSans-48"/>
     </g>
    </g>
   </g>
  </g>
 </g>
 <defs>
  <clipPath id="p896b8f60a6">
   <rect height="245.435397" width="397.802146" x="7.2" y="7.2"/>
  </clipPath>
 </defs>
</svg>
