<?xml version="1.0" encoding="utf-8" standalone="no"?>
<!DOCTYPE svg PUBLIC "-//W3C//DTD SVG 1.1//EN"
  "http://www.w3.org/Graphics/SVG/1.1/DTD/svg11.dtd">
<svg height="168.933398pt" version="1.1" viewBox="0 0 267.245728 168.933398" width="267.245728pt" xmlns="http://www.w3.org/2000/svg" xmlns:xlink="http://www.w3.org/1999/xlink">
 <metadata>
  <rdf:RDF xmlns:cc="http://creativecommons.org/ns#" xmlns:dc="http://purl.org/dc/elements/1.1/" xmlns:rdf="http://www.w3.org/1999/02/22-rdf-syntax-ns#">
   <cc:Work>
    <dc:type rdf:resource="http://purl.org/dc/dcmitype/StillImage"/>
    <dc:date>2022-08-17T09:42:21.397686</dc:date>
    <dc:format>image/svg+xml</dc:format>
    <dc:creator>
     <cc:Agent>
      <dc:title>Matplotlib v3.4.3, https://matplotlib.org/</dc:title>
     </cc:Agent>
    </dc:creator>
   </cc:Work>
  </rdf:RDF>
 </metadata>
 <defs>
  <style type="text/css">*{stroke-linecap:butt;stroke-linejoin:round;}</style>
 </defs>
 <g id="figure_1">
  <g id="patch_1">
   <path d="M 0 168.933398 
L 267.245728 168.933398 
L 267.245728 0 
L 0 0 
z
" style="fill:#ffffff;"/>
  </g>
  <g id="axes_1">
   <g id="line2d_1">
    <path clip-path="url(#p936362a592)" d="M 69.15153 43.5608 
L 255.500628 43.5608 
" style="fill:none;stroke:#000000;stroke-linecap:square;stroke-width:2;"/>
   </g>
   <g id="line2d_2">
    <path clip-path="url(#p936362a592)" d="M 69.15153 89.011799 
L 255.500628 89.011799 
" style="fill:none;stroke:#000000;stroke-linecap:square;stroke-width:2;"/>
   </g>
   <g id="line2d_3">
    <path clip-path="url(#p936362a592)" d="M 69.15153 134.462798 
L 255.500628 134.462798 
" style="fill:none;stroke:#000000;stroke-linecap:square;stroke-width:2;"/>
   </g>
   <g id="line2d_4">
    <path clip-path="url(#p936362a592)" d="M 139.146069 134.462798 
L 139.146069 43.5608 
" style="fill:none;stroke:#6fa4ff;stroke-linecap:square;stroke-width:2;"/>
   </g>
   <g id="line2d_5">
    <path clip-path="url(#p936362a592)" d="M 184.597069 134.462798 
L 184.597069 89.011799 
" style="fill:none;stroke:#6fa4ff;stroke-linecap:square;stroke-width:2;"/>
   </g>
   <g id="patch_2">
    <path clip-path="url(#p936362a592)" d="M 78.923495 58.332374 
L 108.466645 58.332374 
L 108.466645 28.789225 
L 78.923495 28.789225 
z
" style="fill:#6fa4ff;stroke:#6fa4ff;stroke-linejoin:miter;stroke-width:1.5;"/>
   </g>
   <g id="patch_3">
    <path clip-path="url(#p936362a592)" d="M 78.923495 103.783374 
L 108.466645 103.783374 
L 108.466645 74.240224 
L 78.923495 74.240224 
z
" style="fill:#6fa4ff;stroke:#6fa4ff;stroke-linejoin:miter;stroke-width:1.5;"/>
   </g>
   <g id="patch_4">
    <path clip-path="url(#p936362a592)" d="M 139.146069 47.992272 
C 140.32131 47.992272 141.448573 47.525344 142.279594 46.694324 
C 143.110614 45.863303 143.577542 44.73604 143.577542 43.5608 
C 143.577542 42.385559 143.110614 41.258296 142.279594 40.427275 
C 141.448573 39.596255 140.32131 39.129327 139.146069 39.129327 
C 137.970829 39.129327 136.843565 39.596255 136.012545 40.427275 
C 135.181525 41.258296 134.714597 42.385559 134.714597 43.5608 
C 134.714597 44.73604 135.181525 45.863303 136.012545 46.694324 
C 136.843565 47.525344 137.970829 47.992272 139.146069 47.992272 
z
" style="fill:#6fa4ff;stroke:#6fa4ff;stroke-linejoin:miter;stroke-width:1.5;"/>
   </g>
   <g id="patch_5">
    <path clip-path="url(#p936362a592)" d="M 139.146069 144.802901 
C 141.888296 144.802901 144.518578 143.713402 146.457626 141.774355 
C 148.396673 139.835307 149.486172 137.205026 149.486172 134.462798 
C 149.486172 131.720571 148.396673 129.090289 146.457626 127.151242 
C 144.518578 125.212194 141.888296 124.122696 139.146069 124.122696 
C 136.403842 124.122696 133.77356 125.212194 131.834513 127.151242 
C 129.895465 129.090289 128.805967 131.720571 128.805967 134.462798 
C 128.805967 137.205026 129.895465 139.835307 131.834513 141.774355 
C 133.77356 143.713402 136.403842 144.802901 139.146069 144.802901 
z
" style="fill:#6fa4ff;stroke:#6fa4ff;stroke-linejoin:miter;stroke-width:2;"/>
   </g>
   <g id="patch_6">
    <path clip-path="url(#p936362a592)" d="M 184.597069 93.443271 
C 185.772309 93.443271 186.899573 92.976343 187.730593 92.145323 
C 188.561613 91.314303 189.028541 90.187039 189.028541 89.011799 
C 189.028541 87.836559 188.561613 86.709295 187.730593 85.878275 
C 186.899573 85.047254 185.772309 84.580326 184.597069 84.580326 
C 183.421828 84.580326 182.294565 85.047254 181.463544 85.878275 
C 180.632524 86.709295 180.165596 87.836559 180.165596 89.011799 
C 180.165596 90.187039 180.632524 91.314303 181.463544 92.145323 
C 182.294565 92.976343 183.421828 93.443271 184.597069 93.443271 
z
" style="fill:#6fa4ff;stroke:#6fa4ff;stroke-linejoin:miter;stroke-width:1.5;"/>
   </g>
   <g id="patch_7">
    <path clip-path="url(#p936362a592)" d="M 184.597069 144.802901 
C 187.339296 144.802901 189.969578 143.713402 191.908625 141.774355 
C 193.847673 139.835307 194.937171 137.205026 194.937171 134.462798 
C 194.937171 131.720571 193.847673 129.090289 191.908625 127.151242 
C 189.969578 125.212194 187.339296 124.122696 184.597069 124.122696 
C 181.854841 124.122696 179.22456 125.212194 177.285512 127.151242 
C 175.346465 129.090289 174.256966 131.720571 174.256966 134.462798 
C 174.256966 137.205026 175.346465 139.835307 177.285512 141.774355 
C 179.22456 143.713402 181.854841 144.802901 184.597069 144.802901 
z
" style="fill:#6fa4ff;stroke:#6fa4ff;stroke-linejoin:miter;stroke-width:2;"/>
   </g>
   <g id="patch_8">
    <path clip-path="url(#p936362a592)" d="M 215.276493 149.234373 
L 244.819643 149.234373 
L 244.819643 119.691224 
L 215.276493 119.691224 
z
" style="fill:#05bab6;stroke:#05bab6;stroke-linejoin:miter;stroke-width:1.5;"/>
   </g>
   <g id="line2d_6">
    <path clip-path="url(#p936362a592)" d="M 139.146069 140.371428 
L 139.146069 128.554168 
" style="fill:none;stroke:#ffffff;stroke-linecap:square;stroke-width:2;"/>
   </g>
   <g id="line2d_7">
    <path clip-path="url(#p936362a592)" d="M 133.237439 134.462798 
L 145.054699 134.462798 
" style="fill:none;stroke:#ffffff;stroke-linecap:square;stroke-width:2;"/>
   </g>
   <g id="line2d_8">
    <path clip-path="url(#p936362a592)" d="M 184.597069 140.371428 
L 184.597069 128.554168 
" style="fill:none;stroke:#ffffff;stroke-linecap:square;stroke-width:2;"/>
   </g>
   <g id="line2d_9">
    <path clip-path="url(#p936362a592)" d="M 178.688439 134.462798 
L 190.505699 134.462798 
" style="fill:none;stroke:#ffffff;stroke-linecap:square;stroke-width:2;"/>
   </g>
   <g id="text_1">
    <g clip-path="url(#p936362a592)">
     <!-- ${a}$ -->
     <g transform="translate(49.98633 48.044784)scale(0.1625 -0.1625)">
      <defs>
       <path d="M 3438 1997 
L 3047 0 
L 2472 0 
L 2578 531 
Q 2325 219 2001 64 
Q 1678 -91 1281 -91 
Q 834 -91 548 182 
Q 263 456 263 884 
Q 263 1497 752 1853 
Q 1241 2209 2100 2209 
L 2900 2209 
L 2931 2363 
Q 2938 2388 2941 2417 
Q 2944 2447 2944 2509 
Q 2944 2788 2717 2942 
Q 2491 3097 2081 3097 
Q 1800 3097 1504 3025 
Q 1209 2953 897 2809 
L 997 3341 
Q 1322 3463 1633 3523 
Q 1944 3584 2234 3584 
Q 2853 3584 3176 3315 
Q 3500 3047 3500 2534 
Q 3500 2431 3484 2292 
Q 3469 2153 3438 1997 
z
M 2816 1759 
L 2241 1759 
Q 1534 1759 1195 1570 
Q 856 1381 856 984 
Q 856 709 1029 553 
Q 1203 397 1509 397 
Q 1978 397 2328 733 
Q 2678 1069 2791 1631 
L 2816 1759 
z
" id="DejaVuSans-Oblique-61" transform="scale(0.015625)"/>
      </defs>
      <use xlink:href="#DejaVuSans-Oblique-61"/>
     </g>
    </g>
   </g>
   <g id="text_2">
    <g clip-path="url(#p936362a592)">
     <!-- ${b}$ -->
     <g transform="translate(49.66133 93.495783)scale(0.1625 -0.1625)">
      <defs>
       <path d="M 3169 2138 
Q 3169 2591 2961 2847 
Q 2753 3103 2388 3103 
Q 2122 3103 1889 2973 
Q 1656 2844 1484 2597 
Q 1303 2338 1198 1995 
Q 1094 1653 1094 1313 
Q 1094 881 1298 636 
Q 1503 391 1863 391 
Q 2134 391 2365 517 
Q 2597 644 2772 891 
Q 2950 1147 3059 1487 
Q 3169 1828 3169 2138 
z
M 1381 2969 
Q 1594 3256 1914 3420 
Q 2234 3584 2584 3584 
Q 3122 3584 3439 3221 
Q 3756 2859 3756 2241 
Q 3756 1734 3570 1259 
Q 3384 784 3041 416 
Q 2816 172 2522 40 
Q 2228 -91 1906 -91 
Q 1566 -91 1316 65 
Q 1066 222 909 531 
L 806 0 
L 231 0 
L 1178 4863 
L 1753 4863 
L 1381 2969 
z
" id="DejaVuSans-Oblique-62" transform="scale(0.015625)"/>
      </defs>
      <use transform="translate(0 0.015625)" xlink:href="#DejaVuSans-Oblique-62"/>
     </g>
    </g>
   </g>
   <g id="text_3">
    <g clip-path="url(#p936362a592)">
     <!-- ${out}$ -->
     <g transform="translate(33.41133 138.946783)scale(0.1625 -0.1625)">
      <defs>
       <path d="M 1625 -91 
Q 1009 -91 651 289 
Q 294 669 294 1325 
Q 294 1706 417 2101 
Q 541 2497 738 2766 
Q 1047 3184 1428 3384 
Q 1809 3584 2291 3584 
Q 2888 3584 3255 3212 
Q 3622 2841 3622 2241 
Q 3622 1825 3500 1412 
Q 3378 1000 3181 728 
Q 2875 309 2494 109 
Q 2113 -91 1625 -91 
z
M 891 1344 
Q 891 869 1089 633 
Q 1288 397 1691 397 
Q 2269 397 2648 901 
Q 3028 1406 3028 2181 
Q 3028 2634 2825 2865 
Q 2622 3097 2228 3097 
Q 1903 3097 1650 2945 
Q 1397 2794 1197 2484 
Q 1050 2253 970 1956 
Q 891 1659 891 1344 
z
" id="DejaVuSans-Oblique-6f" transform="scale(0.015625)"/>
       <path d="M 428 1388 
L 838 3500 
L 1416 3500 
L 1006 1409 
Q 975 1256 961 1147 
Q 947 1038 947 966 
Q 947 700 1109 554 
Q 1272 409 1569 409 
Q 2031 409 2368 721 
Q 2706 1034 2809 1563 
L 3194 3500 
L 3769 3500 
L 3091 0 
L 2516 0 
L 2631 550 
Q 2388 244 2052 76 
Q 1716 -91 1338 -91 
Q 878 -91 622 161 
Q 366 413 366 863 
Q 366 956 381 1097 
Q 397 1238 428 1388 
z
" id="DejaVuSans-Oblique-75" transform="scale(0.015625)"/>
       <path d="M 2706 3500 
L 2619 3053 
L 1472 3053 
L 1100 1153 
Q 1081 1047 1072 975 
Q 1063 903 1063 863 
Q 1063 663 1183 572 
Q 1303 481 1569 481 
L 2150 481 
L 2053 0 
L 1503 0 
Q 991 0 739 200 
Q 488 400 488 806 
Q 488 878 497 964 
Q 506 1050 525 1153 
L 897 3053 
L 409 3053 
L 500 3500 
L 978 3500 
L 1172 4494 
L 1747 4494 
L 1556 3500 
L 2706 3500 
z
" id="DejaVuSans-Oblique-74" transform="scale(0.015625)"/>
      </defs>
      <use transform="translate(0 0.78125)" xlink:href="#DejaVuSans-Oblique-6f"/>
      <use transform="translate(61.181641 0.78125)" xlink:href="#DejaVuSans-Oblique-75"/>
      <use transform="translate(124.560547 0.78125)" xlink:href="#DejaVuSans-Oblique-74"/>
     </g>
    </g>
   </g>
   <g id="text_4">
    <g clip-path="url(#p936362a592)">
     <!-- H -->
     <g transform="translate(88.806867 47.147987)scale(0.13 -0.13)">
      <defs>
       <path d="M 628 4666 
L 1259 4666 
L 1259 2753 
L 3553 2753 
L 3553 4666 
L 4184 4666 
L 4184 0 
L 3553 0 
L 3553 2222 
L 1259 2222 
L 1259 0 
L 628 0 
L 628 4666 
z
" id="DejaVuSans-48" transform="scale(0.015625)"/>
      </defs>
      <use xlink:href="#DejaVuSans-48"/>
     </g>
    </g>
   </g>
   <g id="text_5">
    <g clip-path="url(#p936362a592)">
     <!-- H -->
     <g transform="translate(88.806867 92.598986)scale(0.13 -0.13)">
      <use xlink:href="#DejaVuSans-48"/>
     </g>
    </g>
   </g>
   <g id="text_6">
    <g clip-path="url(#p936362a592)">
     <!-- X -->
     <g transform="translate(225.595568 138.049986)scale(0.13 -0.13)">
      <defs>
       <path d="M 403 4666 
L 1081 4666 
L 2241 2931 
L 3406 4666 
L 4084 4666 
L 2584 2425 
L 4184 0 
L 3506 0 
L 2194 1984 
L 872 0 
L 191 0 
L 1856 2491 
L 403 4666 
z
" id="DejaVuSans-58" transform="scale(0.015625)"/>
      </defs>
      <use xlink:href="#DejaVuSans-58"/>
     </g>
    </g>
   </g>
  </g>
 </g>
 <defs>
  <clipPath id="p936362a592">
   <rect height="154.533398" width="252.845728" x="7.2" y="7.2"/>
  </clipPath>
 </defs>
</svg>
