<?xml version="1.0" encoding="utf-8" standalone="no"?>
<!DOCTYPE svg PUBLIC "-//W3C//DTD SVG 1.1//EN"
  "http://www.w3.org/Graphics/SVG/1.1/DTD/svg11.dtd">
<svg height="259.835397pt" version="1.1" viewBox="0 0 459.069625 259.835397" width="459.069625pt" xmlns="http://www.w3.org/2000/svg" xmlns:xlink="http://www.w3.org/1999/xlink">
 <metadata>
  <rdf:RDF xmlns:cc="http://creativecommons.org/ns#" xmlns:dc="http://purl.org/dc/elements/1.1/" xmlns:rdf="http://www.w3.org/1999/02/22-rdf-syntax-ns#">
   <cc:Work>
    <dc:type rdf:resource="http://purl.org/dc/dcmitype/StillImage"/>
    <dc:date>2022-08-17T10:35:49.231114</dc:date>
    <dc:format>image/svg+xml</dc:format>
    <dc:creator>
     <cc:Agent>
      <dc:title>Matplotlib v3.4.3, https://matplotlib.org/</dc:title>
     </cc:Agent>
    </dc:creator>
   </cc:Work>
  </rdf:RDF>
 </metadata>
 <defs>
  <style type="text/css">*{stroke-linecap:butt;stroke-linejoin:round;}</style>
 </defs>
 <g id="figure_1">
  <g id="patch_1">
   <path d="M 0 259.835397 
L 459.069625 259.835397 
L 459.069625 0 
L 0 0 
z
" style="fill:#ffffff;"/>
  </g>
  <g id="axes_1">
   <g id="line2d_1">
    <path clip-path="url(#p18d280e9a6)" d="M 79.17143 43.5608 
L 447.324525 43.5608 
" style="fill:none;stroke:#000000;stroke-linecap:square;stroke-width:2;"/>
   </g>
   <g id="line2d_2">
    <path clip-path="url(#p18d280e9a6)" d="M 79.17143 89.011799 
L 447.324525 89.011799 
" style="fill:none;stroke:#000000;stroke-linecap:square;stroke-width:2;"/>
   </g>
   <g id="line2d_3">
    <path clip-path="url(#p18d280e9a6)" d="M 79.17143 134.462798 
L 447.324525 134.462798 
" style="fill:none;stroke:#000000;stroke-linecap:square;stroke-width:2;"/>
   </g>
   <g id="line2d_4">
    <path clip-path="url(#p18d280e9a6)" d="M 79.17143 179.913798 
L 447.324525 179.913798 
" style="fill:none;stroke:#000000;stroke-linecap:square;stroke-width:2;"/>
   </g>
   <g id="line2d_5">
    <path clip-path="url(#p18d280e9a6)" d="M 79.17143 225.364797 
L 447.324525 225.364797 
" style="fill:none;stroke:#000000;stroke-linecap:square;stroke-width:2;"/>
   </g>
   <g id="line2d_6">
    <path clip-path="url(#p18d280e9a6)" d="M 149.165969 225.364797 
L 149.165969 43.5608 
" style="fill:none;stroke:#6fa4ff;stroke-linecap:square;stroke-width:2;"/>
   </g>
   <g id="line2d_7">
    <path clip-path="url(#p18d280e9a6)" d="M 194.616969 225.364797 
L 194.616969 89.011799 
" style="fill:none;stroke:#6fa4ff;stroke-linecap:square;stroke-width:2;"/>
   </g>
   <g id="line2d_8">
    <path clip-path="url(#p18d280e9a6)" d="M 240.067968 225.364797 
L 240.067968 134.462798 
" style="fill:none;stroke:#6fa4ff;stroke-linecap:square;stroke-width:2;"/>
   </g>
   <g id="line2d_9">
    <path clip-path="url(#p18d280e9a6)" d="M 285.518968 179.913798 
L 285.518968 43.5608 
" style="fill:none;stroke:#bb8bff;stroke-linecap:square;stroke-width:2;"/>
   </g>
   <g id="line2d_10">
    <path clip-path="url(#p18d280e9a6)" d="M 330.969967 179.913798 
L 330.969967 89.011799 
" style="fill:none;stroke:#bb8bff;stroke-linecap:square;stroke-width:2;"/>
   </g>
   <g id="line2d_11">
    <path clip-path="url(#p18d280e9a6)" d="M 376.420966 179.913798 
L 376.420966 43.5608 
" style="fill:none;stroke:#bb8bff;stroke-linecap:square;stroke-width:2;"/>
   </g>
   <g id="patch_2">
    <path clip-path="url(#p18d280e9a6)" d="M 88.943395 58.332374 
L 118.486545 58.332374 
L 118.486545 28.789225 
L 88.943395 28.789225 
z
" style="fill:#6fa4ff;stroke:#6fa4ff;stroke-linejoin:miter;stroke-width:1.5;"/>
   </g>
   <g id="patch_3">
    <path clip-path="url(#p18d280e9a6)" d="M 88.943395 103.783374 
L 118.486545 103.783374 
L 118.486545 74.240224 
L 88.943395 74.240224 
z
" style="fill:#6fa4ff;stroke:#6fa4ff;stroke-linejoin:miter;stroke-width:1.5;"/>
   </g>
   <g id="patch_4">
    <path clip-path="url(#p18d280e9a6)" d="M 88.943395 149.234373 
L 118.486545 149.234373 
L 118.486545 119.691224 
L 88.943395 119.691224 
z
" style="fill:#6fa4ff;stroke:#6fa4ff;stroke-linejoin:miter;stroke-width:1.5;"/>
   </g>
   <g id="patch_5">
    <path clip-path="url(#p18d280e9a6)" d="M 149.165969 47.992272 
C 150.34121 47.992272 151.468473 47.525344 152.299494 46.694324 
C 153.130514 45.863303 153.597442 44.73604 153.597442 43.5608 
C 153.597442 42.385559 153.130514 41.258296 152.299494 40.427275 
C 151.468473 39.596255 150.34121 39.129327 149.165969 39.129327 
C 147.990729 39.129327 146.863465 39.596255 146.032445 40.427275 
C 145.201425 41.258296 144.734497 42.385559 144.734497 43.5608 
C 144.734497 44.73604 145.201425 45.863303 146.032445 46.694324 
C 146.863465 47.525344 147.990729 47.992272 149.165969 47.992272 
z
" style="fill:#6fa4ff;stroke:#6fa4ff;stroke-linejoin:miter;stroke-width:1.5;"/>
   </g>
   <g id="patch_6">
    <path clip-path="url(#p18d280e9a6)" d="M 149.165969 235.704899 
C 151.908197 235.704899 154.538478 234.615401 156.477526 232.676354 
C 158.416573 230.737306 159.506072 228.107024 159.506072 225.364797 
C 159.506072 222.62257 158.416573 219.992288 156.477526 218.053241 
C 154.538478 216.114193 151.908197 215.024695 149.165969 215.024695 
C 146.423742 215.024695 143.79346 216.114193 141.854413 218.053241 
C 139.915365 219.992288 138.825867 222.62257 138.825867 225.364797 
C 138.825867 228.107024 139.915365 230.737306 141.854413 232.676354 
C 143.79346 234.615401 146.423742 235.704899 149.165969 235.704899 
z
" style="fill:#6fa4ff;stroke:#6fa4ff;stroke-linejoin:miter;stroke-width:2;"/>
   </g>
   <g id="patch_7">
    <path clip-path="url(#p18d280e9a6)" d="M 194.616969 93.443271 
C 195.792209 93.443271 196.919473 92.976343 197.750493 92.145323 
C 198.581513 91.314303 199.048441 90.187039 199.048441 89.011799 
C 199.048441 87.836559 198.581513 86.709295 197.750493 85.878275 
C 196.919473 85.047254 195.792209 84.580326 194.616969 84.580326 
C 193.441729 84.580326 192.314465 85.047254 191.483445 85.878275 
C 190.652424 86.709295 190.185496 87.836559 190.185496 89.011799 
C 190.185496 90.187039 190.652424 91.314303 191.483445 92.145323 
C 192.314465 92.976343 193.441729 93.443271 194.616969 93.443271 
z
" style="fill:#6fa4ff;stroke:#6fa4ff;stroke-linejoin:miter;stroke-width:1.5;"/>
   </g>
   <g id="patch_8">
    <path clip-path="url(#p18d280e9a6)" d="M 194.616969 235.704899 
C 197.359196 235.704899 199.989478 234.615401 201.928525 232.676354 
C 203.867573 230.737306 204.957071 228.107024 204.957071 225.364797 
C 204.957071 222.62257 203.867573 219.992288 201.928525 218.053241 
C 199.989478 216.114193 197.359196 215.024695 194.616969 215.024695 
C 191.874742 215.024695 189.24446 216.114193 187.305412 218.053241 
C 185.366365 219.992288 184.276866 222.62257 184.276866 225.364797 
C 184.276866 228.107024 185.366365 230.737306 187.305412 232.676354 
C 189.24446 234.615401 191.874742 235.704899 194.616969 235.704899 
z
" style="fill:#6fa4ff;stroke:#6fa4ff;stroke-linejoin:miter;stroke-width:2;"/>
   </g>
   <g id="patch_9">
    <path clip-path="url(#p18d280e9a6)" d="M 179.845394 58.332374 
L 209.388544 58.332374 
L 209.388544 28.789225 
L 179.845394 28.789225 
z
" style="fill:#05bab6;stroke:#05bab6;stroke-linejoin:miter;stroke-width:1.5;"/>
   </g>
   <g id="patch_10">
    <path clip-path="url(#p18d280e9a6)" d="M 240.067968 138.894271 
C 241.243208 138.894271 242.370472 138.427343 243.201492 137.596323 
C 244.032513 136.765302 244.499441 135.638039 244.499441 134.462798 
C 244.499441 133.287558 244.032513 132.160294 243.201492 131.329274 
C 242.370472 130.498254 241.243208 130.031326 240.067968 130.031326 
C 238.892728 130.031326 237.765464 130.498254 236.934444 131.329274 
C 236.103424 132.160294 235.636496 133.287558 235.636496 134.462798 
C 235.636496 135.638039 236.103424 136.765302 236.934444 137.596323 
C 237.765464 138.427343 238.892728 138.894271 240.067968 138.894271 
z
" style="fill:#6fa4ff;stroke:#6fa4ff;stroke-linejoin:miter;stroke-width:1.5;"/>
   </g>
   <g id="patch_11">
    <path clip-path="url(#p18d280e9a6)" d="M 240.067968 235.704899 
C 242.810195 235.704899 245.440477 234.615401 247.379525 232.676354 
C 249.318572 230.737306 250.408071 228.107024 250.408071 225.364797 
C 250.408071 222.62257 249.318572 219.992288 247.379525 218.053241 
C 245.440477 216.114193 242.810195 215.024695 240.067968 215.024695 
C 237.325741 215.024695 234.695459 216.114193 232.756412 218.053241 
C 230.817364 219.992288 229.727866 222.62257 229.727866 225.364797 
C 229.727866 228.107024 230.817364 230.737306 232.756412 232.676354 
C 234.695459 234.615401 237.325741 235.704899 240.067968 235.704899 
z
" style="fill:#6fa4ff;stroke:#6fa4ff;stroke-linejoin:miter;stroke-width:2;"/>
   </g>
   <g id="patch_12">
    <path clip-path="url(#p18d280e9a6)" d="M 285.518968 138.894271 
C 286.694208 138.894271 287.821471 138.427343 288.652492 137.596323 
C 289.483512 136.765302 289.95044 135.638039 289.95044 134.462798 
C 289.95044 133.287558 289.483512 132.160294 288.652492 131.329274 
C 287.821471 130.498254 286.694208 130.031326 285.518968 130.031326 
C 284.343727 130.031326 283.216464 130.498254 282.385443 131.329274 
C 281.554423 132.160294 281.087495 133.287558 281.087495 134.462798 
C 281.087495 135.638039 281.554423 136.765302 282.385443 137.596323 
C 283.216464 138.427343 284.343727 138.894271 285.518968 138.894271 
z
" style="fill:#bb8bff;stroke:#bb8bff;stroke-linejoin:miter;stroke-width:1.5;"/>
   </g>
   <g id="patch_13">
    <path clip-path="url(#p18d280e9a6)" d="M 285.518968 47.992272 
C 286.694208 47.992272 287.821471 47.525344 288.652492 46.694324 
C 289.483512 45.863303 289.95044 44.73604 289.95044 43.5608 
C 289.95044 42.385559 289.483512 41.258296 288.652492 40.427275 
C 287.821471 39.596255 286.694208 39.129327 285.518968 39.129327 
C 284.343727 39.129327 283.216464 39.596255 282.385443 40.427275 
C 281.554423 41.258296 281.087495 42.385559 281.087495 43.5608 
C 281.087495 44.73604 281.554423 45.863303 282.385443 46.694324 
C 283.216464 47.525344 284.343727 47.992272 285.518968 47.992272 
z
" style="fill:#bb8bff;stroke:#bb8bff;stroke-linejoin:miter;stroke-width:1.5;"/>
   </g>
   <g id="patch_14">
    <path clip-path="url(#p18d280e9a6)" d="M 285.518968 190.2539 
C 288.261195 190.2539 290.891477 189.164402 292.830524 187.225354 
C 294.769571 185.286307 295.85907 182.656025 295.85907 179.913798 
C 295.85907 177.171571 294.769571 174.541289 292.830524 172.602241 
C 290.891477 170.663194 288.261195 169.573695 285.518968 169.573695 
C 282.77674 169.573695 280.146458 170.663194 278.207411 172.602241 
C 276.268364 174.541289 275.178865 177.171571 275.178865 179.913798 
C 275.178865 182.656025 276.268364 185.286307 278.207411 187.225354 
C 280.146458 189.164402 282.77674 190.2539 285.518968 190.2539 
z
" style="fill:#bb8bff;stroke:#bb8bff;stroke-linejoin:miter;stroke-width:2;"/>
   </g>
   <g id="patch_15">
    <path clip-path="url(#p18d280e9a6)" d="M 330.969967 138.894271 
C 332.145207 138.894271 333.272471 138.427343 334.103491 137.596323 
C 334.934511 136.765302 335.401439 135.638039 335.401439 134.462798 
C 335.401439 133.287558 334.934511 132.160294 334.103491 131.329274 
C 333.272471 130.498254 332.145207 130.031326 330.969967 130.031326 
C 329.794727 130.031326 328.667463 130.498254 327.836443 131.329274 
C 327.005422 132.160294 326.538495 133.287558 326.538495 134.462798 
C 326.538495 135.638039 327.005422 136.765302 327.836443 137.596323 
C 328.667463 138.427343 329.794727 138.894271 330.969967 138.894271 
z
" style="fill:#bb8bff;stroke:#bb8bff;stroke-linejoin:miter;stroke-width:1.5;"/>
   </g>
   <g id="patch_16">
    <path clip-path="url(#p18d280e9a6)" d="M 330.969967 93.443271 
C 332.145207 93.443271 333.272471 92.976343 334.103491 92.145323 
C 334.934511 91.314303 335.401439 90.187039 335.401439 89.011799 
C 335.401439 87.836559 334.934511 86.709295 334.103491 85.878275 
C 333.272471 85.047254 332.145207 84.580326 330.969967 84.580326 
C 329.794727 84.580326 328.667463 85.047254 327.836443 85.878275 
C 327.005422 86.709295 326.538495 87.836559 326.538495 89.011799 
C 326.538495 90.187039 327.005422 91.314303 327.836443 92.145323 
C 328.667463 92.976343 329.794727 93.443271 330.969967 93.443271 
z
" style="fill:#bb8bff;stroke:#bb8bff;stroke-linejoin:miter;stroke-width:1.5;"/>
   </g>
   <g id="patch_17">
    <path clip-path="url(#p18d280e9a6)" d="M 330.969967 190.2539 
C 333.712194 190.2539 336.342476 189.164402 338.281523 187.225354 
C 340.220571 185.286307 341.310069 182.656025 341.310069 179.913798 
C 341.310069 177.171571 340.220571 174.541289 338.281523 172.602241 
C 336.342476 170.663194 333.712194 169.573695 330.969967 169.573695 
C 328.22774 169.573695 325.597458 170.663194 323.65841 172.602241 
C 321.719363 174.541289 320.629865 177.171571 320.629865 179.913798 
C 320.629865 182.656025 321.719363 185.286307 323.65841 187.225354 
C 325.597458 189.164402 328.22774 190.2539 330.969967 190.2539 
z
" style="fill:#bb8bff;stroke:#bb8bff;stroke-linejoin:miter;stroke-width:2;"/>
   </g>
   <g id="patch_18">
    <path clip-path="url(#p18d280e9a6)" d="M 376.420966 47.992272 
C 377.596207 47.992272 378.72347 47.525344 379.554491 46.694324 
C 380.385511 45.863303 380.852439 44.73604 380.852439 43.5608 
C 380.852439 42.385559 380.385511 41.258296 379.554491 40.427275 
C 378.72347 39.596255 377.596207 39.129327 376.420966 39.129327 
C 375.245726 39.129327 374.118462 39.596255 373.287442 40.427275 
C 372.456422 41.258296 371.989494 42.385559 371.989494 43.5608 
C 371.989494 44.73604 372.456422 45.863303 373.287442 46.694324 
C 374.118462 47.525344 375.245726 47.992272 376.420966 47.992272 
z
" style="fill:#bb8bff;stroke:#bb8bff;stroke-linejoin:miter;stroke-width:1.5;"/>
   </g>
   <g id="patch_19">
    <path clip-path="url(#p18d280e9a6)" d="M 376.420966 93.443271 
C 377.596207 93.443271 378.72347 92.976343 379.554491 92.145323 
C 380.385511 91.314303 380.852439 90.187039 380.852439 89.011799 
C 380.852439 87.836559 380.385511 86.709295 379.554491 85.878275 
C 378.72347 85.047254 377.596207 84.580326 376.420966 84.580326 
C 375.245726 84.580326 374.118462 85.047254 373.287442 85.878275 
C 372.456422 86.709295 371.989494 87.836559 371.989494 89.011799 
C 371.989494 90.187039 372.456422 91.314303 373.287442 92.145323 
C 374.118462 92.976343 375.245726 93.443271 376.420966 93.443271 
z
" style="fill:#bb8bff;stroke:#bb8bff;stroke-linejoin:miter;stroke-width:1.5;"/>
   </g>
   <g id="patch_20">
    <path clip-path="url(#p18d280e9a6)" d="M 376.420966 190.2539 
C 379.163194 190.2539 381.793475 189.164402 383.732523 187.225354 
C 385.67157 185.286307 386.761069 182.656025 386.761069 179.913798 
C 386.761069 177.171571 385.67157 174.541289 383.732523 172.602241 
C 381.793475 170.663194 379.163194 169.573695 376.420966 169.573695 
C 373.678739 169.573695 371.048457 170.663194 369.10941 172.602241 
C 367.170362 174.541289 366.080864 177.171571 366.080864 179.913798 
C 366.080864 182.656025 367.170362 185.286307 369.10941 187.225354 
C 371.048457 189.164402 373.678739 190.2539 376.420966 190.2539 
z
" style="fill:#bb8bff;stroke:#bb8bff;stroke-linejoin:miter;stroke-width:2;"/>
   </g>
   <g id="patch_21">
    <path clip-path="url(#p18d280e9a6)" d="M 407.100391 58.332374 
L 436.643541 58.332374 
L 436.643541 28.789225 
L 407.100391 28.789225 
z
" style="fill:#05bab6;stroke:#05bab6;stroke-linejoin:miter;stroke-width:1.5;"/>
   </g>
   <g id="line2d_12">
    <path clip-path="url(#p18d280e9a6)" d="M 149.165969 231.273427 
L 149.165969 219.456167 
" style="fill:none;stroke:#ffffff;stroke-linecap:square;stroke-width:2;"/>
   </g>
   <g id="line2d_13">
    <path clip-path="url(#p18d280e9a6)" d="M 143.257339 225.364797 
L 155.074599 225.364797 
" style="fill:none;stroke:#ffffff;stroke-linecap:square;stroke-width:2;"/>
   </g>
   <g id="line2d_14">
    <path clip-path="url(#p18d280e9a6)" d="M 194.616969 231.273427 
L 194.616969 219.456167 
" style="fill:none;stroke:#ffffff;stroke-linecap:square;stroke-width:2;"/>
   </g>
   <g id="line2d_15">
    <path clip-path="url(#p18d280e9a6)" d="M 188.708339 225.364797 
L 200.525599 225.364797 
" style="fill:none;stroke:#ffffff;stroke-linecap:square;stroke-width:2;"/>
   </g>
   <g id="line2d_16">
    <path clip-path="url(#p18d280e9a6)" d="M 240.067968 231.273427 
L 240.067968 219.456167 
" style="fill:none;stroke:#ffffff;stroke-linecap:square;stroke-width:2;"/>
   </g>
   <g id="line2d_17">
    <path clip-path="url(#p18d280e9a6)" d="M 234.159338 225.364797 
L 245.976598 225.364797 
" style="fill:none;stroke:#ffffff;stroke-linecap:square;stroke-width:2;"/>
   </g>
   <g id="line2d_18">
    <path clip-path="url(#p18d280e9a6)" d="M 285.518968 185.822428 
L 285.518968 174.005168 
" style="fill:none;stroke:#ffffff;stroke-linecap:square;stroke-width:2;"/>
   </g>
   <g id="line2d_19">
    <path clip-path="url(#p18d280e9a6)" d="M 279.610338 179.913798 
L 291.427597 179.913798 
" style="fill:none;stroke:#ffffff;stroke-linecap:square;stroke-width:2;"/>
   </g>
   <g id="line2d_20">
    <path clip-path="url(#p18d280e9a6)" d="M 330.969967 185.822428 
L 330.969967 174.005168 
" style="fill:none;stroke:#ffffff;stroke-linecap:square;stroke-width:2;"/>
   </g>
   <g id="line2d_21">
    <path clip-path="url(#p18d280e9a6)" d="M 325.061337 179.913798 
L 336.878597 179.913798 
" style="fill:none;stroke:#ffffff;stroke-linecap:square;stroke-width:2;"/>
   </g>
   <g id="line2d_22">
    <path clip-path="url(#p18d280e9a6)" d="M 376.420966 185.822428 
L 376.420966 174.005168 
" style="fill:none;stroke:#ffffff;stroke-linecap:square;stroke-width:2;"/>
   </g>
   <g id="line2d_23">
    <path clip-path="url(#p18d280e9a6)" d="M 370.512336 179.913798 
L 382.329596 179.913798 
" style="fill:none;stroke:#ffffff;stroke-linecap:square;stroke-width:2;"/>
   </g>
   <g id="text_1">
    <g clip-path="url(#p18d280e9a6)">
     <!-- ${a}$ -->
     <g transform="translate(60.00623 48.044784)scale(0.1625 -0.1625)">
      <defs>
       <path d="M 3438 1997 
L 3047 0 
L 2472 0 
L 2578 531 
Q 2325 219 2001 64 
Q 1678 -91 1281 -91 
Q 834 -91 548 182 
Q 263 456 263 884 
Q 263 1497 752 1853 
Q 1241 2209 2100 2209 
L 2900 2209 
L 2931 2363 
Q 2938 2388 2941 2417 
Q 2944 2447 2944 2509 
Q 2944 2788 2717 2942 
Q 2491 3097 2081 3097 
Q 1800 3097 1504 3025 
Q 1209 2953 897 2809 
L 997 3341 
Q 1322 3463 1633 3523 
Q 1944 3584 2234 3584 
Q 2853 3584 3176 3315 
Q 3500 3047 3500 2534 
Q 3500 2431 3484 2292 
Q 3469 2153 3438 1997 
z
M 2816 1759 
L 2241 1759 
Q 1534 1759 1195 1570 
Q 856 1381 856 984 
Q 856 709 1029 553 
Q 1203 397 1509 397 
Q 1978 397 2328 733 
Q 2678 1069 2791 1631 
L 2816 1759 
z
" id="DejaVuSans-Oblique-61" transform="scale(0.015625)"/>
      </defs>
      <use xlink:href="#DejaVuSans-Oblique-61"/>
     </g>
    </g>
   </g>
   <g id="text_2">
    <g clip-path="url(#p18d280e9a6)">
     <!-- ${b}$ -->
     <g transform="translate(59.68123 93.495783)scale(0.1625 -0.1625)">
      <defs>
       <path d="M 3169 2138 
Q 3169 2591 2961 2847 
Q 2753 3103 2388 3103 
Q 2122 3103 1889 2973 
Q 1656 2844 1484 2597 
Q 1303 2338 1198 1995 
Q 1094 1653 1094 1313 
Q 1094 881 1298 636 
Q 1503 391 1863 391 
Q 2134 391 2365 517 
Q 2597 644 2772 891 
Q 2950 1147 3059 1487 
Q 3169 1828 3169 2138 
z
M 1381 2969 
Q 1594 3256 1914 3420 
Q 2234 3584 2584 3584 
Q 3122 3584 3439 3221 
Q 3756 2859 3756 2241 
Q 3756 1734 3570 1259 
Q 3384 784 3041 416 
Q 2816 172 2522 40 
Q 2228 -91 1906 -91 
Q 1566 -91 1316 65 
Q 1066 222 909 531 
L 806 0 
L 231 0 
L 1178 4863 
L 1753 4863 
L 1381 2969 
z
" id="DejaVuSans-Oblique-62" transform="scale(0.015625)"/>
      </defs>
      <use transform="translate(0 0.015625)" xlink:href="#DejaVuSans-Oblique-62"/>
     </g>
    </g>
   </g>
   <g id="text_3">
    <g clip-path="url(#p18d280e9a6)">
     <!-- ${bin}$ -->
     <g transform="translate(44.89373 138.946783)scale(0.1625 -0.1625)">
      <defs>
       <path d="M 1172 4863 
L 1747 4863 
L 1606 4134 
L 1031 4134 
L 1172 4863 
z
M 909 3500 
L 1484 3500 
L 800 0 
L 225 0 
L 909 3500 
z
" id="DejaVuSans-Oblique-69" transform="scale(0.015625)"/>
       <path d="M 3566 2113 
L 3156 0 
L 2578 0 
L 2988 2091 
Q 3016 2238 3031 2350 
Q 3047 2463 3047 2528 
Q 3047 2791 2881 2937 
Q 2716 3084 2419 3084 
Q 1956 3084 1622 2776 
Q 1288 2469 1184 1941 
L 800 0 
L 225 0 
L 903 3500 
L 1478 3500 
L 1363 2950 
Q 1603 3253 1940 3418 
Q 2278 3584 2650 3584 
Q 3113 3584 3367 3334 
Q 3622 3084 3622 2631 
Q 3622 2519 3608 2391 
Q 3594 2263 3566 2113 
z
" id="DejaVuSans-Oblique-6e" transform="scale(0.015625)"/>
      </defs>
      <use transform="translate(0 0.015625)" xlink:href="#DejaVuSans-Oblique-62"/>
      <use transform="translate(63.476562 0.015625)" xlink:href="#DejaVuSans-Oblique-69"/>
      <use transform="translate(91.259766 0.015625)" xlink:href="#DejaVuSans-Oblique-6e"/>
     </g>
    </g>
   </g>
   <g id="text_4">
    <g clip-path="url(#p18d280e9a6)">
     <!-- ${bout}$ -->
     <g transform="translate(33.03123 184.397782)scale(0.1625 -0.1625)">
      <defs>
       <path d="M 1625 -91 
Q 1009 -91 651 289 
Q 294 669 294 1325 
Q 294 1706 417 2101 
Q 541 2497 738 2766 
Q 1047 3184 1428 3384 
Q 1809 3584 2291 3584 
Q 2888 3584 3255 3212 
Q 3622 2841 3622 2241 
Q 3622 1825 3500 1412 
Q 3378 1000 3181 728 
Q 2875 309 2494 109 
Q 2113 -91 1625 -91 
z
M 891 1344 
Q 891 869 1089 633 
Q 1288 397 1691 397 
Q 2269 397 2648 901 
Q 3028 1406 3028 2181 
Q 3028 2634 2825 2865 
Q 2622 3097 2228 3097 
Q 1903 3097 1650 2945 
Q 1397 2794 1197 2484 
Q 1050 2253 970 1956 
Q 891 1659 891 1344 
z
" id="DejaVuSans-Oblique-6f" transform="scale(0.015625)"/>
       <path d="M 428 1388 
L 838 3500 
L 1416 3500 
L 1006 1409 
Q 975 1256 961 1147 
Q 947 1038 947 966 
Q 947 700 1109 554 
Q 1272 409 1569 409 
Q 2031 409 2368 721 
Q 2706 1034 2809 1563 
L 3194 3500 
L 3769 3500 
L 3091 0 
L 2516 0 
L 2631 550 
Q 2388 244 2052 76 
Q 1716 -91 1338 -91 
Q 878 -91 622 161 
Q 366 413 366 863 
Q 366 956 381 1097 
Q 397 1238 428 1388 
z
" id="DejaVuSans-Oblique-75" transform="scale(0.015625)"/>
       <path d="M 2706 3500 
L 2619 3053 
L 1472 3053 
L 1100 1153 
Q 1081 1047 1072 975 
Q 1063 903 1063 863 
Q 1063 663 1183 572 
Q 1303 481 1569 481 
L 2150 481 
L 2053 0 
L 1503 0 
Q 991 0 739 200 
Q 488 400 488 806 
Q 488 878 497 964 
Q 506 1050 525 1153 
L 897 3053 
L 409 3053 
L 500 3500 
L 978 3500 
L 1172 4494 
L 1747 4494 
L 1556 3500 
L 2706 3500 
z
" id="DejaVuSans-Oblique-74" transform="scale(0.015625)"/>
      </defs>
      <use transform="translate(0 0.015625)" xlink:href="#DejaVuSans-Oblique-62"/>
      <use transform="translate(63.476562 0.015625)" xlink:href="#DejaVuSans-Oblique-6f"/>
      <use transform="translate(124.658203 0.015625)" xlink:href="#DejaVuSans-Oblique-75"/>
      <use transform="translate(188.037109 0.015625)" xlink:href="#DejaVuSans-Oblique-74"/>
     </g>
    </g>
   </g>
   <g id="text_5">
    <g clip-path="url(#p18d280e9a6)">
     <!-- ${diff}$ -->
     <g transform="translate(43.75623 229.848781)scale(0.1625 -0.1625)">
      <defs>
       <path d="M 2675 525 
Q 2444 222 2128 65 
Q 1813 -91 1428 -91 
Q 903 -91 598 267 
Q 294 625 294 1247 
Q 294 1766 478 2236 
Q 663 2706 1013 3078 
Q 1244 3325 1534 3454 
Q 1825 3584 2144 3584 
Q 2481 3584 2739 3421 
Q 2997 3259 3138 2956 
L 3513 4863 
L 4091 4863 
L 3144 0 
L 2566 0 
L 2675 525 
z
M 891 1350 
Q 891 897 1095 644 
Q 1300 391 1663 391 
Q 1931 391 2161 520 
Q 2391 650 2566 903 
Q 2750 1166 2856 1509 
Q 2963 1853 2963 2188 
Q 2963 2622 2758 2865 
Q 2553 3109 2194 3109 
Q 1922 3109 1687 2981 
Q 1453 2853 1288 2613 
Q 1106 2353 998 2009 
Q 891 1666 891 1350 
z
" id="DejaVuSans-Oblique-64" transform="scale(0.015625)"/>
       <path d="M 3059 4863 
L 2969 4384 
L 2419 4384 
Q 2106 4384 1964 4261 
Q 1822 4138 1753 3809 
L 1691 3500 
L 2638 3500 
L 2553 3053 
L 1606 3053 
L 1013 0 
L 434 0 
L 1031 3053 
L 481 3053 
L 563 3500 
L 1113 3500 
L 1159 3744 
Q 1278 4363 1576 4613 
Q 1875 4863 2516 4863 
L 3059 4863 
z
" id="DejaVuSans-Oblique-66" transform="scale(0.015625)"/>
      </defs>
      <use transform="translate(0 0.015625)" xlink:href="#DejaVuSans-Oblique-64"/>
      <use transform="translate(63.476562 0.015625)" xlink:href="#DejaVuSans-Oblique-69"/>
      <use transform="translate(91.259766 0.015625)" xlink:href="#DejaVuSans-Oblique-66"/>
      <use transform="translate(126.464844 0.015625)" xlink:href="#DejaVuSans-Oblique-66"/>
     </g>
    </g>
   </g>
   <g id="text_6">
    <g clip-path="url(#p18d280e9a6)">
     <!-- H -->
     <g transform="translate(98.826767 47.147987)scale(0.13 -0.13)">
      <defs>
       <path d="M 628 4666 
L 1259 4666 
L 1259 2753 
L 3553 2753 
L 3553 4666 
L 4184 4666 
L 4184 0 
L 3553 0 
L 3553 2222 
L 1259 2222 
L 1259 0 
L 628 0 
L 628 4666 
z
" id="DejaVuSans-48" transform="scale(0.015625)"/>
      </defs>
      <use xlink:href="#DejaVuSans-48"/>
     </g>
    </g>
   </g>
   <g id="text_7">
    <g clip-path="url(#p18d280e9a6)">
     <!-- H -->
     <g transform="translate(98.826767 92.598986)scale(0.13 -0.13)">
      <use xlink:href="#DejaVuSans-48"/>
     </g>
    </g>
   </g>
   <g id="text_8">
    <g clip-path="url(#p18d280e9a6)">
     <!-- H -->
     <g transform="translate(98.826767 138.049986)scale(0.13 -0.13)">
      <use xlink:href="#DejaVuSans-48"/>
     </g>
    </g>
   </g>
   <g id="text_9">
    <g clip-path="url(#p18d280e9a6)">
     <!-- X -->
     <g transform="translate(190.164469 47.147987)scale(0.13 -0.13)">
      <defs>
       <path d="M 403 4666 
L 1081 4666 
L 2241 2931 
L 3406 4666 
L 4084 4666 
L 2584 2425 
L 4184 0 
L 3506 0 
L 2194 1984 
L 872 0 
L 191 0 
L 1856 2491 
L 403 4666 
z
" id="DejaVuSans-58" transform="scale(0.015625)"/>
      </defs>
      <use xlink:href="#DejaVuSans-58"/>
     </g>
    </g>
   </g>
   <g id="text_10">
    <g clip-path="url(#p18d280e9a6)">
     <!-- X -->
     <g transform="translate(417.419466 47.147987)scale(0.13 -0.13)">
      <use xlink:href="#DejaVuSans-58"/>
     </g>
    </g>
   </g>
  </g>
 </g>
 <defs>
  <clipPath id="p18d280e9a6">
   <rect height="245.435397" width="444.669625" x="7.2" y="7.2"/>
  </clipPath>
 </defs>
</svg>
