<?xml version="1.0" encoding="utf-8" standalone="no"?>
<!DOCTYPE svg PUBLIC "-//W3C//DTD SVG 1.1//EN"
  "http://www.w3.org/Graphics/SVG/1.1/DTD/svg11.dtd">
<svg height="168.933398pt" version="1.1" viewBox="0 0 170.683034 168.933398" width="170.683034pt" xmlns="http://www.w3.org/2000/svg" xmlns:xlink="http://www.w3.org/1999/xlink">
 <metadata>
  <rdf:RDF xmlns:cc="http://creativecommons.org/ns#" xmlns:dc="http://purl.org/dc/elements/1.1/" xmlns:rdf="http://www.w3.org/1999/02/22-rdf-syntax-ns#">
   <cc:Work>
    <dc:type rdf:resource="http://purl.org/dc/dcmitype/StillImage"/>
    <dc:date>2022-08-16T22:47:02.236195</dc:date>
    <dc:format>image/svg+xml</dc:format>
    <dc:creator>
     <cc:Agent>
      <dc:title>Matplotlib v3.4.3, https://matplotlib.org/</dc:title>
     </cc:Agent>
    </dc:creator>
   </cc:Work>
  </rdf:RDF>
 </metadata>
 <defs>
  <style type="text/css">*{stroke-linecap:butt;stroke-linejoin:round;}</style>
 </defs>
 <g id="figure_1">
  <g id="patch_1">
   <path d="M 0 168.933398 
L 170.683034 168.933398 
L 170.683034 0 
L 0 0 
z
" style="fill:#ffffff;"/>
  </g>
  <g id="axes_1">
   <g id="line2d_1">
    <path clip-path="url(#p7fc921b1b2)" d="M 63.490835 43.5608 
L 158.937934 43.5608 
" style="fill:none;stroke:#000000;stroke-linecap:square;stroke-width:2;"/>
   </g>
   <g id="line2d_2">
    <path clip-path="url(#p7fc921b1b2)" d="M 63.490835 89.011799 
L 158.937934 89.011799 
" style="fill:none;stroke:#000000;stroke-linecap:square;stroke-width:2;"/>
   </g>
   <g id="line2d_3">
    <path clip-path="url(#p7fc921b1b2)" d="M 63.490835 134.462798 
L 158.937934 134.462798 
" style="fill:none;stroke:#000000;stroke-linecap:square;stroke-width:2;"/>
   </g>
   <g id="line2d_4">
    <path clip-path="url(#p7fc921b1b2)" d="M 133.485375 134.462798 
L 133.485375 43.5608 
" style="fill:none;stroke:#bb8bff;stroke-linecap:square;stroke-width:2;"/>
   </g>
   <g id="patch_2">
    <path clip-path="url(#p7fc921b1b2)" d="M 73.2628 58.332374 
L 102.80595 58.332374 
L 102.80595 28.789225 
L 73.2628 28.789225 
z
" style="fill:#6fa4ff;stroke:#6fa4ff;stroke-linejoin:miter;stroke-width:1.5;"/>
   </g>
   <g id="patch_3">
    <path clip-path="url(#p7fc921b1b2)" d="M 73.2628 103.783374 
L 102.80595 103.783374 
L 102.80595 74.240224 
L 73.2628 74.240224 
z
" style="fill:#6fa4ff;stroke:#6fa4ff;stroke-linejoin:miter;stroke-width:1.5;"/>
   </g>
   <g id="patch_4">
    <path clip-path="url(#p7fc921b1b2)" d="M 133.485375 47.992272 
C 134.660615 47.992272 135.787878 47.525344 136.618899 46.694324 
C 137.449919 45.863303 137.916847 44.73604 137.916847 43.5608 
C 137.916847 42.385559 137.449919 41.258296 136.618899 40.427275 
C 135.787878 39.596255 134.660615 39.129327 133.485375 39.129327 
C 132.310134 39.129327 131.182871 39.596255 130.35185 40.427275 
C 129.52083 41.258296 129.053902 42.385559 129.053902 43.5608 
C 129.053902 44.73604 129.52083 45.863303 130.35185 46.694324 
C 131.182871 47.525344 132.310134 47.992272 133.485375 47.992272 
z
" style="fill:#bb8bff;stroke:#bb8bff;stroke-linejoin:miter;stroke-width:1.5;"/>
   </g>
   <g id="patch_5">
    <path clip-path="url(#p7fc921b1b2)" d="M 133.485375 93.443271 
C 134.660615 93.443271 135.787878 92.976343 136.618899 92.145323 
C 137.449919 91.314303 137.916847 90.187039 137.916847 89.011799 
C 137.916847 87.836559 137.449919 86.709295 136.618899 85.878275 
C 135.787878 85.047254 134.660615 84.580326 133.485375 84.580326 
C 132.310134 84.580326 131.182871 85.047254 130.35185 85.878275 
C 129.52083 86.709295 129.053902 87.836559 129.053902 89.011799 
C 129.053902 90.187039 129.52083 91.314303 130.35185 92.145323 
C 131.182871 92.976343 132.310134 93.443271 133.485375 93.443271 
z
" style="fill:#bb8bff;stroke:#bb8bff;stroke-linejoin:miter;stroke-width:1.5;"/>
   </g>
   <g id="patch_6">
    <path clip-path="url(#p7fc921b1b2)" d="M 133.485375 144.802901 
C 136.227602 144.802901 138.857884 143.713402 140.796931 141.774355 
C 142.735979 139.835307 143.825477 137.205026 143.825477 134.462798 
C 143.825477 131.720571 142.735979 129.090289 140.796931 127.151242 
C 138.857884 125.212194 136.227602 124.122696 133.485375 124.122696 
C 130.743147 124.122696 128.112866 125.212194 126.173818 127.151242 
C 124.234771 129.090289 123.145272 131.720571 123.145272 134.462798 
C 123.145272 137.205026 124.234771 139.835307 126.173818 141.774355 
C 128.112866 143.713402 130.743147 144.802901 133.485375 144.802901 
z
" style="fill:#bb8bff;stroke:#bb8bff;stroke-linejoin:miter;stroke-width:2;"/>
   </g>
   <g id="line2d_5">
    <path clip-path="url(#p7fc921b1b2)" d="M 133.485375 140.371428 
L 133.485375 128.554168 
" style="fill:none;stroke:#ffffff;stroke-linecap:square;stroke-width:2;"/>
   </g>
   <g id="line2d_6">
    <path clip-path="url(#p7fc921b1b2)" d="M 127.576745 134.462798 
L 139.394004 134.462798 
" style="fill:none;stroke:#ffffff;stroke-linecap:square;stroke-width:2;"/>
   </g>
   <g id="text_1">
    <g clip-path="url(#p7fc921b1b2)">
     <!-- ${q}_{0}$ -->
     <g transform="translate(36.363136 48.011776)scale(0.1625 -0.1625)">
      <defs>
       <path d="M 2669 525 
Q 2438 222 2123 65 
Q 1809 -91 1428 -91 
Q 897 -91 595 267 
Q 294 625 294 1253 
Q 294 1759 480 2231 
Q 666 2703 1013 3078 
Q 1238 3322 1530 3453 
Q 1822 3584 2144 3584 
Q 2531 3584 2781 3431 
Q 3031 3278 3144 2969 
L 3244 3494 
L 3822 3494 
L 2888 -1319 
L 2309 -1319 
L 2669 525 
z
M 891 1338 
Q 891 875 1084 633 
Q 1278 391 1644 391 
Q 2188 391 2572 911 
Q 2956 1431 2956 2175 
Q 2956 2625 2757 2864 
Q 2559 3103 2188 3103 
Q 1916 3103 1684 2976 
Q 1453 2850 1281 2606 
Q 1100 2350 995 2006 
Q 891 1663 891 1338 
z
" id="DejaVuSans-Oblique-71" transform="scale(0.015625)"/>
       <path d="M 2034 4250 
Q 1547 4250 1301 3770 
Q 1056 3291 1056 2328 
Q 1056 1369 1301 889 
Q 1547 409 2034 409 
Q 2525 409 2770 889 
Q 3016 1369 3016 2328 
Q 3016 3291 2770 3770 
Q 2525 4250 2034 4250 
z
M 2034 4750 
Q 2819 4750 3233 4129 
Q 3647 3509 3647 2328 
Q 3647 1150 3233 529 
Q 2819 -91 2034 -91 
Q 1250 -91 836 529 
Q 422 1150 422 2328 
Q 422 3509 836 4129 
Q 1250 4750 2034 4750 
z
" id="DejaVuSans-30" transform="scale(0.015625)"/>
      </defs>
      <use xlink:href="#DejaVuSans-Oblique-71"/>
      <use transform="translate(63.476562 -16.40625)scale(0.7)" xlink:href="#DejaVuSans-30"/>
     </g>
    </g>
   </g>
   <g id="text_2">
    <g clip-path="url(#p7fc921b1b2)">
     <!-- ${q}_{1}$ -->
     <g transform="translate(36.363136 93.462775)scale(0.1625 -0.1625)">
      <defs>
       <path d="M 794 531 
L 1825 531 
L 1825 4091 
L 703 3866 
L 703 4441 
L 1819 4666 
L 2450 4666 
L 2450 531 
L 3481 531 
L 3481 0 
L 794 0 
L 794 531 
z
" id="DejaVuSans-31" transform="scale(0.015625)"/>
      </defs>
      <use xlink:href="#DejaVuSans-Oblique-71"/>
      <use transform="translate(63.476562 -16.40625)scale(0.7)" xlink:href="#DejaVuSans-31"/>
     </g>
    </g>
   </g>
   <g id="text_3">
    <g clip-path="url(#p7fc921b1b2)">
     <!-- ${q}_{2}$ -->
     <g transform="translate(36.363136 138.913775)scale(0.1625 -0.1625)">
      <defs>
       <path d="M 1228 531 
L 3431 531 
L 3431 0 
L 469 0 
L 469 531 
Q 828 903 1448 1529 
Q 2069 2156 2228 2338 
Q 2531 2678 2651 2914 
Q 2772 3150 2772 3378 
Q 2772 3750 2511 3984 
Q 2250 4219 1831 4219 
Q 1534 4219 1204 4116 
Q 875 4013 500 3803 
L 500 4441 
Q 881 4594 1212 4672 
Q 1544 4750 1819 4750 
Q 2544 4750 2975 4387 
Q 3406 4025 3406 3419 
Q 3406 3131 3298 2873 
Q 3191 2616 2906 2266 
Q 2828 2175 2409 1742 
Q 1991 1309 1228 531 
z
" id="DejaVuSans-32" transform="scale(0.015625)"/>
      </defs>
      <use xlink:href="#DejaVuSans-Oblique-71"/>
      <use transform="translate(63.476562 -16.40625)scale(0.7)" xlink:href="#DejaVuSans-32"/>
     </g>
    </g>
   </g>
   <g id="text_4">
    <g clip-path="url(#p7fc921b1b2)">
     <!-- H -->
     <g transform="translate(83.146172 47.147987)scale(0.13 -0.13)">
      <defs>
       <path d="M 628 4666 
L 1259 4666 
L 1259 2753 
L 3553 2753 
L 3553 4666 
L 4184 4666 
L 4184 0 
L 3553 0 
L 3553 2222 
L 1259 2222 
L 1259 0 
L 628 0 
L 628 4666 
z
" id="DejaVuSans-48" transform="scale(0.015625)"/>
      </defs>
      <use xlink:href="#DejaVuSans-48"/>
     </g>
    </g>
   </g>
   <g id="text_5">
    <g clip-path="url(#p7fc921b1b2)">
     <!-- H -->
     <g transform="translate(83.146172 92.598986)scale(0.13 -0.13)">
      <use xlink:href="#DejaVuSans-48"/>
     </g>
    </g>
   </g>
  </g>
 </g>
 <defs>
  <clipPath id="p7fc921b1b2">
   <rect height="154.533398" width="156.283034" x="7.2" y="7.2"/>
  </clipPath>
 </defs>
</svg>
